code-new-roman_bold.sfdir
StartChar: exclam
Encoding: 33 33 352
Width: 1126
Flags: W
LayerCount: 2
Back
Fore
SplineSet
668 406 m 1,0,-1
 459 406 l 1,1,-1
 422 1413 l 1,2,-1
 705 1413 l 1,3,-1
 668 406 l 1,0,-1
563 289 m 256,4,5
 595 289 595 289 623.5 277 c 128,-1,6
 652 265 652 265 673 244 c 128,-1,7
 694 223 694 223 706.5 194.5 c 128,-1,8
 719 166 719 166 719 133 c 256,9,10
 719 100 719 100 706.5 71.5 c 128,-1,11
 694 43 694 43 673 22 c 128,-1,12
 652 1 652 1 623.5 -11 c 128,-1,13
 595 -23 595 -23 563 -23 c 256,14,15
 531 -23 531 -23 502.5 -11 c 128,-1,16
 474 1 474 1 453 22 c 128,-1,17
 432 43 432 43 420 71.5 c 128,-1,18
 408 100 408 100 408 133 c 256,19,20
 408 166 408 166 420 194.5 c 128,-1,21
 432 223 432 223 453 244 c 128,-1,22
 474 265 474 265 502.5 277 c 128,-1,23
 531 289 531 289 563 289 c 256,4,5
EndSplineSet
EndChar
StartChar: quotedbl
Encoding: 34 34 593
Width: 1126
Flags: W
LayerCount: 2
Back
Fore
SplineSet
457 915 m 1,0,-1
 260 915 l 1,1,-1
 227 1413 l 1,2,-1
 489 1413 l 1,3,-1
 457 915 l 1,0,-1
866 915 m 1,4,-1
 670 915 l 1,5,-1
 637 1413 l 1,6,-1
 899 1413 l 1,7,-1
 866 915 l 1,4,-1
EndSplineSet
EndChar
StartChar: numbersign
Encoding: 35 35 612
Width: 1126
Flags: W
LayerCount: 2
Back
Fore
SplineSet
839 340 m 1,0,-1
 805 0 l 1,1,-1
 609 0 l 1,2,-1
 644 340 l 1,3,-1
 412 340 l 1,4,-1
 378 0 l 1,5,-1
 182 0 l 1,6,-1
 217 340 l 1,7,-1
 41 340 l 1,8,-1
 41 523 l 1,9,-1
 235 523 l 1,10,-1
 264 810 l 1,11,-1
 94 810 l 1,12,-1
 94 993 l 1,13,-1
 282 993 l 1,14,-1
 314 1307 l 1,15,-1
 510 1307 l 1,16,-1
 478 993 l 1,17,-1
 709 993 l 1,18,-1
 741 1307 l 1,19,-1
 937 1307 l 1,20,-1
 905 993 l 1,21,-1
 1083 993 l 1,22,-1
 1083 810 l 1,23,-1
 887 810 l 1,24,-1
 858 523 l 1,25,-1
 1030 523 l 1,26,-1
 1030 340 l 1,27,-1
 839 340 l 1,0,-1
691 810 m 1,28,-1
 460 810 l 1,29,-1
 431 523 l 1,30,-1
 662 523 l 1,31,-1
 691 810 l 1,28,-1
EndSplineSet
EndChar
StartChar: dollar
Encoding: 36 36 603
Width: 1126
Flags: W
LayerCount: 2
Back
Fore
SplineSet
569 211 m 1,0,1
 623 217 623 217 661 231 c 128,-1,2
 699 245 699 245 722.5 265.5 c 128,-1,3
 746 286 746 286 757 311 c 128,-1,4
 768 336 768 336 768 365 c 0,5,6
 768 422 768 422 731.5 457 c 128,-1,7
 695 492 695 492 614 518 c 1,8,-1
 569 211 l 1,0,1
653 772 m 1,9,10
 720 748 720 748 787.5 719.5 c 128,-1,11
 855 691 855 691 909.5 649 c 128,-1,12
 964 607 964 607 998 547.5 c 128,-1,13
 1032 488 1032 488 1032 403 c 0,14,15
 1032 306 1032 306 994.5 233.5 c 128,-1,16
 957 161 957 161 891 111.5 c 128,-1,17
 825 62 825 62 735 35 c 128,-1,18
 645 8 645 8 539 2 c 1,19,-1
 502 -248 l 1,20,-1
 326 -248 l 1,21,-1
 362 4 l 1,22,23
 222 13 222 13 90 49 c 1,24,-1
 90 283 l 1,25,26
 161 260 161 260 239.5 240.5 c 128,-1,27
 318 221 318 221 393 213 c 1,28,-1
 446 575 l 1,29,30
 381 597 381 597 317.5 625.5 c 128,-1,31
 254 654 254 654 204 695.5 c 128,-1,32
 154 737 154 737 123 796.5 c 128,-1,33
 92 856 92 856 92 940 c 0,34,35
 92 1010 92 1010 119 1073 c 128,-1,36
 146 1136 146 1136 202.5 1185.5 c 128,-1,37
 259 1235 259 1235 346.5 1267 c 128,-1,38
 434 1299 434 1299 555 1305 c 1,39,-1
 586 1509 l 1,40,-1
 762 1509 l 1,41,-1
 731 1296 l 1,42,43
 784 1291 784 1291 835.5 1283 c 128,-1,44
 887 1275 887 1275 934 1264 c 1,45,-1
 934 1049 l 1,46,47
 880 1066 880 1066 819.5 1079 c 128,-1,48
 759 1092 759 1092 700 1098 c 1,49,-1
 653 772 l 1,9,10
524 1100 m 1,50,51
 429 1090 429 1090 390.5 1053.5 c 128,-1,52
 352 1017 352 1017 352 961 c 0,53,54
 352 916 352 916 386 885 c 128,-1,55
 420 854 420 854 485 829 c 1,56,-1
 524 1100 l 1,50,51
EndSplineSet
Substitution2: "'onum' Oldstyle Figures lookup 21 subtable" dollar.oldstyle
EndChar
StartChar: percent
Encoding: 37 37 681
Width: 1126
Flags: W
LayerCount: 2
Back
Fore
SplineSet
199 0 m 1,0,-1
 0 0 l 1,1,-1
 928 1413 l 1,2,-1
 1126 1413 l 1,3,-1
 199 0 l 1,0,-1
578 1130 m 0,4,5
 578 1063 578 1063 559 1006.5 c 128,-1,6
 540 950 540 950 504.5 908.5 c 128,-1,7
 469 867 469 867 417.5 844 c 128,-1,8
 366 821 366 821 301 821 c 0,9,10
 174 821 174 821 103.5 897 c 128,-1,11
 33 973 33 973 33 1122 c 0,12,13
 33 1189 33 1189 51.5 1245.5 c 128,-1,14
 70 1302 70 1302 105.5 1343.5 c 128,-1,15
 141 1385 141 1385 192.5 1408.5 c 128,-1,16
 244 1432 244 1432 309 1432 c 0,17,18
 436 1432 436 1432 507 1356 c 128,-1,19
 578 1280 578 1280 578 1130 c 0,4,5
400 1126 m 0,20,21
 400 1205 400 1205 376 1242.5 c 128,-1,22
 352 1280 352 1280 305 1280 c 0,23,24
 211 1280 211 1280 211 1126 c 0,25,26
 211 1048 211 1048 235 1010.5 c 128,-1,27
 259 973 259 973 305 973 c 0,28,29
 400 973 400 973 400 1126 c 0,20,21
1094 291 m 0,30,31
 1094 224 1094 224 1075 167.5 c 128,-1,32
 1056 111 1056 111 1020.5 69.5 c 128,-1,33
 985 28 985 28 933.5 5 c 128,-1,34
 882 -18 882 -18 817 -18 c 0,35,36
 690 -18 690 -18 619.5 57.5 c 128,-1,37
 549 133 549 133 549 283 c 0,38,39
 549 351 549 351 567.5 407.5 c 128,-1,40
 586 464 586 464 621.5 505 c 128,-1,41
 657 546 657 546 708.5 569.5 c 128,-1,42
 760 593 760 593 825 593 c 0,43,44
 952 593 952 593 1023 517 c 128,-1,45
 1094 441 1094 441 1094 291 c 0,30,31
916 287 m 0,46,47
 916 366 916 366 892 403.5 c 128,-1,48
 868 441 868 441 821 441 c 0,49,50
 727 441 727 441 727 287 c 0,51,52
 727 208 727 208 751 171 c 128,-1,53
 775 134 775 134 821 134 c 0,54,55
 916 134 916 134 916 287 c 0,46,47
EndSplineSet
EndChar
StartChar: ampersand
Encoding: 38 38 314
Width: 1126
Flags: W
LayerCount: 2
Back
Fore
SplineSet
1044 682 m 1,0,1
 1044 555 1044 555 1018 449 c 128,-1,2
 992 343 992 343 942 258 c 1,3,-1
 1155 0 l 1,4,-1
 866 0 l 1,5,-1
 795 86 l 1,6,7
 727 32 727 32 644 4.5 c 128,-1,8
 561 -23 561 -23 467 -23 c 0,9,10
 363 -23 363 -23 282 3.5 c 128,-1,11
 201 30 201 30 145 79 c 128,-1,12
 89 128 89 128 60 197.5 c 128,-1,13
 31 267 31 267 31 352 c 0,14,15
 31 424 31 424 50 482 c 128,-1,16
 69 540 69 540 101 586.5 c 128,-1,17
 133 633 133 633 175 669.5 c 128,-1,18
 217 706 217 706 264 737 c 1,19,-1
 244 764 l 2,20,21
 188 833 188 833 157.5 905.5 c 128,-1,22
 127 978 127 978 127 1047 c 0,23,24
 127 1117 127 1117 152 1181.5 c 128,-1,25
 177 1246 177 1246 225.5 1295.5 c 128,-1,26
 274 1345 274 1345 345 1375 c 128,-1,27
 416 1405 416 1405 508 1405 c 0,28,29
 595 1405 595 1405 663 1380.5 c 128,-1,30
 731 1356 731 1356 778 1314.5 c 128,-1,31
 825 1273 825 1273 849.5 1217 c 128,-1,32
 874 1161 874 1161 874 1098 c 0,33,34
 874 1020 874 1020 848 961.5 c 128,-1,35
 822 903 822 903 779.5 858.5 c 128,-1,36
 737 814 737 814 682.5 779.5 c 128,-1,37
 628 745 628 745 571 713 c 1,38,-1
 791 442 l 1,39,40
 805 493 805 493 812 553 c 128,-1,41
 819 613 819 613 817 682 c 1,42,-1
 1044 682 l 1,0,1
272 373 m 0,43,44
 272 329 272 329 287 292.5 c 128,-1,45
 302 256 302 256 329.5 229.5 c 128,-1,46
 357 203 357 203 396 188.5 c 128,-1,47
 435 174 435 174 483 174 c 0,48,49
 536 174 536 174 583.5 190 c 128,-1,50
 631 206 631 206 670 240 c 1,51,-1
 383 592 l 1,52,53
 333 550 333 550 302.5 498.5 c 128,-1,54
 272 447 272 447 272 373 c 0,43,44
643 1077 m 0,55,56
 643 1103 643 1103 633.5 1128.5 c 128,-1,57
 624 1154 624 1154 606 1173.5 c 128,-1,58
 588 1193 588 1193 562 1205 c 128,-1,59
 536 1217 536 1217 502 1217 c 256,60,61
 468 1217 468 1217 441 1204.5 c 128,-1,62
 414 1192 414 1192 395.5 1171 c 128,-1,63
 377 1150 377 1150 367.5 1122 c 128,-1,64
 358 1094 358 1094 358 1063 c 0,65,66
 358 1009 358 1009 384 960.5 c 128,-1,67
 410 912 410 912 455 856 c 1,68,-1
 457 852 l 1,69,70
 495 875 495 875 529 898.5 c 128,-1,71
 563 922 563 922 588.5 949 c 128,-1,72
 614 976 614 976 628.5 1007.5 c 128,-1,73
 643 1039 643 1039 643 1077 c 0,55,56
EndSplineSet
AlternateSubs2: "'ss06' Style Set 6 lookup 31 subtable" ampersand.ss05
Substitution2: "'ss05' Style Set 5 lookup 30 subtable" ampersand.ss05
AlternateSubs2: "'salt' Stylistic Alternatives lookup 23 subtable" ampersand.ss05
EndChar
StartChar: quotesingle
Encoding: 39 39 592
Width: 1126
Flags: W
LayerCount: 2
Back
Fore
SplineSet
668 915 m 1,0,-1
 459 915 l 1,1,-1
 426 1413 l 1,2,-1
 700 1413 l 1,3,-1
 668 915 l 1,0,-1
EndSplineSet
EndChar
StartChar: parenleft
Encoding: 40 40 383
Width: 1126
Flags: W
LayerCount: 2
Back
Fore
SplineSet
810 1464 m 1,0,-1
 904 1316 l 1,1,2
 412 1066 412 1066 412 513 c 0,3,4
 412 -13 412 -13 857 -262 c 1,5,6
 900 -280 900 -280 904 -296 c 1,7,-1
 803 -444 l 1,8,9
 502 -338 502 -338 318 -6 c 1,10,11
 203 246 203 246 203 466 c 2,12,-1
 203 561 l 2,13,14
 203 1058 203 1058 648 1390 c 1,15,16
 788 1464 788 1464 810 1464 c 1,0,-1
EndSplineSet
Substitution2: "'sups' Superscript lookup 34 subtable" uni207D
Substitution2: "'subs' Subscript lookup 22 subtable" uni208D
Substitution2: "'case' Case-Sensitive Forms lookup 0 subtable" parenleft.case
EndChar
StartChar: parenright
Encoding: 41 41 384
Width: 1126
Flags: W
LayerCount: 2
Back
Fore
SplineSet
490 1394 m 1,1,2
 935 1062 935 1062 935 565 c 2,3,-1
 935 470 l 2,4,5
 935 250 935 250 821 -2 c 1,6,7
 636 -334 636 -334 335 -440 c 1,8,-1
 234 -292 l 1,9,10
 238 -276 238 -276 281 -258 c 1,11,12
 726 -9 726 -9 726 517 c 0,13,14
 726 1070 726 1070 234 1320 c 1,15,-1
 328 1468 l 1,16,0
 351 1468 351 1468 490 1394 c 1,1,2
EndSplineSet
Substitution2: "'sups' Superscript lookup 34 subtable" uni207E
Substitution2: "'subs' Subscript lookup 22 subtable" uni208E
Substitution2: "'case' Case-Sensitive Forms lookup 0 subtable" parenright.case
EndChar
StartChar: asterisk
Encoding: 42 42 395
Width: 1126
Flags: W
LayerCount: 2
Back
Fore
SplineSet
668 549 m 1,0,-1
 459 549 l 1,1,-1
 487 858 l 1,2,-1
 236 678 l 1,3,-1
 135 852 l 1,4,-1
 416 981 l 1,5,-1
 135 1110 l 1,6,-1
 236 1284 l 1,7,-1
 487 1104 l 1,8,-1
 459 1413 l 1,9,-1
 668 1413 l 1,10,-1
 639 1104 l 1,11,-1
 891 1284 l 1,12,-1
 991 1110 l 1,13,-1
 711 981 l 1,14,-1
 991 852 l 1,15,-1
 891 678 l 1,16,-1
 639 858 l 1,17,-1
 668 549 l 1,0,-1
EndSplineSet
EndChar
StartChar: plus
Encoding: 43 43 683
Width: 1126
Flags: W
LayerCount: 2
Back
Fore
SplineSet
676 444 m 1,0,-1
 676 55 l 1,1,-1
 451 55 l 1,2,-1
 451 444 l 1,3,-1
 78 444 l 1,4,-1
 78 645 l 1,5,-1
 451 645 l 1,6,-1
 451 1032 l 1,7,-1
 676 1032 l 1,8,-1
 676 645 l 1,9,-1
 1049 645 l 1,10,-1
 1049 444 l 1,11,-1
 676 444 l 1,0,-1
EndSplineSet
Substitution2: "'sups' Superscript lookup 34 subtable" uni207A
Substitution2: "'subs' Subscript lookup 22 subtable" uni208A
EndChar
StartChar: hyphen
Encoding: 45 45 350
AltUni2: 0000ad.ffffffff.0 002010.ffffffff.0
Width: 1126
Flags: W
LayerCount: 2
Back
Fore
SplineSet
252 436 m 1,0,-1
 252 653 l 1,1,-1
 874 653 l 1,2,-1
 874 436 l 1,3,-1
 252 436 l 1,0,-1
EndSplineSet
Substitution2: "'case' Case-Sensitive Forms lookup 0 subtable" hyphen.case
EndChar
StartChar: period
Encoding: 46 46 348
Width: 1126
Flags: W
LayerCount: 2
Back
Fore
SplineSet
557 369 m 0,0,1
 599 369 599 369 635 353.5 c 128,-1,2
 671 338 671 338 697.5 311.5 c 128,-1,3
 724 285 724 285 739 249 c 128,-1,4
 754 213 754 213 754 172 c 0,5,6
 754 132 754 132 739 96.5 c 128,-1,7
 724 61 724 61 697.5 34.5 c 128,-1,8
 671 8 671 8 635 -7.5 c 128,-1,9
 599 -23 599 -23 557 -23 c 0,10,11
 517 -23 517 -23 482 -7.5 c 128,-1,12
 447 8 447 8 421 34.5 c 128,-1,13
 395 61 395 61 380 96.5 c 128,-1,14
 365 132 365 132 365 172 c 0,15,16
 365 213 365 213 380 249 c 128,-1,17
 395 285 395 285 421 311.5 c 128,-1,18
 447 338 447 338 482 353.5 c 128,-1,19
 517 369 517 369 557 369 c 0,0,1
EndSplineSet
EndChar
StartChar: slash
Encoding: 47 47 373
Width: 1126
Flags: W
LayerCount: 2
Back
Fore
SplineSet
309 -215 m 1,0,-1
 72 -215 l 1,1,-1
 770 1413 l 1,2,-1
 1008 1413 l 1,3,-1
 309 -215 l 1,0,-1
EndSplineSet
Substitution2: "Single Substitution lookup 8 subtable" fraction
EndChar
StartChar: zero
Encoding: 48 48 613
Width: 1126
Flags: W
LayerCount: 2
Back
Fore
SplineSet
1073 659 m 0,0,1
 1073 498 1073 498 1038 371 c 128,-1,2
 1003 244 1003 244 935.5 156.5 c 128,-1,3
 868 69 868 69 771 23 c 128,-1,4
 674 -23 674 -23 549 -23 c 0,5,6
 441 -23 441 -23 350 15 c 128,-1,7
 259 53 259 53 193 134.5 c 128,-1,8
 127 216 127 216 90 343 c 128,-1,9
 53 470 53 470 53 647 c 0,10,11
 53 808 53 808 88.5 935 c 128,-1,12
 124 1062 124 1062 191 1149.5 c 128,-1,13
 258 1237 258 1237 356 1283 c 128,-1,14
 454 1329 454 1329 578 1329 c 0,15,16
 686 1329 686 1329 777 1291 c 128,-1,17
 868 1253 868 1253 933.5 1172 c 128,-1,18
 999 1091 999 1091 1036 964 c 128,-1,19
 1073 837 1073 837 1073 659 c 0,0,1
299 655 m 0,20,21
 299 635 299 635 299 617.5 c 128,-1,22
 299 600 299 600 301 582 c 1,23,-1
 791 936 l 1,24,25
 756 1035 756 1035 698.5 1082.5 c 128,-1,26
 641 1130 641 1130 563 1130 c 0,27,28
 507 1130 507 1130 459 1101.5 c 128,-1,29
 411 1073 411 1073 375.5 1014 c 128,-1,30
 340 955 340 955 319.5 866 c 128,-1,31
 299 777 299 777 299 655 c 0,20,21
827 651 m 0,32,33
 827 668 827 668 826 685.5 c 128,-1,34
 825 703 825 703 825 719 c 1,35,-1
 338 367 l 1,36,37
 370 270 370 270 428 223 c 128,-1,38
 486 176 486 176 563 176 c 0,39,40
 619 176 619 176 667.5 205 c 128,-1,41
 716 234 716 234 751.5 292.5 c 128,-1,42
 787 351 787 351 807 440.5 c 128,-1,43
 827 530 827 530 827 651 c 0,32,33
EndSplineSet
Substitution2: "'ss08' Style Set 8 lookup 33 subtable" zero.ss08
Substitution2: "'ss07' Style Set 7 lookup 32 subtable" zero.ss07
AlternateSubs2: "'salt' Stylistic Alternatives lookup 23 subtable" zero.ss07 zero.ss08
Substitution2: "'subs' Subscript lookup 22 subtable" uni2080
Substitution2: "'onum' Oldstyle Figures lookup 21 subtable" zero.oldstyle
Substitution2: "'numr' Numerators lookup 20 subtable" uni2070
Substitution2: "'dnom' Denominators lookup 6 subtable" zero.dnom
EndChar
StartChar: one
Encoding: 49 49 616
Width: 1126
Flags: W
LayerCount: 2
Back
Fore
SplineSet
152 0 m 1,0,-1
 152 217 l 1,1,-1
 485 217 l 1,2,-1
 485 1057 l 1,3,-1
 195 897 l 1,4,-1
 115 1096 l 1,5,-1
 530 1315 l 1,6,-1
 735 1315 l 1,7,-1
 735 217 l 1,8,-1
 1022 217 l 1,9,-1
 1022 0 l 1,10,-1
 152 0 l 1,0,-1
EndSplineSet
Substitution2: "'subs' Subscript lookup 22 subtable" uni2081
Substitution2: "'onum' Oldstyle Figures lookup 21 subtable" one.oldstyle
Substitution2: "'numr' Numerators lookup 20 subtable" uni00B9
Substitution2: "'dnom' Denominators lookup 6 subtable" one.dnom
EndChar
StartChar: two
Encoding: 50 50 617
Width: 1126
Flags: W
LayerCount: 2
Back
Fore
SplineSet
129 0 m 1,0,-1
 129 180 l 1,1,-1
 438 489 l 2,2,3
 525 576 525 576 577.5 639 c 128,-1,4
 630 702 630 702 658.5 751.5 c 128,-1,5
 687 801 687 801 696 843 c 128,-1,6
 705 885 705 885 705 930 c 0,7,8
 705 967 705 967 693 1000.5 c 128,-1,9
 681 1034 681 1034 658 1058.5 c 128,-1,10
 635 1083 635 1083 600 1097.5 c 128,-1,11
 565 1112 565 1112 520 1112 c 0,12,13
 443 1112 443 1112 377 1078.5 c 128,-1,14
 311 1045 311 1045 252 989 c 1,15,-1
 123 1155 l 1,16,17
 208 1234 208 1234 314.5 1281.5 c 128,-1,18
 421 1329 421 1329 545 1329 c 0,19,20
 641 1329 641 1329 719 1304.5 c 128,-1,21
 797 1280 797 1280 852.5 1232 c 128,-1,22
 908 1184 908 1184 938.5 1112 c 128,-1,23
 969 1040 969 1040 969 946 c 0,24,25
 969 868 969 868 948 800.5 c 128,-1,26
 927 733 927 733 887 669 c 128,-1,27
 847 605 847 605 788.5 541 c 128,-1,28
 730 477 730 477 655 406 c 2,29,-1
 465 225 l 1,30,-1
 1016 225 l 1,31,-1
 1016 0 l 1,32,-1
 129 0 l 1,0,-1
EndSplineSet
Substitution2: "'subs' Subscript lookup 22 subtable" uni2082
Substitution2: "'onum' Oldstyle Figures lookup 21 subtable" two.oldstyle
Substitution2: "'numr' Numerators lookup 20 subtable" uni00B2
Substitution2: "'dnom' Denominators lookup 6 subtable" two.dnom
EndChar
StartChar: three
Encoding: 51 51 618
Width: 1126
Flags: W
LayerCount: 2
Back
Fore
SplineSet
1020 399 m 0,0,1
 1020 302 1020 302 984 224.5 c 128,-1,2
 948 147 948 147 873.5 92.5 c 128,-1,3
 799 38 799 38 686 9 c 128,-1,4
 573 -20 573 -20 420 -20 c 0,5,6
 386 -20 386 -20 348.5 -18.5 c 128,-1,7
 311 -17 311 -17 274 -14.5 c 128,-1,8
 237 -12 237 -12 202 -8.5 c 128,-1,9
 167 -5 167 -5 139 0 c 1,10,-1
 139 212 l 1,11,12
 202 200 202 200 280.5 192.5 c 128,-1,13
 359 185 359 185 444 185 c 0,14,15
 527 185 527 185 587 199 c 128,-1,16
 647 213 647 213 686 239.5 c 128,-1,17
 725 266 725 266 743.5 305 c 128,-1,18
 762 344 762 344 762 393 c 0,19,20
 762 436 762 436 743 471 c 128,-1,21
 724 506 724 506 685 530.5 c 128,-1,22
 646 555 646 555 585.5 568.5 c 128,-1,23
 525 582 525 582 442 582 c 2,24,-1
 297 582 l 1,25,-1
 297 768 l 1,26,-1
 430 768 l 2,27,28
 508 768 508 768 559.5 783.5 c 128,-1,29
 611 799 611 799 641.5 825 c 128,-1,30
 672 851 672 851 685 886.5 c 128,-1,31
 698 922 698 922 698 961 c 0,32,33
 698 1041 698 1041 646 1082.5 c 128,-1,34
 594 1124 594 1124 485 1124 c 0,35,36
 407 1124 407 1124 331 1109 c 128,-1,37
 255 1094 255 1094 174 1069 c 1,38,-1
 174 1274 l 1,39,40
 219 1289 219 1289 260 1299 c 128,-1,41
 301 1309 301 1309 342 1316 c 128,-1,42
 383 1323 383 1323 425 1326 c 128,-1,43
 467 1329 467 1329 512 1329 c 0,44,45
 620 1329 620 1329 701.5 1306 c 128,-1,46
 783 1283 783 1283 838.5 1240.5 c 128,-1,47
 894 1198 894 1198 922 1137 c 128,-1,48
 950 1076 950 1076 950 1001 c 0,49,50
 950 882 950 882 895.5 808.5 c 128,-1,51
 841 735 841 735 743 696 c 1,52,53
 806 686 806 686 857 661.5 c 128,-1,54
 908 637 908 637 944.5 598.5 c 128,-1,55
 981 560 981 560 1000.5 510 c 128,-1,56
 1020 460 1020 460 1020 399 c 0,0,1
EndSplineSet
Substitution2: "'subs' Subscript lookup 22 subtable" uni2083
Substitution2: "'onum' Oldstyle Figures lookup 21 subtable" three.oldstyle
Substitution2: "'numr' Numerators lookup 20 subtable" uni00B3
Substitution2: "'dnom' Denominators lookup 6 subtable" three.dnom
EndChar
StartChar: four
Encoding: 52 52 619
Width: 1126
Flags: W
LayerCount: 2
Back
Fore
SplineSet
885 266 m 1,0,-1
 885 0 l 1,1,-1
 647 0 l 1,2,-1
 647 266 l 1,3,-1
 39 266 l 1,4,-1
 39 475 l 1,5,-1
 549 1307 l 1,6,-1
 885 1307 l 1,7,-1
 885 481 l 1,8,-1
 1083 481 l 1,9,-1
 1083 266 l 1,10,-1
 885 266 l 1,0,-1
650 1071 m 1,11,-1
 278 481 l 1,12,-1
 650 481 l 1,13,-1
 650 1071 l 1,11,-1
EndSplineSet
Substitution2: "'subs' Subscript lookup 22 subtable" uni2084
Substitution2: "'onum' Oldstyle Figures lookup 21 subtable" four.oldstyle
Substitution2: "'numr' Numerators lookup 20 subtable" uni2074
Substitution2: "'dnom' Denominators lookup 6 subtable" four.dnom
EndChar
StartChar: five
Encoding: 53 53 620
Width: 1126
Flags: W
LayerCount: 2
Back
Fore
SplineSet
1006 418 m 0,0,1
 1006 313 1006 313 962 231.5 c 128,-1,2
 918 150 918 150 840 94 c 128,-1,3
 762 38 762 38 656 9 c 128,-1,4
 550 -20 550 -20 426 -20 c 0,5,6
 395 -20 395 -20 360 -18 c 128,-1,7
 325 -16 325 -16 289 -13 c 128,-1,8
 253 -10 253 -10 219 -5.5 c 128,-1,9
 185 -1 185 -1 156 4 c 1,10,-1
 156 217 l 1,11,12
 213 203 213 203 287 194.5 c 128,-1,13
 361 186 361 186 438 186 c 0,14,15
 588 186 588 186 666.5 243.5 c 128,-1,16
 745 301 745 301 745 403 c 0,17,18
 745 509 745 509 672 560.5 c 128,-1,19
 599 612 599 612 436 612 c 2,20,-1
 180 612 l 1,21,-1
 180 1307 l 1,22,-1
 934 1307 l 1,23,-1
 934 1077 l 1,24,-1
 408 1077 l 1,25,-1
 408 811 l 1,26,-1
 502 811 l 2,27,28
 602 811 602 811 693 793 c 128,-1,29
 784 775 784 775 853.5 730.5 c 128,-1,30
 923 686 923 686 964.5 610 c 128,-1,31
 1006 534 1006 534 1006 418 c 0,0,1
EndSplineSet
Substitution2: "'subs' Subscript lookup 22 subtable" uni2085
Substitution2: "'onum' Oldstyle Figures lookup 21 subtable" five.oldstyle
Substitution2: "'numr' Numerators lookup 20 subtable" uni2075
Substitution2: "'dnom' Denominators lookup 6 subtable" five.dnom
EndChar
StartChar: six
Encoding: 54 54 621
Width: 1126
Flags: W
LayerCount: 2
Back
Fore
SplineSet
1049 414 m 0,0,1
 1049 315 1049 315 1013 234.5 c 128,-1,2
 977 154 977 154 913.5 96.5 c 128,-1,3
 850 39 850 39 762 8 c 128,-1,4
 674 -23 674 -23 569 -23 c 0,5,6
 340 -23 340 -23 219 121 c 128,-1,7
 98 265 98 265 98 561 c 0,8,9
 98 669 98 669 111 766.5 c 128,-1,10
 124 864 124 864 154.5 946.5 c 128,-1,11
 185 1029 185 1029 236.5 1096 c 128,-1,12
 288 1163 288 1163 365 1209.5 c 128,-1,13
 442 1256 442 1256 547 1281.5 c 128,-1,14
 652 1307 652 1307 791 1307 c 2,15,-1
 940 1307 l 1,16,-1
 940 1100 l 1,17,-1
 766 1100 l 2,18,19
 658 1100 658 1100 585 1078 c 128,-1,20
 512 1056 512 1056 466 1015 c 128,-1,21
 420 974 420 974 397 915 c 128,-1,22
 374 856 374 856 367 782 c 2,23,-1
 365 758 l 1,24,25
 417 783 417 783 483.5 799 c 128,-1,26
 550 815 550 815 623 815 c 0,27,28
 729 815 729 815 809 787.5 c 128,-1,29
 889 760 889 760 942.5 708 c 128,-1,30
 996 656 996 656 1022.5 582 c 128,-1,31
 1049 508 1049 508 1049 414 c 0,0,1
795 403 m 0,32,33
 795 449 795 449 783 487.5 c 128,-1,34
 771 526 771 526 745.5 553.5 c 128,-1,35
 720 581 720 581 680.5 596.5 c 128,-1,36
 641 612 641 612 586 612 c 0,37,38
 554 612 554 612 522.5 606.5 c 128,-1,39
 491 601 491 601 461.5 592 c 128,-1,40
 432 583 432 583 405.5 572 c 128,-1,41
 379 561 379 561 358 549 c 1,42,43
 358 448 358 448 372 378.5 c 128,-1,44
 386 309 386 309 414.5 265 c 128,-1,45
 443 221 443 221 485.5 201.5 c 128,-1,46
 528 182 528 182 584 182 c 0,47,48
 632 182 632 182 671 198 c 128,-1,49
 710 214 710 214 737.5 243.5 c 128,-1,50
 765 273 765 273 780 313.5 c 128,-1,51
 795 354 795 354 795 403 c 0,32,33
EndSplineSet
Substitution2: "'subs' Subscript lookup 22 subtable" uni2086
Substitution2: "'onum' Oldstyle Figures lookup 21 subtable" six.oldstyle
Substitution2: "'numr' Numerators lookup 20 subtable" uni2076
Substitution2: "'dnom' Denominators lookup 6 subtable" six.dnom
EndChar
StartChar: seven
Encoding: 55 55 622
Width: 1126
Flags: W
LayerCount: 2
Back
Fore
SplineSet
489 0 m 1,0,-1
 213 0 l 1,1,-1
 733 1071 l 1,2,-1
 106 1071 l 1,3,-1
 106 1307 l 1,4,-1
 1014 1307 l 1,5,-1
 1014 1094 l 1,6,-1
 489 0 l 1,0,-1
EndSplineSet
Substitution2: "'subs' Subscript lookup 22 subtable" uni2087
Substitution2: "'onum' Oldstyle Figures lookup 21 subtable" seven.oldstyle
Substitution2: "'numr' Numerators lookup 20 subtable" uni2077
Substitution2: "'dnom' Denominators lookup 6 subtable" seven.dnom
EndChar
StartChar: eight
Encoding: 56 56 623
Width: 1126
Flags: W
LayerCount: 2
Back
Fore
SplineSet
780 692 m 1,0,1
 829 665 829 665 873.5 632.5 c 128,-1,2
 918 600 918 600 951.5 557.5 c 128,-1,3
 985 515 985 515 1004.5 461.5 c 128,-1,4
 1024 408 1024 408 1024 340 c 0,5,6
 1024 251 1024 251 988 183 c 128,-1,7
 952 115 952 115 888.5 69 c 128,-1,8
 825 23 825 23 739.5 0 c 128,-1,9
 654 -23 654 -23 555 -23 c 0,10,11
 445 -23 445 -23 360.5 0.5 c 128,-1,12
 276 24 276 24 218.5 67 c 128,-1,13
 161 110 161 110 131.5 171 c 128,-1,14
 102 232 102 232 102 307 c 0,15,16
 102 374 102 374 121.5 426.5 c 128,-1,17
 141 479 141 479 175 522 c 128,-1,18
 209 565 209 565 253.5 599 c 128,-1,19
 298 633 298 633 348 662 c 1,20,21
 303 688 303 688 263.5 719 c 128,-1,22
 224 750 224 750 194 789 c 128,-1,23
 164 828 164 828 146.5 876 c 128,-1,24
 129 924 129 924 129 985 c 0,25,26
 129 1056 129 1056 156.5 1118.5 c 128,-1,27
 184 1181 184 1181 238.5 1228 c 128,-1,28
 293 1275 293 1275 375.5 1302 c 128,-1,29
 458 1329 458 1329 569 1329 c 0,30,31
 671 1329 671 1329 751 1307.5 c 128,-1,32
 831 1286 831 1286 885.5 1246 c 128,-1,33
 940 1206 940 1206 968.5 1150.5 c 128,-1,34
 997 1095 997 1095 997 1028 c 0,35,36
 997 966 997 966 980 916 c 128,-1,37
 963 866 963 866 934 825.5 c 128,-1,38
 905 785 905 785 865 752.5 c 128,-1,39
 825 720 825 720 780 692 c 1,0,1
588 786 m 1,40,41
 624 806 624 806 655.5 828.5 c 128,-1,42
 687 851 687 851 710 878 c 128,-1,43
 733 905 733 905 747 937 c 128,-1,44
 761 969 761 969 761 1008 c 0,45,46
 761 1073 761 1073 710 1107 c 128,-1,47
 659 1141 659 1141 563 1141 c 0,48,49
 469 1141 469 1141 418 1106 c 128,-1,50
 367 1071 367 1071 367 1001 c 0,51,52
 367 963 367 963 384 933 c 128,-1,53
 401 903 401 903 431 877.5 c 128,-1,54
 461 852 461 852 501.5 830 c 128,-1,55
 542 808 542 808 588 786 c 1,40,41
537 565 m 1,56,57
 498 544 498 544 463.5 520 c 128,-1,58
 429 496 429 496 403.5 467 c 128,-1,59
 378 438 378 438 363 403.5 c 128,-1,60
 348 369 348 369 348 326 c 0,61,62
 348 250 348 250 407 210 c 128,-1,63
 466 170 466 170 563 170 c 0,64,65
 607 170 607 170 646 179 c 128,-1,66
 685 188 685 188 714.5 207 c 128,-1,67
 744 226 744 226 761 255.5 c 128,-1,68
 778 285 778 285 778 326 c 0,69,70
 778 368 778 368 759 401.5 c 128,-1,71
 740 435 740 435 707 463 c 128,-1,72
 674 491 674 491 630 516 c 128,-1,73
 586 541 586 541 537 565 c 1,56,57
EndSplineSet
Substitution2: "'subs' Subscript lookup 22 subtable" uni2088
Substitution2: "'onum' Oldstyle Figures lookup 21 subtable" eight.oldstyle
Substitution2: "'numr' Numerators lookup 20 subtable" uni2078
Substitution2: "'dnom' Denominators lookup 6 subtable" eight.dnom
EndChar
StartChar: nine
Encoding: 57 57 624
Width: 1126
Flags: W
LayerCount: 2
Back
Fore
SplineSet
1022 731 m 0,0,1
 1022 577 1022 577 996 462.5 c 128,-1,2
 970 348 970 348 922.5 267 c 128,-1,3
 875 186 875 186 809 134 c 128,-1,4
 743 82 743 82 662.5 52 c 128,-1,5
 582 22 582 22 490.5 11 c 128,-1,6
 399 0 399 0 301 0 c 2,7,-1
 150 0 l 1,8,-1
 150 209 l 1,9,-1
 328 209 l 2,10,11
 445 209 445 209 523.5 229.5 c 128,-1,12
 602 250 602 250 650.5 289.5 c 128,-1,13
 699 329 699 329 722.5 388 c 128,-1,14
 746 447 746 447 754 524 c 2,15,-1
 756 549 l 1,16,17
 703 524 703 524 635 508 c 128,-1,18
 567 492 567 492 498 492 c 0,19,20
 403 492 403 492 325 514 c 128,-1,21
 247 536 247 536 190.5 584 c 128,-1,22
 134 632 134 632 103 708.5 c 128,-1,23
 72 785 72 785 72 893 c 0,24,25
 72 991 72 991 107.5 1071.5 c 128,-1,26
 143 1152 143 1152 206.5 1209 c 128,-1,27
 270 1266 270 1266 357.5 1297.5 c 128,-1,28
 445 1329 445 1329 549 1329 c 0,29,30
 651 1329 651 1329 737.5 1300 c 128,-1,31
 824 1271 824 1271 887.5 1201.5 c 128,-1,32
 951 1132 951 1132 986.5 1017 c 128,-1,33
 1022 902 1022 902 1022 731 c 0,0,1
537 1124 m 0,34,35
 489 1124 489 1124 450 1108 c 128,-1,36
 411 1092 411 1092 383.5 1063 c 128,-1,37
 356 1034 356 1034 341 993.5 c 128,-1,38
 326 953 326 953 326 903 c 0,39,40
 326 797 326 797 382 745.5 c 128,-1,41
 438 694 438 694 537 694 c 0,42,43
 564 694 564 694 594.5 699 c 128,-1,44
 625 704 625 704 655.5 713 c 128,-1,45
 686 722 686 722 713.5 733.5 c 128,-1,46
 741 745 741 745 762 758 c 1,47,48
 762 847 762 847 750.5 915 c 128,-1,49
 739 983 739 983 712.5 1029.5 c 128,-1,50
 686 1076 686 1076 643 1100 c 128,-1,51
 600 1124 600 1124 537 1124 c 0,34,35
EndSplineSet
Substitution2: "'subs' Subscript lookup 22 subtable" uni2089
Substitution2: "'onum' Oldstyle Figures lookup 21 subtable" nine.oldstyle
Substitution2: "'numr' Numerators lookup 20 subtable" uni2079
Substitution2: "'dnom' Denominators lookup 6 subtable" nine.dnom
EndChar
StartChar: colon
Encoding: 58 58 347
Width: 1126
Flags: W
LayerCount: 2
Back
Fore
SplineSet
563 1026 m 256,0,1
 601 1026 601 1026 634 1012 c 128,-1,2
 667 998 667 998 691 973.5 c 128,-1,3
 715 949 715 949 729 916 c 128,-1,4
 743 883 743 883 743 846 c 0,5,6
 743 808 743 808 729 775 c 128,-1,7
 715 742 715 742 691 718 c 128,-1,8
 667 694 667 694 634 680 c 128,-1,9
 601 666 601 666 563 666 c 256,10,11
 525 666 525 666 492.5 680 c 128,-1,12
 460 694 460 694 435.5 718 c 128,-1,13
 411 742 411 742 397 775 c 128,-1,14
 383 808 383 808 383 846 c 0,15,16
 383 883 383 883 397 916 c 128,-1,17
 411 949 411 949 435.5 973.5 c 128,-1,18
 460 998 460 998 492.5 1012 c 128,-1,19
 525 1026 525 1026 563 1026 c 256,0,1
563 337 m 256,20,21
 601 337 601 337 634 323 c 128,-1,22
 667 309 667 309 691 285 c 128,-1,23
 715 261 715 261 729 228 c 128,-1,24
 743 195 743 195 743 158 c 0,25,26
 743 120 743 120 729 87 c 128,-1,27
 715 54 715 54 691 29.5 c 128,-1,28
 667 5 667 5 634 -9 c 128,-1,29
 601 -23 601 -23 563 -23 c 256,30,31
 525 -23 525 -23 492.5 -9 c 128,-1,32
 460 5 460 5 435.5 29.5 c 128,-1,33
 411 54 411 54 397 87 c 128,-1,34
 383 120 383 120 383 158 c 0,35,36
 383 195 383 195 397 228 c 128,-1,37
 411 261 411 261 435.5 285 c 128,-1,38
 460 309 460 309 492.5 323 c 128,-1,39
 525 337 525 337 563 337 c 256,20,21
EndSplineSet
EndChar
StartChar: semicolon
Encoding: 59 59 346
Width: 1126
Flags: W
LayerCount: 2
Back
Fore
SplineSet
223 -193 m 1,0,1
 283 -195 283 -195 335 -186 c 128,-1,2
 387 -177 387 -177 425.5 -157.5 c 128,-1,3
 464 -138 464 -138 486 -108 c 128,-1,4
 508 -78 508 -78 508 -37 c 0,5,6
 508 -8 508 -8 499.5 12.5 c 128,-1,7
 491 33 491 33 478 49.5 c 128,-1,8
 465 66 465 66 450.5 81.5 c 128,-1,9
 436 97 436 97 423 114.5 c 128,-1,10
 410 132 410 132 401.5 154.5 c 128,-1,11
 393 177 393 177 393 209 c 0,12,13
 393 240 393 240 404 269.5 c 128,-1,14
 415 299 415 299 436 322 c 128,-1,15
 457 345 457 345 487.5 359 c 128,-1,16
 518 373 518 373 557 373 c 0,17,18
 606 373 606 373 645 350.5 c 128,-1,19
 684 328 684 328 711 289.5 c 128,-1,20
 738 251 738 251 752 201.5 c 128,-1,21
 766 152 766 152 766 98 c 0,22,23
 766 5 766 5 732 -77 c 128,-1,24
 698 -159 698 -159 630.5 -220 c 128,-1,25
 563 -281 563 -281 461 -316.5 c 128,-1,26
 359 -352 359 -352 223 -352 c 1,27,-1
 223 -193 l 1,0,1
563 1026 m 256,28,29
 601 1026 601 1026 634 1012 c 128,-1,30
 667 998 667 998 691 973.5 c 128,-1,31
 715 949 715 949 729 916 c 128,-1,32
 743 883 743 883 743 846 c 0,33,34
 743 808 743 808 729 775 c 128,-1,35
 715 742 715 742 691 718 c 128,-1,36
 667 694 667 694 634 680 c 128,-1,37
 601 666 601 666 563 666 c 256,38,39
 525 666 525 666 492.5 680 c 128,-1,40
 460 694 460 694 435.5 718 c 128,-1,41
 411 742 411 742 397 775 c 128,-1,42
 383 808 383 808 383 846 c 0,43,44
 383 883 383 883 397 916 c 128,-1,45
 411 949 411 949 435.5 973.5 c 128,-1,46
 460 998 460 998 492.5 1012 c 128,-1,47
 525 1026 525 1026 563 1026 c 256,28,29
EndSplineSet
EndChar
StartChar: less
Encoding: 60 60 691
Width: 1126
Flags: W
LayerCount: 2
Back
Fore
SplineSet
776 -23 m 1,0,-1
 102 545 l 1,1,-1
 776 1112 l 1,2,-1
 932 954 l 1,3,-1
 436 547 l 1,4,-1
 932 135 l 1,5,-1
 776 -23 l 1,0,-1
EndSplineSet
EndChar
StartChar: equal
Encoding: 61 61 688
Width: 1126
Flags: W
LayerCount: 2
Back
Fore
SplineSet
133 646 m 1,0,-1
 133 840 l 1,1,-1
 993 840 l 1,2,-1
 993 646 l 1,3,-1
 133 646 l 1,0,-1
133 252 m 1,4,-1
 133 446 l 1,5,-1
 993 446 l 1,6,-1
 993 252 l 1,7,-1
 133 252 l 1,4,-1
EndSplineSet
Substitution2: "'sups' Superscript lookup 34 subtable" uni207C
Substitution2: "'subs' Subscript lookup 22 subtable" uni208C
EndChar
StartChar: greater
Encoding: 62 62 692
Width: 1126
Flags: W
LayerCount: 2
Back
Fore
SplineSet
350 1112 m 1,0,-1
 1024 545 l 1,1,-1
 350 -23 l 1,2,-1
 195 135 l 1,3,-1
 690 543 l 1,4,-1
 195 954 l 1,5,-1
 350 1112 l 1,0,-1
EndSplineSet
EndChar
StartChar: question
Encoding: 63 63 355
Width: 1126
Flags: W
LayerCount: 2
Back
Fore
SplineSet
965 979 m 256,0,1
 965 895 965 895 939.5 828.5 c 128,-1,2
 914 762 914 762 866.5 713.5 c 128,-1,3
 819 665 819 665 752 635 c 128,-1,4
 685 605 685 605 602 594 c 1,5,-1
 592 406 l 1,6,-1
 383 406 l 1,7,-1
 365 782 l 1,8,-1
 510 782 l 2,9,10
 559 782 559 782 594.5 796 c 128,-1,11
 630 810 630 810 652.5 834 c 128,-1,12
 675 858 675 858 685.5 889.5 c 128,-1,13
 696 921 696 921 696 956 c 0,14,15
 696 1004 696 1004 675.5 1045.5 c 128,-1,16
 655 1087 655 1087 611.5 1118.5 c 128,-1,17
 568 1150 568 1150 501 1168 c 128,-1,18
 434 1186 434 1186 340 1186 c 2,19,-1
 281 1186 l 1,20,-1
 281 1413 l 1,21,-1
 350 1413 l 2,22,23
 504 1413 504 1413 619 1376.5 c 128,-1,24
 734 1340 734 1340 811 1279.5 c 128,-1,25
 888 1219 888 1219 926.5 1141 c 128,-1,26
 965 1063 965 1063 965 979 c 256,0,1
653 137 m 256,27,28
 653 104 653 104 640 75 c 128,-1,29
 627 46 627 46 605 24 c 128,-1,30
 583 2 583 2 553 -10.5 c 128,-1,31
 523 -23 523 -23 489 -23 c 256,32,33
 455 -23 455 -23 425.5 -10.5 c 128,-1,34
 396 2 396 2 374 24 c 128,-1,35
 352 46 352 46 339 75 c 128,-1,36
 326 104 326 104 326 137 c 256,37,38
 326 170 326 170 339 199 c 128,-1,39
 352 228 352 228 374 250 c 128,-1,40
 396 272 396 272 425.5 284.5 c 128,-1,41
 455 297 455 297 489 297 c 256,42,43
 523 297 523 297 553 284.5 c 128,-1,44
 583 272 583 272 605 250 c 128,-1,45
 627 228 627 228 640 199 c 128,-1,46
 653 170 653 170 653 137 c 256,27,28
EndSplineSet
EndChar
StartChar: at
Encoding: 64 64 594
Width: 1126
Flags: W
LayerCount: 2
Back
Fore
SplineSet
807 410 m 2,0,1
 804 382 804 382 802.5 350 c 128,-1,2
 801 318 801 318 801 295 c 0,3,4
 801 255 801 255 808 243 c 128,-1,5
 815 231 815 231 829 231 c 0,6,7
 867 231 867 231 894.5 346 c 128,-1,8
 922 461 922 461 922 690 c 0,9,10
 922 829 922 829 906.5 935.5 c 128,-1,11
 891 1042 891 1042 857 1114 c 128,-1,12
 823 1186 823 1186 769 1223 c 128,-1,13
 715 1260 715 1260 639 1260 c 0,14,15
 580 1260 580 1260 525 1227 c 128,-1,16
 470 1194 470 1194 421.5 1134.5 c 128,-1,17
 373 1075 373 1075 333.5 992 c 128,-1,18
 294 909 294 909 265.5 808.5 c 128,-1,19
 237 708 237 708 221 593 c 128,-1,20
 205 478 205 478 205 354 c 0,21,22
 205 206 205 206 228 94 c 128,-1,23
 251 -18 251 -18 294.5 -93 c 128,-1,24
 338 -168 338 -168 399.5 -206 c 128,-1,25
 461 -244 461 -244 539 -244 c 0,26,27
 577 -244 577 -244 614.5 -239 c 128,-1,28
 652 -234 652 -234 692 -223 c 128,-1,29
 732 -212 732 -212 775 -193 c 128,-1,30
 818 -174 818 -174 868 -145 c 1,31,-1
 868 -336 l 1,32,33
 793 -376 793 -376 705 -398 c 128,-1,34
 617 -420 617 -420 524 -420 c 0,35,36
 392 -420 392 -420 295.5 -371.5 c 128,-1,37
 199 -323 199 -323 136 -226 c 128,-1,38
 73 -129 73 -129 42 15.5 c 128,-1,39
 11 160 11 160 10 352 c 0,40,41
 9 503 9 503 30 642 c 128,-1,42
 51 781 51 781 90.5 901.5 c 128,-1,43
 130 1022 130 1022 186.5 1120.5 c 128,-1,44
 243 1219 243 1219 314 1289 c 128,-1,45
 385 1359 385 1359 469 1397.5 c 128,-1,46
 553 1436 553 1436 647 1436 c 0,47,48
 765 1436 765 1436 853 1388 c 128,-1,49
 941 1340 941 1340 999.5 1247 c 128,-1,50
 1058 1154 1058 1154 1087 1018 c 128,-1,51
 1116 882 1116 882 1116 707 c 0,52,53
 1115 533 1115 533 1096 408.5 c 128,-1,54
 1077 284 1077 284 1038 203.5 c 128,-1,55
 999 123 999 123 940 85 c 128,-1,56
 881 47 881 47 801 47 c 0,57,58
 683 47 683 47 651 162 c 1,59,60
 622 106 622 106 576.5 76.5 c 128,-1,61
 531 47 531 47 475 47 c 0,62,63
 430 47 430 47 394.5 65.5 c 128,-1,64
 359 84 359 84 333.5 124 c 128,-1,65
 308 164 308 164 294.5 226.5 c 128,-1,66
 281 289 281 289 281 377 c 0,67,68
 281 441 281 441 286 508 c 128,-1,69
 291 575 291 575 304 638.5 c 128,-1,70
 317 702 317 702 339 758.5 c 128,-1,71
 361 815 361 815 395.5 857 c 128,-1,72
 430 899 430 899 478.5 923.5 c 128,-1,73
 527 948 527 948 592 948 c 0,74,75
 626 948 626 948 658.5 940.5 c 128,-1,76
 691 933 691 933 711 924 c 1,77,-1
 860 956 l 1,78,-1
 807 410 l 2,0,1
635 754 m 1,79,80
 630 759 630 759 619 762.5 c 128,-1,81
 608 766 608 766 596 766 c 0,82,83
 564 766 564 766 542.5 729.5 c 128,-1,84
 521 693 521 693 508.5 638 c 128,-1,85
 496 583 496 583 490.5 518 c 128,-1,86
 485 453 485 453 485 395 c 0,87,88
 485 341 485 341 487.5 309 c 128,-1,89
 490 277 490 277 495 259.5 c 128,-1,90
 500 242 500 242 506.5 236.5 c 128,-1,91
 513 231 513 231 520 231 c 0,92,93
 533 231 533 231 554 255 c 128,-1,94
 575 279 575 279 598 332 c 1,95,-1
 635 754 l 1,79,80
EndSplineSet
Substitution2: "'case' Case-Sensitive Forms lookup 0 subtable" at.case
EndChar
StartChar: A
Encoding: 65 65 4
Width: 1126
GlyphClass: 2
Flags: W
AnchorPoint: "Anchor-11" 0 1700 basechar 0
AnchorPoint: "Anchor-10" 1126 1700 basechar 0
AnchorPoint: "Anchor-9" 1045 0 basechar 0
AnchorPoint: "Anchor-8" 563 -50 basechar 0
AnchorPoint: "Anchor-7" 600 1300 basechar 0
AnchorPoint: "Anchor-6" 1126 -350 basechar 0
AnchorPoint: "Anchor-5" 1126 1700 basechar 0
AnchorPoint: "Anchor-4" 670 1300 basechar 0
AnchorPoint: "Anchor-2" 563 -180 basechar 0
AnchorPoint: "Anchor-1" 916 1390 basechar 0
AnchorPoint: "Anchor-0" 563 1430 basechar 0
LayerCount: 2
Back
Fore
SplineSet
850 0 m 1,0,-1
 778 258 l 1,1,-1
 322 258 l 1,2,-1
 248 0 l 1,3,-1
 4 0 l 1,4,-1
 391 1307 l 1,5,-1
 735 1307 l 1,6,-1
 1122 0 l 1,7,-1
 850 0 l 1,0,-1
553 1067 m 1,8,-1
 381 459 l 1,9,-1
 723 459 l 1,10,-1
 553 1067 l 1,8,-1
EndSplineSet
Substitution2: "'sups' Superscript lookup 34 subtable" A.superior
EndChar
StartChar: B
Encoding: 66 66 5
Width: 1126
GlyphClass: 2
Flags: W
AnchorPoint: "Anchor-11" 0 1700 basechar 0
AnchorPoint: "Anchor-10" 1126 1700 basechar 0
AnchorPoint: "Anchor-9" 660 25 basechar 0
AnchorPoint: "Anchor-7" 770 1250 basechar 0
AnchorPoint: "Anchor-6" 1126 -350 basechar 0
AnchorPoint: "Anchor-5" 1126 1700 basechar 0
AnchorPoint: "Anchor-4" 880 1230 basechar 0
AnchorPoint: "Anchor-2" 563 -180 basechar 0
AnchorPoint: "Anchor-1" 996 1390 basechar 0
AnchorPoint: "Anchor-0" 563 1430 basechar 0
LayerCount: 2
Back
Fore
SplineSet
129 0 m 1,0,-1
 129 1307 l 1,1,-1
 551 1307 l 2,2,3
 774 1307 774 1307 885.5 1229 c 128,-1,4
 997 1151 997 1151 997 993 c 0,5,6
 997 944 997 944 985.5 897.5 c 128,-1,7
 974 851 974 851 950 812 c 128,-1,8
 926 773 926 773 890 743 c 128,-1,9
 854 713 854 713 805 696 c 1,10,11
 854 688 854 688 898.5 664.5 c 128,-1,12
 943 641 943 641 976.5 603.5 c 128,-1,13
 1010 566 1010 566 1029.5 515 c 128,-1,14
 1049 464 1049 464 1049 401 c 0,15,16
 1049 201 1049 201 915 100.5 c 128,-1,17
 781 0 781 0 528 0 c 2,18,-1
 129 0 l 1,0,-1
741 950 m 0,19,20
 741 987 741 987 729 1017 c 128,-1,21
 717 1047 717 1047 690.5 1068 c 128,-1,22
 664 1089 664 1089 622.5 1100.5 c 128,-1,23
 581 1112 581 1112 522 1112 c 2,24,-1
 373 1112 l 1,25,-1
 373 766 l 1,26,-1
 522 766 l 2,27,28
 582 766 582 766 623.5 780.5 c 128,-1,29
 665 795 665 795 691.5 820.5 c 128,-1,30
 718 846 718 846 729.5 879 c 128,-1,31
 741 912 741 912 741 950 c 0,19,20
545 201 m 2,32,33
 604 201 604 201 648.5 216 c 128,-1,34
 693 231 693 231 723 257.5 c 128,-1,35
 753 284 753 284 768.5 320 c 128,-1,36
 784 356 784 356 784 397 c 0,37,38
 784 482 784 482 720.5 530 c 128,-1,39
 657 578 657 578 526 578 c 2,40,-1
 373 578 l 1,41,-1
 373 201 l 1,42,-1
 545 201 l 2,32,33
EndSplineSet
Substitution2: "'sups' Superscript lookup 34 subtable" B.superior
EndChar
StartChar: C
Encoding: 67 67 6
Width: 1126
GlyphClass: 2
Flags: W
AnchorPoint: "Anchor-11" 0 1700 basechar 0
AnchorPoint: "Anchor-10" 1126 1700 basechar 0
AnchorPoint: "Anchor-9" 730 0 basechar 0
AnchorPoint: "Anchor-8" 640 0 basechar 0
AnchorPoint: "Anchor-7" 900 1250 basechar 0
AnchorPoint: "Anchor-6" 1126 -350 basechar 0
AnchorPoint: "Anchor-5" 1126 1700 basechar 0
AnchorPoint: "Anchor-4" 900 1270 basechar 0
AnchorPoint: "Anchor-2" 623 -180 basechar 0
AnchorPoint: "Anchor-1" 1045 1390 basechar 0
AnchorPoint: "Anchor-0" 623 1430 basechar 0
LayerCount: 2
Back
Fore
SplineSet
1004 51 m 1,0,1
 917 16 917 16 835.5 -1 c 128,-1,2
 754 -18 754 -18 666 -18 c 0,3,4
 525 -18 525 -18 416.5 23.5 c 128,-1,5
 308 65 308 65 233.5 147 c 128,-1,6
 159 229 159 229 120.5 350.5 c 128,-1,7
 82 472 82 472 82 633 c 0,8,9
 82 798 82 798 124 926.5 c 128,-1,10
 166 1055 166 1055 244 1143.5 c 128,-1,11
 322 1232 322 1232 433.5 1278.5 c 128,-1,12
 545 1325 545 1325 684 1325 c 0,13,14
 729 1325 729 1325 768.5 1323 c 128,-1,15
 808 1321 808 1321 846 1315.5 c 128,-1,16
 884 1310 884 1310 923 1301 c 128,-1,17
 962 1292 962 1292 1004 1278 c 1,18,-1
 1004 1034 l 1,19,20
 919 1074 919 1074 842 1091 c 128,-1,21
 765 1108 765 1108 702 1108 c 0,22,23
 609 1108 609 1108 543 1074.5 c 128,-1,24
 477 1041 477 1041 434.5 980.5 c 128,-1,25
 392 920 392 920 372 836.5 c 128,-1,26
 352 753 352 753 352 653 c 0,27,28
 352 547 352 547 372.5 463.5 c 128,-1,29
 393 380 393 380 436 322 c 128,-1,30
 479 264 479 264 546 233.5 c 128,-1,31
 613 203 613 203 705 203 c 0,32,33
 738 203 738 203 776.5 209.5 c 128,-1,34
 815 216 815 216 854.5 226.5 c 128,-1,35
 894 237 894 237 932.5 251.5 c 128,-1,36
 971 266 971 266 1004 281 c 1,37,-1
 1004 51 l 1,0,1
EndSplineSet
Substitution2: "'sups' Superscript lookup 34 subtable" C.superior
EndChar
StartChar: D
Encoding: 68 68 7
Width: 1126
GlyphClass: 2
Flags: W
AnchorPoint: "Anchor-11" 0 1700 basechar 0
AnchorPoint: "Anchor-10" 1126 1700 basechar 0
AnchorPoint: "Anchor-9" 570 25 basechar 0
AnchorPoint: "Anchor-7" 770 1230 basechar 0
AnchorPoint: "Anchor-6" 1126 -350 basechar 0
AnchorPoint: "Anchor-5" 1126 1700 basechar 0
AnchorPoint: "Anchor-4" 910 1170 basechar 0
AnchorPoint: "Anchor-2" 523 -180 basechar 0
AnchorPoint: "Anchor-1" 1003 1390 basechar 0
AnchorPoint: "Anchor-0" 523 1430 basechar 0
LayerCount: 2
Back
Fore
SplineSet
1073 670 m 0,0,1
 1073 518 1073 518 1035.5 394 c 128,-1,2
 998 270 998 270 918.5 182.5 c 128,-1,3
 839 95 839 95 715 47.5 c 128,-1,4
 591 0 591 0 418 0 c 2,5,-1
 86 0 l 1,6,-1
 86 1307 l 1,7,-1
 473 1307 l 2,8,9
 623 1307 623 1307 735.5 1269.5 c 128,-1,10
 848 1232 848 1232 923 1154 c 128,-1,11
 998 1076 998 1076 1035.5 956 c 128,-1,12
 1073 836 1073 836 1073 670 c 0,0,1
809 654 m 0,13,14
 809 760 809 760 792 843 c 128,-1,15
 775 926 775 926 734.5 983.5 c 128,-1,16
 694 1041 694 1041 626 1071 c 128,-1,17
 558 1101 558 1101 457 1101 c 2,18,-1
 332 1101 l 1,19,-1
 332 206 l 1,20,-1
 440 206 l 2,21,22
 621 206 621 206 715 314 c 128,-1,23
 809 422 809 422 809 654 c 0,13,14
EndSplineSet
Substitution2: "'sups' Superscript lookup 34 subtable" D.superior
EndChar
StartChar: E
Encoding: 69 69 8
Width: 1126
GlyphClass: 2
Flags: W
AnchorPoint: "Anchor-11" 0 1700 basechar 0
AnchorPoint: "Anchor-10" 1126 1700 basechar 0
AnchorPoint: "Anchor-9" 890 0 basechar 0
AnchorPoint: "Anchor-8" 563 0 basechar 0
AnchorPoint: "Anchor-7" 840 1300 basechar 0
AnchorPoint: "Anchor-6" 1126 -350 basechar 0
AnchorPoint: "Anchor-5" 1126 1700 basechar 0
AnchorPoint: "Anchor-4" 860 1300 basechar 0
AnchorPoint: "Anchor-2" 563 -180 basechar 0
AnchorPoint: "Anchor-1" 994 1390 basechar 0
AnchorPoint: "Anchor-0" 563 1430 basechar 0
LayerCount: 2
Back
Fore
SplineSet
184 0 m 1,0,-1
 184 1307 l 1,1,-1
 971 1307 l 1,2,-1
 971 1099 l 1,3,-1
 434 1099 l 1,4,-1
 434 774 l 1,5,-1
 946 774 l 1,6,-1
 946 571 l 1,7,-1
 434 571 l 1,8,-1
 434 208 l 1,9,-1
 971 208 l 1,10,-1
 971 0 l 1,11,-1
 184 0 l 1,0,-1
EndSplineSet
Substitution2: "'sups' Superscript lookup 34 subtable" E.superior
EndChar
StartChar: F
Encoding: 70 70 9
Width: 1126
GlyphClass: 2
Flags: W
AnchorPoint: "Anchor-11" 0 1700 basechar 0
AnchorPoint: "Anchor-10" 1126 1700 basechar 0
AnchorPoint: "Anchor-9" 350 0 basechar 0
AnchorPoint: "Anchor-7" 840 1300 basechar 0
AnchorPoint: "Anchor-6" 1126 -350 basechar 0
AnchorPoint: "Anchor-5" 1126 1700 basechar 0
AnchorPoint: "Anchor-4" 850 1300 basechar 0
AnchorPoint: "Anchor-2" 563 -180 basechar 0
AnchorPoint: "Anchor-1" 992 1390 basechar 0
AnchorPoint: "Anchor-0" 563 1430 basechar 0
LayerCount: 2
Back
Fore
SplineSet
434 1099 m 1,0,-1
 434 737 l 1,1,-1
 928 737 l 1,2,-1
 928 535 l 1,3,-1
 434 535 l 1,4,-1
 434 0 l 1,5,-1
 184 0 l 1,6,-1
 184 1307 l 1,7,-1
 956 1307 l 1,8,-1
 956 1099 l 1,9,-1
 434 1099 l 1,0,-1
EndSplineSet
Substitution2: "'sups' Superscript lookup 34 subtable" F.superior
EndChar
StartChar: G
Encoding: 71 71 10
Width: 1126
GlyphClass: 2
Flags: W
AnchorPoint: "Anchor-11" 0 1700 basechar 0
AnchorPoint: "Anchor-10" 1126 1700 basechar 0
AnchorPoint: "Anchor-9" 750 0 basechar 0
AnchorPoint: "Anchor-8" 640 0 basechar 0
AnchorPoint: "Anchor-7" 900 1250 basechar 0
AnchorPoint: "Anchor-6" 1126 -350 basechar 0
AnchorPoint: "Anchor-5" 1126 1700 basechar 0
AnchorPoint: "Anchor-4" 920 1270 basechar 0
AnchorPoint: "Anchor-2" 623 -180 basechar 0
AnchorPoint: "Anchor-1" 1062 1390 basechar 0
AnchorPoint: "Anchor-0" 623 1430 basechar 0
LayerCount: 2
Back
Fore
SplineSet
569 553 m 1,0,-1
 569 756 l 1,1,-1
 1034 756 l 1,2,-1
 1034 59 l 1,3,4
 944 17 944 17 846 -3 c 128,-1,5
 748 -23 748 -23 633 -23 c 0,6,7
 497 -23 497 -23 388.5 19 c 128,-1,8
 280 61 280 61 204 144 c 128,-1,9
 128 227 128 227 87.5 350 c 128,-1,10
 47 473 47 473 47 635 c 0,11,12
 47 798 47 798 89.5 927 c 128,-1,13
 132 1056 132 1056 213.5 1145.5 c 128,-1,14
 295 1235 295 1235 413.5 1282 c 128,-1,15
 532 1329 532 1329 684 1329 c 0,16,17
 774 1329 774 1329 859.5 1313.5 c 128,-1,18
 945 1298 945 1298 1030 1272 c 1,19,-1
 1030 1029 l 1,20,21
 956 1064 956 1064 866.5 1086.5 c 128,-1,22
 777 1109 777 1109 686 1109 c 0,23,24
 594 1109 594 1109 523.5 1077 c 128,-1,25
 453 1045 453 1045 405.5 986 c 128,-1,26
 358 927 358 927 333.5 841 c 128,-1,27
 309 755 309 755 309 647 c 0,28,29
 309 543 309 543 328 459.5 c 128,-1,30
 347 376 347 376 389.5 317.5 c 128,-1,31
 432 259 432 259 499 228 c 128,-1,32
 566 197 566 197 662 197 c 0,33,34
 685 197 685 197 702 198.5 c 128,-1,35
 719 200 719 200 734 203 c 128,-1,36
 749 206 749 206 762.5 210 c 128,-1,37
 776 214 776 214 791 219 c 1,38,-1
 791 553 l 1,39,-1
 569 553 l 1,0,-1
EndSplineSet
Substitution2: "'sups' Superscript lookup 34 subtable" G.superior
EndChar
StartChar: H
Encoding: 72 72 11
Width: 1126
GlyphClass: 2
Flags: W
AnchorPoint: "Anchor-11" 0 1700 basechar 0
AnchorPoint: "Anchor-10" 1126 1700 basechar 0
AnchorPoint: "Anchor-9" 950 0 basechar 0
AnchorPoint: "Anchor-7" 920 1300 basechar 0
AnchorPoint: "Anchor-6" 1126 -350 basechar 0
AnchorPoint: "Anchor-5" 1126 1700 basechar 0
AnchorPoint: "Anchor-4" 920 1300 basechar 0
AnchorPoint: "Anchor-2" 563 -180 basechar 0
AnchorPoint: "Anchor-1" 1066 1390 basechar 0
AnchorPoint: "Anchor-0" 563 1430 basechar 0
LayerCount: 2
Back
Fore
SplineSet
785 0 m 1,0,-1
 785 569 l 1,1,-1
 341 569 l 1,2,-1
 341 0 l 1,3,-1
 95 0 l 1,4,-1
 95 1307 l 1,5,-1
 341 1307 l 1,6,-1
 341 782 l 1,7,-1
 785 782 l 1,8,-1
 785 1307 l 1,9,-1
 1031 1307 l 1,10,-1
 1031 0 l 1,11,-1
 785 0 l 1,0,-1
EndSplineSet
Substitution2: "'sups' Superscript lookup 34 subtable" H.superior
EndChar
StartChar: I
Encoding: 73 73 12
Width: 1126
GlyphClass: 2
Flags: W
AnchorPoint: "Anchor-11" 0 1700 basechar 0
AnchorPoint: "Anchor-10" 1126 1700 basechar 0
AnchorPoint: "Anchor-9" 890 0 basechar 0
AnchorPoint: "Anchor-8" 563 0 basechar 0
AnchorPoint: "Anchor-7" 840 1300 basechar 0
AnchorPoint: "Anchor-6" 1126 -350 basechar 0
AnchorPoint: "Anchor-5" 1126 1700 basechar 0
AnchorPoint: "Anchor-4" 870 1300 basechar 0
AnchorPoint: "Anchor-2" 563 -180 basechar 0
AnchorPoint: "Anchor-1" 1004 1390 basechar 0
AnchorPoint: "Anchor-0" 563 1430 basechar 0
LayerCount: 2
Back
Fore
SplineSet
925 0 m 1,0,-1
 199 0 l 1,1,-1
 199 203 l 1,2,-1
 438 203 l 1,3,-1
 438 1106 l 1,4,-1
 199 1106 l 1,5,-1
 199 1307 l 1,6,-1
 925 1307 l 1,7,-1
 925 1106 l 1,8,-1
 688 1106 l 1,9,-1
 688 203 l 1,10,-1
 925 203 l 1,11,-1
 925 0 l 1,0,-1
EndSplineSet
Substitution2: "'sups' Superscript lookup 34 subtable" I.superior
EndChar
StartChar: J
Encoding: 74 74 13
Width: 1126
GlyphClass: 2
Flags: W
AnchorPoint: "Anchor-11" 0 1700 basechar 0
AnchorPoint: "Anchor-10" 1126 1700 basechar 0
AnchorPoint: "Anchor-9" 550 0 basechar 0
AnchorPoint: "Anchor-7" 790 1300 basechar 0
AnchorPoint: "Anchor-6" 1126 -350 basechar 0
AnchorPoint: "Anchor-5" 1126 1700 basechar 0
AnchorPoint: "Anchor-4" 790 1300 basechar 0
AnchorPoint: "Anchor-2" 563 -180 basechar 0
AnchorPoint: "Anchor-1" 927 1390 basechar 0
AnchorPoint: "Anchor-0" 563 1430 basechar 0
LayerCount: 2
Back
Fore
SplineSet
397 1307 m 1,0,-1
 905 1307 l 1,1,-1
 905 391 l 2,2,3
 905 299 905 299 876 223 c 128,-1,4
 847 147 847 147 791 93 c 128,-1,5
 735 39 735 39 652 9.5 c 128,-1,6
 569 -20 569 -20 459 -20 c 0,7,8
 378 -20 378 -20 303 -1 c 128,-1,9
 228 18 228 18 172 47 c 1,10,-1
 172 285 l 1,11,12
 197 264 197 264 230.5 246 c 128,-1,13
 264 228 264 228 302 214.5 c 128,-1,14
 340 201 340 201 380 193.5 c 128,-1,15
 420 186 420 186 459 186 c 0,16,17
 492 186 492 186 527.5 198 c 128,-1,18
 563 210 563 210 591 238 c 128,-1,19
 619 266 619 266 637 311.5 c 128,-1,20
 655 357 655 357 655 424 c 2,21,-1
 655 1104 l 1,22,-1
 397 1104 l 1,23,-1
 397 1307 l 1,0,-1
EndSplineSet
Substitution2: "'sups' Superscript lookup 34 subtable" J.superior
EndChar
StartChar: K
Encoding: 75 75 14
Width: 1126
GlyphClass: 2
Flags: W
AnchorPoint: "Anchor-11" 0 1700 basechar 0
AnchorPoint: "Anchor-10" 1126 1700 basechar 0
AnchorPoint: "Anchor-9" 1000 0 basechar 0
AnchorPoint: "Anchor-8" 563 -50 basechar 0
AnchorPoint: "Anchor-7" 840 1300 basechar 0
AnchorPoint: "Anchor-6" 1126 -350 basechar 0
AnchorPoint: "Anchor-5" 1126 1700 basechar 0
AnchorPoint: "Anchor-4" 840 1300 basechar 0
AnchorPoint: "Anchor-2" 563 -180 basechar 0
AnchorPoint: "Anchor-1" 1077 1390 basechar 0
AnchorPoint: "Anchor-0" 563 1430 basechar 0
LayerCount: 2
Back
Fore
SplineSet
772 0 m 1,0,-1
 379 632 l 1,1,-1
 379 0 l 1,2,-1
 129 0 l 1,3,-1
 129 1307 l 1,4,-1
 379 1307 l 1,5,-1
 379 712 l 1,6,-1
 770 1307 l 1,7,-1
 1067 1307 l 1,8,-1
 623 684 l 1,9,-1
 1090 0 l 1,10,-1
 772 0 l 1,0,-1
EndSplineSet
Substitution2: "'sups' Superscript lookup 34 subtable" K.superior
EndChar
StartChar: L
Encoding: 76 76 15
Width: 1126
GlyphClass: 2
Flags: W
AnchorPoint: "Anchor-11" 0 1700 basechar 0
AnchorPoint: "Anchor-10" 1126 1700 basechar 0
AnchorPoint: "Anchor-9" 920 0 basechar 0
AnchorPoint: "Anchor-8" 640 0 basechar 0
AnchorPoint: "Anchor-7" 320 1300 basechar 0
AnchorPoint: "Anchor-6" 1126 -350 basechar 0
AnchorPoint: "Anchor-5" 1126 1700 basechar 0
AnchorPoint: "Anchor-4" 340 1300 basechar 0
AnchorPoint: "Anchor-2" 563 -180 basechar 0
AnchorPoint: "Anchor-1" 985 1390 basechar 0
AnchorPoint: "Anchor-0" 563 1430 basechar 0
LayerCount: 2
Back
Fore
SplineSet
197 0 m 1,0,-1
 197 1307 l 1,1,-1
 447 1307 l 1,2,-1
 447 211 l 1,3,-1
 999 211 l 1,4,-1
 999 0 l 1,5,-1
 197 0 l 1,0,-1
EndSplineSet
Substitution2: "'sups' Superscript lookup 34 subtable" L.superior
EndChar
StartChar: M
Encoding: 77 77 16
Width: 1126
GlyphClass: 2
Flags: W
AnchorPoint: "Anchor-11" 0 1700 basechar 0
AnchorPoint: "Anchor-10" 1126 1700 basechar 0
AnchorPoint: "Anchor-9" 1010 0 basechar 0
AnchorPoint: "Anchor-7" 920 1300 basechar 0
AnchorPoint: "Anchor-6" 1126 -350 basechar 0
AnchorPoint: "Anchor-5" 1126 1700 basechar 0
AnchorPoint: "Anchor-4" 910 1300 basechar 0
AnchorPoint: "Anchor-2" 563 -180 basechar 0
AnchorPoint: "Anchor-1" 1077 1390 basechar 0
AnchorPoint: "Anchor-0" 563 1430 basechar 0
LayerCount: 2
Back
Fore
SplineSet
864 0 m 1,0,-1
 840 739 l 1,1,-1
 831 1034 l 1,2,-1
 768 834 l 1,3,-1
 623 389 l 1,4,-1
 469 389 l 1,5,-1
 338 834 l 1,6,-1
 283 1034 l 1,7,-1
 276 745 l 1,8,-1
 254 0 l 1,9,-1
 45 0 l 1,10,-1
 109 1307 l 1,11,-1
 387 1307 l 1,12,-1
 502 936 l 1,13,-1
 557 727 l 1,14,-1
 612 924 l 1,15,-1
 733 1307 l 1,16,-1
 1016 1307 l 1,17,-1
 1081 0 l 1,18,-1
 864 0 l 1,0,-1
EndSplineSet
Substitution2: "'sups' Superscript lookup 34 subtable" M.superior
EndChar
StartChar: N
Encoding: 78 78 17
Width: 1126
GlyphClass: 2
Flags: W
AnchorPoint: "Anchor-11" 0 1700 basechar 0
AnchorPoint: "Anchor-10" 1126 1700 basechar 0
AnchorPoint: "Anchor-9" 960 0 basechar 0
AnchorPoint: "Anchor-8" 563 -50 basechar 0
AnchorPoint: "Anchor-7" 930 1300 basechar 0
AnchorPoint: "Anchor-6" 1126 -350 basechar 0
AnchorPoint: "Anchor-5" 1126 1700 basechar 0
AnchorPoint: "Anchor-4" 920 1300 basechar 0
AnchorPoint: "Anchor-2" 563 -180 basechar 0
AnchorPoint: "Anchor-1" 1058 1390 basechar 0
AnchorPoint: "Anchor-0" 563 1430 basechar 0
LayerCount: 2
Back
Fore
SplineSet
740 0 m 1,0,-1
 390 780 l 1,1,-1
 318 948 l 1,2,-1
 318 406 l 1,3,-1
 318 0 l 1,4,-1
 94 0 l 1,5,-1
 94 1307 l 1,6,-1
 396 1307 l 1,7,-1
 753 522 l 1,8,-1
 816 369 l 1,9,-1
 816 946 l 1,10,-1
 816 1307 l 1,11,-1
 1040 1307 l 1,12,-1
 1040 0 l 1,13,-1
 740 0 l 1,0,-1
EndSplineSet
Substitution2: "'sups' Superscript lookup 34 subtable" N.superior
EndChar
StartChar: O
Encoding: 79 79 18
Width: 1126
GlyphClass: 2
Flags: W
AnchorPoint: "Anchor-11" 0 1700 basechar 0
AnchorPoint: "Anchor-10" 1126 1700 basechar 0
AnchorPoint: "Anchor-9" 650 0 basechar 0
AnchorPoint: "Anchor-8" 563 0 basechar 0
AnchorPoint: "Anchor-7" 880 1170 basechar 0
AnchorPoint: "Anchor-6" 1126 -350 basechar 0
AnchorPoint: "Anchor-5" 1126 1700 basechar 0
AnchorPoint: "Anchor-4" 920 1170 basechar 0
AnchorPoint: "Anchor-2" 563 -180 basechar 0
AnchorPoint: "Anchor-1" 1026 1390 basechar 0
AnchorPoint: "Anchor-0" 563 1430 basechar 0
LayerCount: 2
Back
Fore
SplineSet
1089 659 m 0,0,1
 1089 481 1089 481 1047.5 352 c 128,-1,2
 1006 223 1006 223 933.5 140 c 128,-1,3
 861 57 861 57 763.5 17 c 128,-1,4
 666 -23 666 -23 555 -23 c 0,5,6
 297 -23 297 -23 167 148.5 c 128,-1,7
 37 320 37 320 37 647 c 0,8,9
 37 825 37 825 78.5 954 c 128,-1,10
 120 1083 120 1083 192.5 1166 c 128,-1,11
 265 1249 265 1249 362.5 1289 c 128,-1,12
 460 1329 460 1329 571 1329 c 0,13,14
 829 1329 829 1329 959 1158 c 128,-1,15
 1089 987 1089 987 1089 659 c 0,0,1
829 647 m 0,16,17
 829 879 829 879 767 993 c 128,-1,18
 705 1107 705 1107 563 1107 c 0,19,20
 492 1107 492 1107 442 1077.5 c 128,-1,21
 392 1048 392 1048 359.5 991 c 128,-1,22
 327 934 327 934 312 850.5 c 128,-1,23
 297 767 297 767 297 659 c 0,24,25
 297 427 297 427 359.5 313 c 128,-1,26
 422 199 422 199 563 199 c 0,27,28
 634 199 634 199 684.5 228.5 c 128,-1,29
 735 258 735 258 767 315 c 128,-1,30
 799 372 799 372 814 455.5 c 128,-1,31
 829 539 829 539 829 647 c 0,16,17
EndSplineSet
Substitution2: "'sups' Superscript lookup 34 subtable" O.superior
EndChar
StartChar: P
Encoding: 80 80 19
Width: 1126
GlyphClass: 2
Flags: W
AnchorPoint: "Anchor-11" 0 1700 basechar 0
AnchorPoint: "Anchor-10" 1126 1700 basechar 0
AnchorPoint: "Anchor-9" 300 0 basechar 0
AnchorPoint: "Anchor-7" 770 1250 basechar 0
AnchorPoint: "Anchor-6" 1126 -350 basechar 0
AnchorPoint: "Anchor-5" 1126 1700 basechar 0
AnchorPoint: "Anchor-4" 900 1200 basechar 0
AnchorPoint: "Anchor-2" 563 -180 basechar 0
AnchorPoint: "Anchor-1" 1016 1390 basechar 0
AnchorPoint: "Anchor-0" 563 1430 basechar 0
LayerCount: 2
Back
Fore
SplineSet
1042 891 m 0,0,1
 1042 789 1042 789 1008 702.5 c 128,-1,2
 974 616 974 616 907 553 c 128,-1,3
 840 490 840 490 740 455 c 128,-1,4
 640 420 640 420 508 420 c 2,5,-1
 383 420 l 1,6,-1
 383 0 l 1,7,-1
 135 0 l 1,8,-1
 135 1307 l 1,9,-1
 518 1307 l 2,10,11
 645 1307 645 1307 742.5 1279.5 c 128,-1,12
 840 1252 840 1252 906.5 1199 c 128,-1,13
 973 1146 973 1146 1007.5 1068.5 c 128,-1,14
 1042 991 1042 991 1042 891 c 0,0,1
784 874 m 0,15,16
 784 926 784 926 767.5 968.5 c 128,-1,17
 751 1011 751 1011 717.5 1041 c 128,-1,18
 684 1071 684 1071 633 1087 c 128,-1,19
 582 1103 582 1103 512 1103 c 2,20,-1
 383 1103 l 1,21,-1
 383 624 l 1,22,-1
 520 624 l 2,23,24
 584 624 584 624 633 641.5 c 128,-1,25
 682 659 682 659 715.5 692 c 128,-1,26
 749 725 749 725 766.5 771 c 128,-1,27
 784 817 784 817 784 874 c 0,15,16
EndSplineSet
Substitution2: "'sups' Superscript lookup 34 subtable" P.superior
EndChar
StartChar: Q
Encoding: 81 81 20
Width: 1126
GlyphClass: 2
Flags: W
AnchorPoint: "Anchor-11" 0 1700 basechar 0
AnchorPoint: "Anchor-10" 1126 1700 basechar 0
AnchorPoint: "Anchor-9" 700 -300 basechar 0
AnchorPoint: "Anchor-7" 880 1170 basechar 0
AnchorPoint: "Anchor-6" 1126 -350 basechar 0
AnchorPoint: "Anchor-5" 1126 1700 basechar 0
AnchorPoint: "Anchor-4" 920 1170 basechar 0
AnchorPoint: "Anchor-2" 563 -500 basechar 0
AnchorPoint: "Anchor-1" 1026 1390 basechar 0
AnchorPoint: "Anchor-0" 563 1430 basechar 0
LayerCount: 2
Back
Fore
SplineSet
436 -10 m 1,0,1
 235 27 235 27 136 191 c 128,-1,2
 37 355 37 355 37 641 c 0,3,4
 37 818 37 818 78.5 947.5 c 128,-1,5
 120 1077 120 1077 192.5 1161.5 c 128,-1,6
 265 1246 265 1246 362.5 1287.5 c 128,-1,7
 460 1329 460 1329 571 1329 c 0,8,9
 829 1329 829 1329 959 1159 c 128,-1,10
 1089 989 1089 989 1089 668 c 0,11,12
 1089 515 1089 515 1058 397 c 128,-1,13
 1027 279 1027 279 970.5 195 c 128,-1,14
 914 111 914 111 837 60 c 128,-1,15
 760 9 760 9 670 -10 c 1,16,17
 678 -58 678 -58 696.5 -89 c 128,-1,18
 715 -120 715 -120 740.5 -138 c 128,-1,19
 766 -156 766 -156 796 -163 c 128,-1,20
 826 -170 826 -170 858 -170 c 0,21,22
 901 -170 901 -170 943.5 -152 c 128,-1,23
 986 -134 986 -134 1020 -102 c 1,24,-1
 1133 -270 l 1,25,26
 1070 -323 1070 -323 995.5 -351 c 128,-1,27
 921 -379 921 -379 846 -379 c 0,28,29
 752 -379 752 -379 677.5 -357 c 128,-1,30
 603 -335 603 -335 550.5 -289.5 c 128,-1,31
 498 -244 498 -244 469 -174.5 c 128,-1,32
 440 -105 440 -105 436 -10 c 1,0,1
829 647 m 0,33,34
 829 879 829 879 768 993 c 128,-1,35
 707 1107 707 1107 567 1107 c 0,36,37
 496 1107 496 1107 445 1077.5 c 128,-1,38
 394 1048 394 1048 361 990.5 c 128,-1,39
 328 933 328 933 312.5 849.5 c 128,-1,40
 297 766 297 766 297 659 c 0,41,42
 297 429 297 429 359.5 314 c 128,-1,43
 422 199 422 199 563 199 c 0,44,45
 634 199 634 199 684.5 228.5 c 128,-1,46
 735 258 735 258 767 315 c 128,-1,47
 799 372 799 372 814 455.5 c 128,-1,48
 829 539 829 539 829 647 c 0,33,34
EndSplineSet
Substitution2: "'sups' Superscript lookup 34 subtable" Q.superior
EndChar
StartChar: R
Encoding: 82 82 21
Width: 1126
GlyphClass: 2
Flags: W
AnchorPoint: "Anchor-11" 0 1700 basechar 0
AnchorPoint: "Anchor-10" 1126 1700 basechar 0
AnchorPoint: "Anchor-9" 990 0 basechar 0
AnchorPoint: "Anchor-8" 563 -50 basechar 0
AnchorPoint: "Anchor-7" 770 1250 basechar 0
AnchorPoint: "Anchor-6" 1126 -350 basechar 0
AnchorPoint: "Anchor-5" 1126 1700 basechar 0
AnchorPoint: "Anchor-4" 860 1210 basechar 0
AnchorPoint: "Anchor-2" 563 -180 basechar 0
AnchorPoint: "Anchor-1" 951 1390 basechar 0
AnchorPoint: "Anchor-0" 523 1430 basechar 0
LayerCount: 2
Back
Fore
SplineSet
788 0 m 1,0,-1
 604 420 l 2,1,2
 578 480 578 480 531.5 510.5 c 128,-1,3
 485 541 485 541 422 541 c 2,4,-1
 375 541 l 1,5,-1
 375 0 l 1,6,-1
 129 0 l 1,7,-1
 129 1307 l 1,8,-1
 510 1307 l 2,9,10
 618 1307 618 1307 706 1288.5 c 128,-1,11
 794 1270 794 1270 856 1227 c 128,-1,12
 918 1184 918 1184 951.5 1115 c 128,-1,13
 985 1046 985 1046 985 946 c 0,14,15
 985 874 985 874 964 818 c 128,-1,16
 943 762 943 762 905 721.5 c 128,-1,17
 867 681 867 681 814.5 656 c 128,-1,18
 762 631 762 631 700 621 c 1,19,20
 748 611 748 611 788 566.5 c 128,-1,21
 828 522 828 522 868 438 c 2,22,-1
 1077 0 l 1,23,-1
 788 0 l 1,0,-1
727 922 m 0,24,25
 727 1018 727 1018 666 1060 c 128,-1,26
 605 1102 605 1102 483 1102 c 2,27,-1
 375 1102 l 1,28,-1
 375 733 l 1,29,-1
 475 733 l 2,30,31
 532 733 532 733 578.5 745 c 128,-1,32
 625 757 625 757 658 781 c 128,-1,33
 691 805 691 805 709 840.5 c 128,-1,34
 727 876 727 876 727 922 c 0,24,25
EndSplineSet
Substitution2: "'sups' Superscript lookup 34 subtable" R.superior
EndChar
StartChar: S
Encoding: 83 83 22
Width: 1126
GlyphClass: 2
Flags: W
AnchorPoint: "Anchor-11" 0 1700 basechar 0
AnchorPoint: "Anchor-10" 1126 1700 basechar 0
AnchorPoint: "Anchor-9" 630 0 basechar 0
AnchorPoint: "Anchor-8" 563 0 basechar 0
AnchorPoint: "Anchor-7" 820 1275 basechar 0
AnchorPoint: "Anchor-6" 1126 -350 basechar 0
AnchorPoint: "Anchor-5" 1126 1700 basechar 0
AnchorPoint: "Anchor-4" 820 1280 basechar 0
AnchorPoint: "Anchor-2" 563 -180 basechar 0
AnchorPoint: "Anchor-1" 967 1390 basechar 0
AnchorPoint: "Anchor-0" 563 1430 basechar 0
LayerCount: 2
Back
Fore
SplineSet
1020 395 m 0,0,1
 1020 288 1020 288 980.5 209 c 128,-1,2
 941 130 941 130 870 78.5 c 128,-1,3
 799 27 799 27 701 2 c 128,-1,4
 603 -23 603 -23 487 -23 c 0,5,6
 384 -23 384 -23 288 -11 c 128,-1,7
 192 1 192 1 98 29 c 1,8,-1
 98 272 l 1,9,10
 144 256 144 256 194 242 c 128,-1,11
 244 228 244 228 294.5 217.5 c 128,-1,12
 345 207 345 207 395 201 c 128,-1,13
 445 195 445 195 492 195 c 0,14,15
 562 195 562 195 611 207 c 128,-1,16
 660 219 660 219 691 240 c 128,-1,17
 722 261 722 261 736 290 c 128,-1,18
 750 319 750 319 750 354 c 0,19,20
 750 402 750 402 722.5 434.5 c 128,-1,21
 695 467 695 467 650 492 c 128,-1,22
 605 517 605 517 547.5 537 c 128,-1,23
 490 557 490 557 430.5 580 c 128,-1,24
 371 603 371 603 313.5 632 c 128,-1,25
 256 661 256 661 211 704 c 128,-1,26
 166 747 166 747 138.5 806.5 c 128,-1,27
 111 866 111 866 111 950 c 0,28,29
 111 1027 111 1027 139 1096 c 128,-1,30
 167 1165 167 1165 227 1216.5 c 128,-1,31
 287 1268 287 1268 381 1298.5 c 128,-1,32
 475 1329 475 1329 608 1329 c 0,33,34
 647 1329 647 1329 689.5 1325.5 c 128,-1,35
 732 1322 732 1322 773.5 1316.5 c 128,-1,36
 815 1311 815 1311 853.5 1303.5 c 128,-1,37
 892 1296 892 1296 924 1288 c 1,38,-1
 924 1063 l 1,39,40
 892 1075 892 1075 854 1085 c 128,-1,41
 816 1095 816 1095 775.5 1102.5 c 128,-1,42
 735 1110 735 1110 694 1114 c 128,-1,43
 653 1118 653 1118 616 1118 c 0,44,45
 551 1118 551 1118 506 1107.5 c 128,-1,46
 461 1097 461 1097 432 1078.5 c 128,-1,47
 403 1060 403 1060 390 1033 c 128,-1,48
 377 1006 377 1006 377 973 c 0,49,50
 377 932 377 932 404.5 902.5 c 128,-1,51
 432 873 432 873 477.5 849.5 c 128,-1,52
 523 826 523 826 580.5 805.5 c 128,-1,53
 638 785 638 785 698.5 761.5 c 128,-1,54
 759 738 759 738 816.5 708 c 128,-1,55
 874 678 874 678 919.5 635 c 128,-1,56
 965 592 965 592 992.5 533.5 c 128,-1,57
 1020 475 1020 475 1020 395 c 0,0,1
EndSplineSet
Substitution2: "'sups' Superscript lookup 34 subtable" S.superior
EndChar
StartChar: T
Encoding: 84 84 23
Width: 1126
GlyphClass: 2
Flags: W
AnchorPoint: "Anchor-11" 0 1700 basechar 0
AnchorPoint: "Anchor-10" 1126 1700 basechar 0
AnchorPoint: "Anchor-9" 610 0 basechar 0
AnchorPoint: "Anchor-8" 563 0 basechar 0
AnchorPoint: "Anchor-7" 900 1300 basechar 0
AnchorPoint: "Anchor-6" 1126 -350 basechar 0
AnchorPoint: "Anchor-5" 1126 1700 basechar 0
AnchorPoint: "Anchor-4" 945 1300 basechar 0
AnchorPoint: "Anchor-2" 563 -180 basechar 0
AnchorPoint: "Anchor-1" 1090 1390 basechar 0
AnchorPoint: "Anchor-0" 563 1430 basechar 0
LayerCount: 2
Back
Fore
SplineSet
689 1102 m 1,0,-1
 689 0 l 1,1,-1
 437 0 l 1,2,-1
 437 1102 l 1,3,-1
 79 1102 l 1,4,-1
 79 1307 l 1,5,-1
 1047 1307 l 1,6,-1
 1047 1102 l 1,7,-1
 689 1102 l 1,0,-1
EndSplineSet
Substitution2: "'sups' Superscript lookup 34 subtable" T.superior
EndChar
StartChar: U
Encoding: 85 85 24
Width: 1126
GlyphClass: 2
Flags: W
AnchorPoint: "Anchor-11" 0 1700 basechar 0
AnchorPoint: "Anchor-10" 1126 1700 basechar 0
AnchorPoint: "Anchor-9" 670 0 basechar 0
AnchorPoint: "Anchor-8" 563 0 basechar 0
AnchorPoint: "Anchor-7" 930 1300 basechar 0
AnchorPoint: "Anchor-6" 1126 -350 basechar 0
AnchorPoint: "Anchor-5" 1126 1700 basechar 0
AnchorPoint: "Anchor-4" 930 1300 basechar 0
AnchorPoint: "Anchor-2" 563 -180 basechar 0
AnchorPoint: "Anchor-1" 1068 1390 basechar 0
AnchorPoint: "Anchor-0" 563 1430 basechar 0
LayerCount: 2
Back
Fore
SplineSet
1039 481 m 2,0,1
 1039 356 1039 356 1005.5 261.5 c 128,-1,2
 972 167 972 167 909.5 104 c 128,-1,3
 847 41 847 41 757 9 c 128,-1,4
 667 -23 667 -23 555 -23 c 0,5,6
 429 -23 429 -23 339 9 c 128,-1,7
 249 41 249 41 193 101 c 128,-1,8
 137 161 137 161 112 247 c 128,-1,9
 87 333 87 333 87 440 c 2,10,-1
 87 1307 l 1,11,-1
 333 1307 l 1,12,-1
 333 455 l 2,13,14
 333 389 333 389 344.5 338 c 128,-1,15
 356 287 356 287 384.5 251.5 c 128,-1,16
 413 216 413 216 456 198 c 128,-1,17
 499 180 499 180 564 180 c 0,18,19
 625 180 625 180 667 195.5 c 128,-1,20
 709 211 709 211 737 245.5 c 128,-1,21
 765 280 765 280 779 334 c 128,-1,22
 793 388 793 388 793 465 c 2,23,-1
 793 1307 l 1,24,-1
 1039 1307 l 1,25,-1
 1039 481 l 2,0,1
EndSplineSet
Substitution2: "'sups' Superscript lookup 34 subtable" U.superior
EndChar
StartChar: V
Encoding: 86 86 25
Width: 1126
GlyphClass: 2
Flags: W
AnchorPoint: "Anchor-11" 0 1700 basechar 0
AnchorPoint: "Anchor-10" 1126 1700 basechar 0
AnchorPoint: "Anchor-9" 650 0 basechar 0
AnchorPoint: "Anchor-7" 970 1300 basechar 0
AnchorPoint: "Anchor-6" 1126 -350 basechar 0
AnchorPoint: "Anchor-5" 1126 1700 basechar 0
AnchorPoint: "Anchor-4" 960 1300 basechar 0
AnchorPoint: "Anchor-2" 563 -180 basechar 0
AnchorPoint: "Anchor-1" 1172 1390 basechar 0
AnchorPoint: "Anchor-0" 563 1430 basechar 0
LayerCount: 2
Back
Fore
SplineSet
725 0 m 1,0,-1
 399 0 l 1,1,-1
 0 1307 l 1,2,-1
 279 1307 l 1,3,-1
 500 520 l 1,4,-1
 571 262 l 1,5,-1
 645 535 l 1,6,-1
 864 1307 l 1,7,-1
 1126 1307 l 1,8,-1
 725 0 l 1,0,-1
EndSplineSet
Substitution2: "'sups' Superscript lookup 34 subtable" V.superior
EndChar
StartChar: W
Encoding: 87 87 26
Width: 1126
GlyphClass: 2
Flags: W
AnchorPoint: "Anchor-11" 0 1700 basechar 0
AnchorPoint: "Anchor-10" 1126 1700 basechar 0
AnchorPoint: "Anchor-9" 940 0 basechar 0
AnchorPoint: "Anchor-7" 990 1300 basechar 0
AnchorPoint: "Anchor-6" 1126 -350 basechar 0
AnchorPoint: "Anchor-5" 1126 1700 basechar 0
AnchorPoint: "Anchor-4" 970 1300 basechar 0
AnchorPoint: "Anchor-2" 563 -180 basechar 0
AnchorPoint: "Anchor-1" 1131 1390 basechar 0
AnchorPoint: "Anchor-0" 563 1430 basechar 0
LayerCount: 2
Back
Fore
SplineSet
1020 0 m 1,0,-1
 731 0 l 1,1,-1
 602 403 l 1,2,-1
 555 567 l 1,3,-1
 510 399 l 1,4,-1
 383 0 l 1,5,-1
 106 0 l 1,6,-1
 33 1307 l 1,7,-1
 250 1307 l 1,8,-1
 281 469 l 1,9,-1
 289 240 l 1,10,-1
 348 444 l 1,11,-1
 492 909 l 1,12,-1
 647 909 l 1,13,-1
 799 416 l 1,14,-1
 848 242 l 1,15,-1
 852 446 l 1,16,-1
 885 1307 l 1,17,-1
 1094 1307 l 1,18,-1
 1020 0 l 1,0,-1
EndSplineSet
Substitution2: "'sups' Superscript lookup 34 subtable" W.superior
EndChar
StartChar: X
Encoding: 88 88 27
Width: 1126
GlyphClass: 2
Flags: W
AnchorPoint: "Anchor-11" 0 1700 basechar 0
AnchorPoint: "Anchor-10" 1126 1700 basechar 0
AnchorPoint: "Anchor-9" 1030 0 basechar 0
AnchorPoint: "Anchor-7" 880 1300 basechar 0
AnchorPoint: "Anchor-6" 1126 -350 basechar 0
AnchorPoint: "Anchor-5" 1126 1700 basechar 0
AnchorPoint: "Anchor-4" 880 1300 basechar 0
AnchorPoint: "Anchor-2" 563 -180 basechar 0
AnchorPoint: "Anchor-1" 1122 1390 basechar 0
AnchorPoint: "Anchor-0" 563 1430 basechar 0
LayerCount: 2
Back
Fore
SplineSet
805 0 m 1,0,-1
 553 481 l 1,1,-1
 305 0 l 1,2,-1
 8 0 l 1,3,-1
 385 670 l 1,4,-1
 33 1307 l 1,5,-1
 322 1307 l 1,6,-1
 559 852 l 1,7,-1
 788 1307 l 1,8,-1
 1077 1307 l 1,9,-1
 727 670 l 1,10,-1
 1118 0 l 1,11,-1
 805 0 l 1,0,-1
EndSplineSet
Substitution2: "'sups' Superscript lookup 34 subtable" X.superior
EndChar
StartChar: Y
Encoding: 89 89 28
Width: 1126
GlyphClass: 2
Flags: W
AnchorPoint: "Anchor-11" 0 1700 basechar 0
AnchorPoint: "Anchor-10" 1126 1700 basechar 0
AnchorPoint: "Anchor-9" 600 0 basechar 0
AnchorPoint: "Anchor-7" 940 1300 basechar 0
AnchorPoint: "Anchor-6" 1126 -350 basechar 0
AnchorPoint: "Anchor-5" 1126 1700 basechar 0
AnchorPoint: "Anchor-4" 920 1300 basechar 0
AnchorPoint: "Anchor-2" 563 -180 basechar 0
AnchorPoint: "Anchor-1" 1176 1390 basechar 0
AnchorPoint: "Anchor-0" 563 1430 basechar 0
LayerCount: 2
Back
Fore
SplineSet
685 463 m 1,0,-1
 685 0 l 1,1,-1
 435 0 l 1,2,-1
 435 461 l 1,3,-1
 10 1307 l 1,4,-1
 283 1307 l 1,5,-1
 475 903 l 1,6,-1
 563 705 l 1,7,-1
 651 909 l 1,8,-1
 852 1307 l 1,9,-1
 1114 1307 l 1,10,-1
 685 463 l 1,0,-1
EndSplineSet
Substitution2: "'sups' Superscript lookup 34 subtable" Y.superior
EndChar
StartChar: Z
Encoding: 90 90 29
Width: 1126
GlyphClass: 2
Flags: W
AnchorPoint: "Anchor-11" 0 1700 basechar 0
AnchorPoint: "Anchor-10" 1126 1700 basechar 0
AnchorPoint: "Anchor-9" 950 0 basechar 0
AnchorPoint: "Anchor-7" 880 1300 basechar 0
AnchorPoint: "Anchor-6" 1126 -350 basechar 0
AnchorPoint: "Anchor-5" 1126 1700 basechar 0
AnchorPoint: "Anchor-4" 910 1300 basechar 0
AnchorPoint: "Anchor-2" 563 -180 basechar 0
AnchorPoint: "Anchor-1" 1064 1390 basechar 0
AnchorPoint: "Anchor-0" 563 1430 basechar 0
LayerCount: 2
Back
Fore
SplineSet
104 0 m 1,0,-1
 104 186 l 1,1,-1
 702 1084 l 1,2,-1
 123 1084 l 1,3,-1
 123 1307 l 1,4,-1
 1014 1307 l 1,5,-1
 1014 1107 l 1,6,-1
 412 223 l 1,7,-1
 1022 223 l 1,8,-1
 1022 0 l 1,9,-1
 104 0 l 1,0,-1
EndSplineSet
Substitution2: "'sups' Superscript lookup 34 subtable" Z.superior
EndChar
StartChar: bracketleft
Encoding: 91 91 387
Width: 1126
Flags: W
LayerCount: 2
Back
Fore
SplineSet
305 -397 m 1,0,-1
 305 1458 l 1,1,-1
 831 1458 l 1,2,-1
 831 1268 l 1,3,-1
 530 1268 l 1,4,-1
 530 -207 l 1,5,-1
 831 -207 l 1,6,-1
 831 -397 l 1,7,-1
 305 -397 l 1,0,-1
EndSplineSet
Substitution2: "'case' Case-Sensitive Forms lookup 0 subtable" bracketleft.case
EndChar
StartChar: backslash
Encoding: 92 92 590
Width: 1126
Flags: W
LayerCount: 2
Back
Fore
SplineSet
356 1413 m 1,0,-1
 1055 -215 l 1,1,-1
 817 -215 l 1,2,-1
 119 1413 l 1,3,-1
 356 1413 l 1,0,-1
EndSplineSet
EndChar
StartChar: bracketright
Encoding: 93 93 388
Width: 1126
Flags: W
LayerCount: 2
Back
Fore
SplineSet
264 -397 m 1,0,-1
 264 -207 l 1,1,-1
 563 -207 l 1,2,-1
 563 1268 l 1,3,-1
 264 1268 l 1,4,-1
 264 1458 l 1,5,-1
 788 1458 l 1,6,-1
 788 -397 l 1,7,-1
 264 -397 l 1,0,-1
EndSplineSet
Substitution2: "'case' Case-Sensitive Forms lookup 0 subtable" bracketright.case
EndChar
StartChar: asciicircum
Encoding: 94 94 587
Width: 1126
Flags: W
LayerCount: 2
Back
Fore
SplineSet
814 668 m 1,0,-1
 552 1130 l 1,1,-1
 294 668 l 1,2,-1
 85 668 l 1,3,-1
 464 1307 l 1,4,-1
 650 1307 l 1,5,-1
 1041 668 l 1,6,-1
 814 668 l 1,0,-1
EndSplineSet
EndChar
StartChar: underscore
Encoding: 95 95 591
Width: 1126
Flags: W
LayerCount: 2
Back
Fore
SplineSet
0 -410 m 1,0,-1
 0 -217 l 1,1,-1
 1126 -217 l 1,2,-1
 1126 -410 l 1,3,-1
 0 -410 l 1,0,-1
EndSplineSet
EndChar
StartChar: grave
Encoding: 96 96 316
Width: 1126
Flags: W
LayerCount: 2
Back
Fore
SplineSet
422 1413 m 1,0,-1
 684 1151 l 1,1,-1
 440 1151 l 1,2,-1
 92 1413 l 1,3,-1
 422 1413 l 1,0,-1
0 1016 m 1024,4,-1
EndSplineSet
Substitution2: "'locl' Localized Forms in Greek lookup 36 subtable" uni1FEF
EndChar
StartChar: a
Encoding: 97 97 131
Width: 1126
GlyphClass: 2
Flags: W
AnchorPoint: "Anchor-11" 0 1700 basechar 0
AnchorPoint: "Anchor-10" 1126 1700 basechar 0
AnchorPoint: "Anchor-9" 900 0 basechar 0
AnchorPoint: "Anchor-8" 480 0 basechar 0
AnchorPoint: "Anchor-7" 820 970 basechar 0
AnchorPoint: "Anchor-6" 1126 -350 basechar 0
AnchorPoint: "Anchor-5" 1126 1700 basechar 0
AnchorPoint: "Anchor-4" 860 950 basechar 0
AnchorPoint: "Anchor-2" 563 -180 basechar 0
AnchorPoint: "Anchor-1" 961 1160 basechar 0
AnchorPoint: "Anchor-0" 563 1200 basechar 0
LayerCount: 2
Back
Fore
SplineSet
985 1020 m 1,0,-1
 985 21 l 2,1,2
 985 11 985 11 965 0 c 1,3,-1
 795 0 l 2,4,5
 785 0 785 0 774 21 c 1,6,-1
 774 122 l 1,7,-1
 767 122 l 1,8,9
 606 -20 606 -20 468 -20 c 0,10,11
 247 -20 247 -20 149 218 c 0,12,13
 122 292 122 292 115 415 c 1,14,15
 115 882 115 882 536 1013 c 1,16,17
 551 1013 551 1013 665 1026 c 1,18,19
 723 1020 723 1020 754 1020 c 2,20,-1
 985 1020 l 1,0,-1
319 401 m 1,21,22
 345 184 345 184 489 184 c 2,23,-1
 509 184 l 2,24,25
 609 184 609 184 754 381 c 1,26,-1
 754 809 l 1,27,28
 747 829 747 829 713 829 c 2,29,-1
 598 829 l 2,30,31
 400 829 400 829 326 510 c 1,32,-1
 319 401 l 1,21,22
EndSplineSet
Substitution2: "'ordn' Ordinals in Latin lookup 38 subtable" uni1D43
Substitution2: "'sups' Superscript lookup 34 subtable" uni1D43
EndChar
StartChar: b
Encoding: 98 98 132
Width: 1126
GlyphClass: 2
Flags: W
AnchorPoint: "Anchor-11" 0 1700 basechar 0
AnchorPoint: "Anchor-10" 1126 1700 basechar 0
AnchorPoint: "Anchor-9" 620 0 basechar 0
AnchorPoint: "Anchor-7" 830 970 basechar 0
AnchorPoint: "Anchor-6" 1126 -350 basechar 0
AnchorPoint: "Anchor-5" 1126 1700 basechar 0
AnchorPoint: "Anchor-4" 900 950 basechar 0
AnchorPoint: "Anchor-2" 563 -180 basechar 0
AnchorPoint: "Anchor-1" 938 1400 basechar 0
AnchorPoint: "Anchor-0" 563 1520 basechar 0
LayerCount: 2
Back
Fore
SplineSet
1053 526 m 0,0,1
 1053 386 1053 386 1013.5 284 c 128,-1,2
 974 182 974 182 903.5 114.5 c 128,-1,3
 833 47 833 47 737 14.5 c 128,-1,4
 641 -18 641 -18 528 -18 c 0,5,6
 417 -18 417 -18 321.5 -1.5 c 128,-1,7
 226 15 226 15 139 43 c 1,8,-1
 139 1413 l 1,9,-1
 383 1413 l 1,10,-1
 383 1081 l 1,11,-1
 373 881 l 1,12,13
 428 952 428 952 501.5 995 c 128,-1,14
 575 1038 575 1038 678 1038 c 0,15,16
 768 1038 768 1038 838 1002 c 128,-1,17
 908 966 908 966 955.5 899.5 c 128,-1,18
 1003 833 1003 833 1028 738.5 c 128,-1,19
 1053 644 1053 644 1053 526 c 0,0,1
797 516 m 0,20,21
 797 600 797 600 785 659 c 128,-1,22
 773 718 773 718 750.5 756 c 128,-1,23
 728 794 728 794 695.5 811.5 c 128,-1,24
 663 829 663 829 621 829 c 0,25,26
 559 829 559 829 502.5 779 c 128,-1,27
 446 729 446 729 383 643 c 1,28,-1
 383 199 l 1,29,30
 412 188 412 188 454.5 181 c 128,-1,31
 497 174 497 174 541 174 c 0,32,33
 599 174 599 174 646.5 198 c 128,-1,34
 694 222 694 222 727.5 266 c 128,-1,35
 761 310 761 310 779 373.5 c 128,-1,36
 797 437 797 437 797 516 c 0,20,21
EndSplineSet
Substitution2: "'ordn' Ordinals in Latin lookup 38 subtable" uni1D47
Substitution2: "'sups' Superscript lookup 34 subtable" uni1D47
EndChar
StartChar: c
Encoding: 99 99 133
Width: 1126
GlyphClass: 2
Flags: W
AnchorPoint: "Anchor-11" 0 1700 basechar 0
AnchorPoint: "Anchor-10" 1126 1700 basechar 0
AnchorPoint: "Anchor-9" 780 0 basechar 0
AnchorPoint: "Anchor-8" 640 0 basechar 0
AnchorPoint: "Anchor-7" 840 970 basechar 0
AnchorPoint: "Anchor-6" 1126 -350 basechar 0
AnchorPoint: "Anchor-5" 1126 1700 basechar 0
AnchorPoint: "Anchor-4" 850 970 basechar 0
AnchorPoint: "Anchor-2" 623 -180 basechar 0
AnchorPoint: "Anchor-1" 990 1160 basechar 0
AnchorPoint: "Anchor-0" 623 1200 basechar 0
LayerCount: 2
Back
Fore
SplineSet
961 39 m 1,0,1
 889 10 889 10 812 -4 c 128,-1,2
 735 -18 735 -18 651 -18 c 0,3,4
 530 -18 530 -18 434 15 c 128,-1,5
 338 48 338 48 271 113 c 128,-1,6
 204 178 204 178 168.5 274 c 128,-1,7
 133 370 133 370 133 496 c 0,8,9
 133 618 133 618 171.5 717 c 128,-1,10
 210 816 210 816 280 886 c 128,-1,11
 350 956 350 956 448.5 994 c 128,-1,12
 547 1032 547 1032 668 1032 c 0,13,14
 767 1032 767 1032 834.5 1021.5 c 128,-1,15
 902 1011 902 1011 956 995 c 1,16,-1
 956 758 l 1,17,18
 894 789 894 789 821.5 806 c 128,-1,19
 749 823 749 823 684 823 c 0,20,21
 616 823 616 823 562 800 c 128,-1,22
 508 777 508 777 471 736 c 128,-1,23
 434 695 434 695 414.5 636.5 c 128,-1,24
 395 578 395 578 395 508 c 0,25,26
 395 435 395 435 416 377 c 128,-1,27
 437 319 437 319 475.5 278.5 c 128,-1,28
 514 238 514 238 568 216.5 c 128,-1,29
 622 195 622 195 688 195 c 0,30,31
 720 195 720 195 755.5 199.5 c 128,-1,32
 791 204 791 204 826.5 212.5 c 128,-1,33
 862 221 862 221 896.5 232 c 128,-1,34
 931 243 931 243 961 256 c 1,35,-1
 961 39 l 1,0,1
EndSplineSet
Substitution2: "'ordn' Ordinals in Latin lookup 38 subtable" uni1D9C
Substitution2: "'sups' Superscript lookup 34 subtable" uni1D9C
EndChar
StartChar: d
Encoding: 100 100 134
Width: 1126
GlyphClass: 2
Flags: W
AnchorPoint: "Anchor-11" 0 1700 basechar 0
AnchorPoint: "Anchor-10" 1126 1700 basechar 0
AnchorPoint: "Anchor-9" 910 0 basechar 0
AnchorPoint: "Anchor-7" 880 1413 basechar 0
AnchorPoint: "Anchor-6" 1126 -350 basechar 0
AnchorPoint: "Anchor-5" 1126 1700 basechar 0
AnchorPoint: "Anchor-4" 880 1413 basechar 0
AnchorPoint: "Anchor-2" 563 -180 basechar 0
AnchorPoint: "Anchor-1" 1021 1500 basechar 0
AnchorPoint: "Anchor-0" 563 1520 basechar 0
LayerCount: 2
Back
Fore
SplineSet
795 1414 m 2,0,-1
 944 1414 l 2,1,2
 985 1414 985 1414 985 1373 c 2,3,-1
 985 21 l 2,4,5
 985 11 985 11 965 0 c 1,6,-1
 795 0 l 2,7,8
 785 0 785 0 774 21 c 1,9,-1
 774 122 l 1,10,-1
 767 122 l 1,11,12
 606 -20 606 -20 468 -20 c 0,13,14
 247 -20 247 -20 149 218 c 0,15,16
 122 292 122 292 115 415 c 1,17,18
 115 882 115 882 536 1013 c 1,19,20
 551 1013 551 1013 665 1026 c 1,21,22
 723 1020 723 1020 754 1020 c 1,23,-1
 754 1373 l 2,24,25
 754 1414 754 1414 795 1414 c 2,0,-1
319 401 m 1,26,27
 345 184 345 184 489 184 c 2,28,-1
 509 184 l 2,29,30
 609 184 609 184 754 381 c 1,31,-1
 754 809 l 1,32,33
 747 829 747 829 713 829 c 2,34,-1
 598 829 l 2,35,36
 400 829 400 829 326 510 c 1,37,-1
 319 401 l 1,26,27
EndSplineSet
Substitution2: "'ordn' Ordinals in Latin lookup 38 subtable" uni1D48
Substitution2: "'sups' Superscript lookup 34 subtable" uni1D48
EndChar
StartChar: e
Encoding: 101 101 135
Width: 1126
GlyphClass: 2
Flags: W
AnchorPoint: "Anchor-11" 0 1700 basechar 0
AnchorPoint: "Anchor-10" 1126 1700 basechar 0
AnchorPoint: "Anchor-9" 780 0 basechar 0
AnchorPoint: "Anchor-8" 640 0 basechar 0
AnchorPoint: "Anchor-7" 800 970 basechar 0
AnchorPoint: "Anchor-6" 1126 -350 basechar 0
AnchorPoint: "Anchor-5" 1126 1700 basechar 0
AnchorPoint: "Anchor-4" 890 930 basechar 0
AnchorPoint: "Anchor-2" 563 -180 basechar 0
AnchorPoint: "Anchor-1" 1008 1160 basechar 0
AnchorPoint: "Anchor-0" 563 1200 basechar 0
LayerCount: 2
Back
Fore
SplineSet
1024 586 m 0,0,1
 1024 561 1024 561 1022.5 521 c 128,-1,2
 1021 481 1021 481 1018 446 c 1,3,-1
 350 446 l 1,4,5
 350 379 350 379 370.5 328 c 128,-1,6
 391 277 391 277 428.5 242.5 c 128,-1,7
 466 208 466 208 518.5 190 c 128,-1,8
 571 172 571 172 635 172 c 0,9,10
 709 172 709 172 793.5 183.5 c 128,-1,11
 878 195 878 195 969 221 c 1,12,-1
 969 27 l 1,13,14
 930 16 930 16 884 7 c 128,-1,15
 838 -2 838 -2 790 -9 c 128,-1,16
 742 -16 742 -16 693 -19.5 c 128,-1,17
 644 -23 644 -23 598 -23 c 0,18,19
 482 -23 482 -23 390 10 c 128,-1,20
 298 43 298 43 234 107.5 c 128,-1,21
 170 172 170 172 136 267 c 128,-1,22
 102 362 102 362 102 487 c 0,23,24
 102 611 102 611 136 712.5 c 128,-1,25
 170 814 170 814 232 886.5 c 128,-1,26
 294 959 294 959 382.5 998.5 c 128,-1,27
 471 1038 471 1038 580 1038 c 0,28,29
 688 1038 688 1038 771 1004.5 c 128,-1,30
 854 971 854 971 910 911 c 128,-1,31
 966 851 966 851 995 768 c 128,-1,32
 1024 685 1024 685 1024 586 c 0,0,1
776 621 m 1,33,34
 777 681 777 681 761 725.5 c 128,-1,35
 745 770 745 770 717.5 799 c 128,-1,36
 690 828 690 828 653.5 842 c 128,-1,37
 617 856 617 856 575 856 c 0,38,39
 483 856 483 856 424 794.5 c 128,-1,40
 365 733 365 733 354 621 c 1,41,-1
 776 621 l 1,33,34
EndSplineSet
Substitution2: "'ordn' Ordinals in Latin lookup 38 subtable" uni1D49
Substitution2: "'sups' Superscript lookup 34 subtable" uni1D49
EndChar
StartChar: f
Encoding: 102 102 136
Width: 1126
GlyphClass: 2
Flags: W
AnchorPoint: "Anchor-11" 0 1700 basechar 0
AnchorPoint: "Anchor-10" 1126 1700 basechar 0
AnchorPoint: "Anchor-9" 540 0 basechar 0
AnchorPoint: "Anchor-7" 940 1413 basechar 0
AnchorPoint: "Anchor-6" 1126 -350 basechar 0
AnchorPoint: "Anchor-5" 1126 1700 basechar 0
AnchorPoint: "Anchor-4" 940 1413 basechar 0
AnchorPoint: "Anchor-2" 493 -180 basechar 0
AnchorPoint: "Anchor-1" 1101 1500 basechar 0
AnchorPoint: "Anchor-0" 663 1520 basechar 0
LayerCount: 2
Back
Fore
SplineSet
1051 1206 m 1,0,1
 1007 1220 1007 1220 946.5 1229.5 c 128,-1,2
 886 1239 886 1239 823 1239 c 0,3,4
 780 1239 780 1239 743 1227.5 c 128,-1,5
 706 1216 706 1216 679 1191 c 128,-1,6
 652 1166 652 1166 636.5 1127.5 c 128,-1,7
 621 1089 621 1089 621 1034 c 2,8,-1
 621 870 l 1,9,-1
 1020 870 l 1,10,-1
 1020 680 l 1,11,-1
 621 680 l 1,12,-1
 621 0 l 1,13,-1
 375 0 l 1,14,-1
 375 680 l 1,15,-1
 80 680 l 1,16,-1
 80 870 l 1,17,-1
 375 870 l 1,18,-1
 375 1024 l 2,19,20
 375 1132 375 1132 406.5 1209.5 c 128,-1,21
 438 1287 438 1287 495.5 1336.5 c 128,-1,22
 553 1386 553 1386 634 1409 c 128,-1,23
 715 1432 715 1432 815 1432 c 0,24,25
 881 1432 881 1432 940.5 1423.5 c 128,-1,26
 1000 1415 1000 1415 1051 1403 c 1,27,-1
 1051 1206 l 1,0,1
0 1016 m 1024,28,-1
EndSplineSet
Substitution2: "'ordn' Ordinals in Latin lookup 38 subtable" uni1DA0
Substitution2: "'sups' Superscript lookup 34 subtable" uni1DA0
AlternateSubs2: "'ss06' Style Set 6 lookup 31 subtable" f.ss05
Substitution2: "'ss05' Style Set 5 lookup 30 subtable" f.ss05
Substitution2: "'ss04' Style Set 4 lookup 29 subtable" f.ss04
AlternateSubs2: "'salt' Stylistic Alternatives lookup 23 subtable" f.ss04 f.ss05
EndChar
StartChar: g
Encoding: 103 103 137
Width: 1126
GlyphClass: 2
Flags: W
AnchorPoint: "Anchor-11" 0 1700 basechar 0
AnchorPoint: "Anchor-10" 1126 1700 basechar 0
AnchorPoint: "Anchor-9" 730 -385 basechar 0
AnchorPoint: "Anchor-8" 563 -400 basechar 0
AnchorPoint: "Anchor-7" 900 990 basechar 0
AnchorPoint: "Anchor-6" 1126 -350 basechar 0
AnchorPoint: "Anchor-5" 1126 1700 basechar 0
AnchorPoint: "Anchor-4" 900 1000 basechar 0
AnchorPoint: "Anchor-2" 563 -550 basechar 0
AnchorPoint: "Anchor-1" 1094 1160 basechar 0
AnchorPoint: "Anchor-0" 563 1200 basechar 0
LayerCount: 2
Back
Fore
SplineSet
349 401 m 1,0,1
 375 184 375 184 519 184 c 2,2,-1
 539 184 l 2,3,4
 639 184 639 184 784 381 c 1,5,-1
 784 809 l 1,6,7
 777 829 777 829 743 829 c 2,8,-1
 628 829 l 2,9,10
 430 829 430 829 356 510 c 1,11,-1
 349 401 l 1,0,1
1015 21 m 2,12,13
 1015 -267 1015 -267 772 -390 c 1,14,15
 668 -431 668 -431 562 -431 c 0,16,17
 334 -431 334 -431 130 -255 c 1,18,19
 130 -231 130 -231 211 -100 c 1,20,21
 419 -235 419 -235 535 -235 c 2,22,-1
 583 -235 l 2,23,24
 792 -235 792 -235 804 22 c 1,25,-1
 804 122 l 1,26,-1
 797 122 l 1,27,28
 636 -20 636 -20 498 -20 c 0,29,30
 277 -20 277 -20 179 218 c 0,31,32
 152 292 152 292 145 415 c 1,33,34
 145 882 145 882 566 1013 c 1,35,36
 581 1013 581 1013 695 1026 c 1,37,38
 753 1020 753 1020 784 1020 c 2,39,-1
 1015 1020 l 1,40,-1
 1015 21 l 2,12,13
EndSplineSet
Substitution2: "'ordn' Ordinals in Latin lookup 38 subtable" uni1D4D
Substitution2: "'sups' Superscript lookup 34 subtable" uni1D4D
EndChar
StartChar: h
Encoding: 104 104 138
Width: 1126
GlyphClass: 2
Flags: W
AnchorPoint: "Anchor-11" 0 1700 basechar 0
AnchorPoint: "Anchor-10" 1126 1700 basechar 0
AnchorPoint: "Anchor-9" 910 0 basechar 0
AnchorPoint: "Anchor-7" 820 970 basechar 0
AnchorPoint: "Anchor-6" 1126 -350 basechar 0
AnchorPoint: "Anchor-5" 1126 1700 basechar 0
AnchorPoint: "Anchor-4" 860 950 basechar 0
AnchorPoint: "Anchor-2" 563 -180 basechar 0
AnchorPoint: "Anchor-1" 938 1400 basechar 0
AnchorPoint: "Anchor-0" 563 1520 basechar 0
LayerCount: 2
Back
Fore
SplineSet
745 0 m 1,0,-1
 745 662 l 2,1,2
 745 829 745 829 621 829 c 0,3,4
 559 829 559 829 502.5 779 c 128,-1,5
 446 729 446 729 383 643 c 1,6,-1
 383 0 l 1,7,-1
 139 0 l 1,8,-1
 139 1413 l 1,9,-1
 383 1413 l 1,10,-1
 383 1065 l 1,11,-1
 371 881 l 1,12,13
 402 918 402 918 434 947.5 c 128,-1,14
 466 977 466 977 503 997 c 128,-1,15
 540 1017 540 1017 583 1027.5 c 128,-1,16
 626 1038 626 1038 678 1038 c 0,17,18
 756 1038 756 1038 814 1012.5 c 128,-1,19
 872 987 872 987 911 940.5 c 128,-1,20
 950 894 950 894 969.5 828.5 c 128,-1,21
 989 763 989 763 989 682 c 2,22,-1
 989 0 l 1,23,-1
 745 0 l 1,0,-1
EndSplineSet
Substitution2: "'ordn' Ordinals in Latin lookup 38 subtable" uni02B0
Substitution2: "'sups' Superscript lookup 34 subtable" uni02B0
EndChar
StartChar: i
Encoding: 105 105 139
Width: 1126
GlyphClass: 2
Flags: W
AnchorPoint: "Anchor-11" 0 1700 basechar 0
AnchorPoint: "Anchor-10" 1126 1700 basechar 0
AnchorPoint: "Anchor-9" 930 0 basechar 0
AnchorPoint: "Anchor-8" 563 0 basechar 0
AnchorPoint: "Anchor-7" 680 1000 basechar 0
AnchorPoint: "Anchor-6" 1126 -350 basechar 0
AnchorPoint: "Anchor-5" 1126 1700 basechar 0
AnchorPoint: "Anchor-4" 610 1000 basechar 0
AnchorPoint: "Anchor-2" 563 -180 basechar 0
AnchorPoint: "Anchor-1" 777 1500 basechar 0
AnchorPoint: "Anchor-0" 563 1520 basechar 0
LayerCount: 2
Back
Fore
SplineSet
737 1294 m 256,0,1
 737 1261 737 1261 725 1232 c 128,-1,2
 713 1203 713 1203 691.5 1181.5 c 128,-1,3
 670 1160 670 1160 641 1147.5 c 128,-1,4
 612 1135 612 1135 578 1135 c 256,5,6
 544 1135 544 1135 514.5 1147.5 c 128,-1,7
 485 1160 485 1160 463.5 1181.5 c 128,-1,8
 442 1203 442 1203 430 1232 c 128,-1,9
 418 1261 418 1261 418 1294 c 256,10,11
 418 1327 418 1327 430 1356 c 128,-1,12
 442 1385 442 1385 463.5 1407 c 128,-1,13
 485 1429 485 1429 514.5 1441.5 c 128,-1,14
 544 1454 544 1454 578 1454 c 256,15,16
 612 1454 612 1454 641 1441.5 c 128,-1,17
 670 1429 670 1429 691.5 1407 c 128,-1,18
 713 1385 713 1385 725 1356 c 128,-1,19
 737 1327 737 1327 737 1294 c 256,0,1
469 790 m 1,20,-1
 217 790 l 1,21,-1
 217 1015 l 1,22,-1
 718 1015 l 1,23,-1
 718 428 l 2,24,25
 718 308 718 308 753 258 c 128,-1,26
 788 208 788 208 872 208 c 2,27,-1
 1071 208 l 1,28,-1
 1071 3 l 1,29,-1
 802 3 l 2,30,31
 624 3 624 3 546.5 101 c 128,-1,32
 469 199 469 199 469 428 c 2,33,-1
 469 790 l 1,20,-1
EndSplineSet
AlternateSubs2: "'ss06' Style Set 6 lookup 31 subtable" glyph277
Substitution2: "'ss05' Style Set 5 lookup 30 subtable" i.ss05
AlternateSubs2: "'salt' Stylistic Alternatives lookup 23 subtable" i.ss05 glyph277
Substitution2: "Single Substitution lookup 15 subtable" dotlessi
EndChar
StartChar: j
Encoding: 106 106 140
Width: 1126
GlyphClass: 2
Flags: W
AnchorPoint: "Anchor-11" 0 1700 basechar 0
AnchorPoint: "Anchor-10" 1126 1700 basechar 0
AnchorPoint: "Anchor-9" 630 -350 basechar 0
AnchorPoint: "Anchor-7" 840 1000 basechar 0
AnchorPoint: "Anchor-6" 1126 -350 basechar 0
AnchorPoint: "Anchor-5" 1126 1700 basechar 0
AnchorPoint: "Anchor-4" 770 1000 basechar 0
AnchorPoint: "Anchor-2" 563 -550 basechar 0
AnchorPoint: "Anchor-1" 937 1500 basechar 0
AnchorPoint: "Anchor-0" 733 1520 basechar 0
LayerCount: 2
Back
Fore
SplineSet
903 1294 m 256,0,1
 903 1261 903 1261 891 1232 c 128,-1,2
 879 1203 879 1203 857.5 1181.5 c 128,-1,3
 836 1160 836 1160 806.5 1147.5 c 128,-1,4
 777 1135 777 1135 743 1135 c 256,5,6
 709 1135 709 1135 680 1147.5 c 128,-1,7
 651 1160 651 1160 629.5 1181.5 c 128,-1,8
 608 1203 608 1203 596 1232 c 128,-1,9
 584 1261 584 1261 584 1294 c 256,10,11
 584 1327 584 1327 596 1356 c 128,-1,12
 608 1385 608 1385 629.5 1407 c 128,-1,13
 651 1429 651 1429 680 1441.5 c 128,-1,14
 709 1454 709 1454 743 1454 c 256,15,16
 777 1454 777 1454 806.5 1441.5 c 128,-1,17
 836 1429 836 1429 857.5 1407 c 128,-1,18
 879 1385 879 1385 891 1356 c 128,-1,19
 903 1327 903 1327 903 1294 c 256,0,1
884 -62 m 2,20,21
 884 -314 884 -314 807 -421.5 c 128,-1,22
 730 -529 730 -529 552 -529 c 2,23,-1
 284 -529 l 1,24,-1
 284 -304 l 1,25,-1
 483 -304 l 2,26,27
 566 -304 566 -304 600.5 -249 c 128,-1,28
 635 -194 635 -194 635 -62 c 2,29,-1
 635 790 l 1,30,-1
 383 790 l 1,31,-1
 383 1015 l 1,32,-1
 884 1015 l 1,33,-1
 884 -62 l 2,20,21
EndSplineSet
Substitution2: "'ordn' Ordinals in Latin lookup 38 subtable" uni02B2
Substitution2: "'sups' Superscript lookup 34 subtable" uni02B2
AlternateSubs2: "'ss06' Style Set 6 lookup 31 subtable" glyph287
AlternateSubs2: "'salt' Stylistic Alternatives lookup 23 subtable" glyph287
Substitution2: "Single Substitution lookup 17 subtable" uni0237
EndChar
StartChar: k
Encoding: 107 107 141
Width: 1126
GlyphClass: 2
Flags: W
AnchorPoint: "Anchor-11" 0 1700 basechar 0
AnchorPoint: "Anchor-10" 1126 1700 basechar 0
AnchorPoint: "Anchor-9" 1000 0 basechar 0
AnchorPoint: "Anchor-8" 563 -50 basechar 0
AnchorPoint: "Anchor-7" 850 1000 basechar 0
AnchorPoint: "Anchor-6" 1126 -350 basechar 0
AnchorPoint: "Anchor-5" 1126 1700 basechar 0
AnchorPoint: "Anchor-4" 800 1000 basechar 0
AnchorPoint: "Anchor-2" 563 -180 basechar 0
AnchorPoint: "Anchor-1" 1063 1400 basechar 0
AnchorPoint: "Anchor-0" 563 1520 basechar 0
LayerCount: 2
Back
Fore
SplineSet
768 0 m 1,0,-1
 393 508 l 1,1,-1
 393 0 l 1,2,-1
 149 0 l 1,3,-1
 149 1413 l 1,4,-1
 393 1413 l 1,5,-1
 393 586 l 1,6,-1
 748 1016 l 1,7,-1
 1053 1016 l 1,8,-1
 641 553 l 1,9,-1
 1087 0 l 1,10,-1
 768 0 l 1,0,-1
EndSplineSet
Substitution2: "'ordn' Ordinals in Latin lookup 38 subtable" uni1D4F
Substitution2: "'sups' Superscript lookup 34 subtable" uni1D4F
EndChar
StartChar: l
Encoding: 108 108 142
Width: 1126
GlyphClass: 2
Flags: W
AnchorPoint: "Anchor-11" 0 1700 basechar 0
AnchorPoint: "Anchor-10" 1126 1700 basechar 0
AnchorPoint: "Anchor-9" 930 0 basechar 0
AnchorPoint: "Anchor-8" 563 0 basechar 0
AnchorPoint: "Anchor-7" 600 1413 basechar 0
AnchorPoint: "Anchor-6" 1126 -350 basechar 0
AnchorPoint: "Anchor-5" 1126 1700 basechar 0
AnchorPoint: "Anchor-4" 610 1413 basechar 0
AnchorPoint: "Anchor-2" 563 -180 basechar 0
AnchorPoint: "Anchor-1" 763 1500 basechar 0
AnchorPoint: "Anchor-0" 563 1520 basechar 0
LayerCount: 2
Back
Fore
SplineSet
462 424 m 2,0,-1
 462 1209 l 1,1,-1
 200 1209 l 1,2,-1
 200 1414 l 1,3,-1
 719 1414 l 1,4,-1
 719 424 l 2,5,6
 719 304 719 304 755.5 254 c 128,-1,7
 792 204 792 204 878 204 c 2,8,-1
 1084 204 l 1,9,-1
 1084 -1 l 1,10,-1
 806 -1 l 2,11,12
 622 -1 622 -1 542 97 c 128,-1,13
 462 195 462 195 462 424 c 2,0,-1
EndSplineSet
AlternateSubs2: "'ss06' Style Set 6 lookup 31 subtable" glyph296
Substitution2: "'ss05' Style Set 5 lookup 30 subtable" l.ss05
AlternateSubs2: "'salt' Stylistic Alternatives lookup 23 subtable" l.ss05 glyph296
EndChar
StartChar: m
Encoding: 109 109 143
Width: 1126
GlyphClass: 2
Flags: W
AnchorPoint: "Anchor-11" 0 1700 basechar 0
AnchorPoint: "Anchor-10" 1126 1700 basechar 0
AnchorPoint: "Anchor-9" 990 0 basechar 0
AnchorPoint: "Anchor-7" 940 970 basechar 0
AnchorPoint: "Anchor-6" 1126 -350 basechar 0
AnchorPoint: "Anchor-5" 1126 1700 basechar 0
AnchorPoint: "Anchor-4" 950 970 basechar 0
AnchorPoint: "Anchor-2" 563 -180 basechar 0
AnchorPoint: "Anchor-1" 1086 1160 basechar 0
AnchorPoint: "Anchor-0" 563 1200 basechar 0
LayerCount: 2
Back
Fore
SplineSet
856 0 m 1,0,-1
 856 692 l 2,1,2
 856 730 856 730 854 758.5 c 128,-1,3
 852 787 852 787 846 806 c 128,-1,4
 840 825 840 825 828.5 834.5 c 128,-1,5
 817 844 817 844 797 844 c 0,6,7
 766 844 766 844 736 802 c 128,-1,8
 706 760 706 760 668 659 c 1,9,-1
 668 0 l 1,10,-1
 459 0 l 1,11,-1
 459 692 l 2,12,13
 459 730 459 730 457 758.5 c 128,-1,14
 455 787 455 787 449 806 c 128,-1,15
 443 825 443 825 431 834.5 c 128,-1,16
 419 844 419 844 399 844 c 0,17,18
 373 844 373 844 341 802 c 128,-1,19
 309 760 309 760 270 659 c 1,20,-1
 270 0 l 1,21,-1
 59 0 l 1,22,-1
 59 1016 l 1,23,-1
 240 1016 l 1,24,-1
 244 868 l 1,25,26
 266 913 266 913 288 945 c 128,-1,27
 310 977 310 977 335 997.5 c 128,-1,28
 360 1018 360 1018 388.5 1027 c 128,-1,29
 417 1036 417 1036 453 1036 c 0,30,31
 538 1036 538 1036 582.5 991.5 c 128,-1,32
 627 947 627 947 633 868 c 1,33,34
 657 913 657 913 680.5 945 c 128,-1,35
 704 977 704 977 729.5 997.5 c 128,-1,36
 755 1018 755 1018 784.5 1027 c 128,-1,37
 814 1036 814 1036 850 1036 c 0,38,39
 961 1036 961 1036 1014 958.5 c 128,-1,40
 1067 881 1067 881 1067 729 c 2,41,-1
 1067 0 l 1,42,-1
 856 0 l 1,0,-1
EndSplineSet
Substitution2: "'ordn' Ordinals in Latin lookup 38 subtable" uni1D50
Substitution2: "'sups' Superscript lookup 34 subtable" uni1D50
EndChar
StartChar: n
Encoding: 110 110 144
Width: 1126
GlyphClass: 2
Flags: W
AnchorPoint: "Anchor-11" 0 1700 basechar 0
AnchorPoint: "Anchor-10" 1126 1700 basechar 0
AnchorPoint: "Anchor-9" 910 0 basechar 0
AnchorPoint: "Anchor-8" 563 -50 basechar 0
AnchorPoint: "Anchor-7" 800 970 basechar 0
AnchorPoint: "Anchor-6" 1126 -350 basechar 0
AnchorPoint: "Anchor-5" 1126 1700 basechar 0
AnchorPoint: "Anchor-4" 870 970 basechar 0
AnchorPoint: "Anchor-2" 563 -180 basechar 0
AnchorPoint: "Anchor-1" 1017 1160 basechar 0
AnchorPoint: "Anchor-0" 563 1200 basechar 0
LayerCount: 2
Back
Fore
SplineSet
745 0 m 1,0,-1
 745 662 l 2,1,2
 745 829 745 829 621 829 c 0,3,4
 559 829 559 829 502.5 779 c 128,-1,5
 446 729 446 729 383 643 c 1,6,-1
 383 0 l 1,7,-1
 139 0 l 1,8,-1
 139 1016 l 1,9,-1
 350 1016 l 1,10,-1
 356 866 l 1,11,12
 387 905 387 905 420.5 937 c 128,-1,13
 454 969 454 969 493 991.5 c 128,-1,14
 532 1014 532 1014 577 1026 c 128,-1,15
 622 1038 622 1038 678 1038 c 0,16,17
 756 1038 756 1038 814 1012.5 c 128,-1,18
 872 987 872 987 911 940.5 c 128,-1,19
 950 894 950 894 969.5 828.5 c 128,-1,20
 989 763 989 763 989 682 c 2,21,-1
 989 0 l 1,22,-1
 745 0 l 1,0,-1
EndSplineSet
Substitution2: "'ordn' Ordinals in Latin lookup 38 subtable" uni207F
Substitution2: "'sups' Superscript lookup 34 subtable" uni207F
EndChar
StartChar: o
Encoding: 111 111 145
Width: 1126
GlyphClass: 2
Flags: W
AnchorPoint: "Anchor-11" 0 1700 basechar 0
AnchorPoint: "Anchor-10" 1126 1700 basechar 0
AnchorPoint: "Anchor-9" 660 0 basechar 0
AnchorPoint: "Anchor-8" 563 0 basechar 0
AnchorPoint: "Anchor-7" 800 950 basechar 0
AnchorPoint: "Anchor-6" 1126 -350 basechar 0
AnchorPoint: "Anchor-5" 1126 1700 basechar 0
AnchorPoint: "Anchor-4" 910 930 basechar 0
AnchorPoint: "Anchor-2" 563 -180 basechar 0
AnchorPoint: "Anchor-1" 994 1160 basechar 0
AnchorPoint: "Anchor-0" 563 1200 basechar 0
LayerCount: 2
Back
Fore
SplineSet
1054 516 m 0,0,1
 1054 396 1054 396 1020 296.5 c 128,-1,2
 986 197 986 197 922 126 c 128,-1,3
 858 55 858 55 765 16 c 128,-1,4
 672 -23 672 -23 553 -23 c 0,5,6
 440 -23 440 -23 351 10 c 128,-1,7
 262 43 262 43 200 108.5 c 128,-1,8
 138 174 138 174 105 272.5 c 128,-1,9
 72 371 72 371 72 502 c 0,10,11
 72 623 72 623 106.5 722 c 128,-1,12
 141 821 141 821 205.5 891 c 128,-1,13
 270 961 270 961 363 999.5 c 128,-1,14
 456 1038 456 1038 573 1038 c 0,15,16
 687 1038 687 1038 776 1004.5 c 128,-1,17
 865 971 865 971 927 905 c 128,-1,18
 989 839 989 839 1021.5 741.5 c 128,-1,19
 1054 644 1054 644 1054 516 c 0,0,1
800 510 m 0,20,21
 800 668 800 668 740.5 747.5 c 128,-1,22
 681 827 681 827 565 827 c 0,23,24
 501 827 501 827 456 802 c 128,-1,25
 411 777 411 777 382 733.5 c 128,-1,26
 353 690 353 690 339.5 632 c 128,-1,27
 326 574 326 574 326 508 c 0,28,29
 326 349 326 349 390 268.5 c 128,-1,30
 454 188 454 188 565 188 c 0,31,32
 626 188 626 188 671 212.5 c 128,-1,33
 716 237 716 237 744 280.5 c 128,-1,34
 772 324 772 324 786 383 c 128,-1,35
 800 442 800 442 800 510 c 0,20,21
EndSplineSet
Substitution2: "'ordn' Ordinals in Latin lookup 38 subtable" uni1D52
Substitution2: "'sups' Superscript lookup 34 subtable" uni1D52
EndChar
StartChar: p
Encoding: 112 112 146
Width: 1126
GlyphClass: 2
Flags: W
AnchorPoint: "Anchor-11" 0 1700 basechar 0
AnchorPoint: "Anchor-10" 1126 1700 basechar 0
AnchorPoint: "Anchor-9" 300 -400 basechar 0
AnchorPoint: "Anchor-7" 840 970 basechar 0
AnchorPoint: "Anchor-6" 1126 -350 basechar 0
AnchorPoint: "Anchor-5" 1126 1700 basechar 0
AnchorPoint: "Anchor-4" 910 930 basechar 0
AnchorPoint: "Anchor-2" 563 -500 basechar 0
AnchorPoint: "Anchor-1" 988 1160 basechar 0
AnchorPoint: "Anchor-0" 563 1200 basechar 0
LayerCount: 2
Back
Fore
SplineSet
1053 526 m 0,0,1
 1053 386 1053 386 1013.5 284 c 128,-1,2
 974 182 974 182 903.5 114.5 c 128,-1,3
 833 47 833 47 737 14.5 c 128,-1,4
 641 -18 641 -18 528 -18 c 0,5,6
 490 -18 490 -18 452 -13 c 128,-1,7
 414 -8 414 -8 383 0 c 1,8,-1
 383 -397 l 1,9,-1
 139 -397 l 1,10,-1
 139 1016 l 1,11,-1
 350 1016 l 1,12,-1
 356 866 l 1,13,14
 387 905 387 905 420.5 937 c 128,-1,15
 454 969 454 969 493 991.5 c 128,-1,16
 532 1014 532 1014 577 1026 c 128,-1,17
 622 1038 622 1038 678 1038 c 0,18,19
 768 1038 768 1038 838 1002 c 128,-1,20
 908 966 908 966 955.5 899.5 c 128,-1,21
 1003 833 1003 833 1028 738.5 c 128,-1,22
 1053 644 1053 644 1053 526 c 0,0,1
797 516 m 0,23,24
 797 600 797 600 785 659 c 128,-1,25
 773 718 773 718 750.5 756 c 128,-1,26
 728 794 728 794 695.5 811.5 c 128,-1,27
 663 829 663 829 621 829 c 0,28,29
 559 829 559 829 502.5 779 c 128,-1,30
 446 729 446 729 383 643 c 1,31,-1
 383 199 l 1,32,33
 412 188 412 188 454.5 181 c 128,-1,34
 497 174 497 174 541 174 c 0,35,36
 599 174 599 174 646.5 198 c 128,-1,37
 694 222 694 222 727.5 266 c 128,-1,38
 761 310 761 310 779 373.5 c 128,-1,39
 797 437 797 437 797 516 c 0,23,24
EndSplineSet
Substitution2: "'ordn' Ordinals in Latin lookup 38 subtable" uni1D56
Substitution2: "'sups' Superscript lookup 34 subtable" uni1D56
EndChar
StartChar: q
Encoding: 113 113 147
Width: 1126
GlyphClass: 2
Flags: W
AnchorPoint: "Anchor-11" 0 1700 basechar 0
AnchorPoint: "Anchor-10" 1126 1700 basechar 0
AnchorPoint: "Anchor-9" 910 -400 basechar 0
AnchorPoint: "Anchor-7" 880 1010 basechar 0
AnchorPoint: "Anchor-6" 1126 -350 basechar 0
AnchorPoint: "Anchor-5" 1126 1700 basechar 0
AnchorPoint: "Anchor-4" 880 1010 basechar 0
AnchorPoint: "Anchor-2" 563 -500 basechar 0
AnchorPoint: "Anchor-1" 1011 1160 basechar 0
AnchorPoint: "Anchor-0" 563 1200 basechar 0
LayerCount: 2
Back
Fore
SplineSet
745 -397 m 1,0,-1
 745 -63 l 1,1,-1
 756 135 l 1,2,3
 728 100 728 100 696.5 71 c 128,-1,4
 665 42 665 42 627.5 21 c 128,-1,5
 590 0 590 0 546 -11.5 c 128,-1,6
 502 -23 502 -23 451 -23 c 0,7,8
 361 -23 361 -23 291 13 c 128,-1,9
 221 49 221 49 173.5 115.5 c 128,-1,10
 126 182 126 182 101 277 c 128,-1,11
 76 372 76 372 76 489 c 0,12,13
 76 610 76 610 109 710.5 c 128,-1,14
 142 811 142 811 207.5 883 c 128,-1,15
 273 955 273 955 371 994.5 c 128,-1,16
 469 1034 469 1034 600 1034 c 0,17,18
 625 1034 625 1034 655 1031 c 128,-1,19
 685 1028 685 1028 715 1023.5 c 128,-1,20
 745 1019 745 1019 772.5 1012.5 c 128,-1,21
 800 1006 800 1006 821 999 c 1,22,-1
 989 1036 l 1,23,-1
 989 -397 l 1,24,-1
 745 -397 l 1,0,-1
332 500 m 0,25,26
 332 416 332 416 343.5 356.5 c 128,-1,27
 355 297 355 297 377.5 259 c 128,-1,28
 400 221 400 221 433 203.5 c 128,-1,29
 466 186 466 186 508 186 c 0,30,31
 570 186 570 186 626 236 c 128,-1,32
 682 286 682 286 745 373 c 1,33,-1
 745 817 l 1,34,35
 716 828 716 828 673.5 835 c 128,-1,36
 631 842 631 842 588 842 c 0,37,38
 529 842 529 842 482 818 c 128,-1,39
 435 794 435 794 401.5 750 c 128,-1,40
 368 706 368 706 350 642.5 c 128,-1,41
 332 579 332 579 332 500 c 0,25,26
EndSplineSet
EndChar
StartChar: r
Encoding: 114 114 148
Width: 1126
GlyphClass: 2
Flags: W
AnchorPoint: "Anchor-11" 0 1700 basechar 0
AnchorPoint: "Anchor-10" 1126 1700 basechar 0
AnchorPoint: "Anchor-9" 350 0 basechar 0
AnchorPoint: "Anchor-8" 300 0 basechar 0
AnchorPoint: "Anchor-7" 840 970 basechar 0
AnchorPoint: "Anchor-6" 1126 -350 basechar 0
AnchorPoint: "Anchor-5" 1126 1700 basechar 0
AnchorPoint: "Anchor-4" 910 950 basechar 0
AnchorPoint: "Anchor-2" 563 -180 basechar 0
AnchorPoint: "Anchor-1" 1052 1160 basechar 0
AnchorPoint: "Anchor-0" 563 1200 basechar 0
LayerCount: 2
Back
Fore
SplineSet
793 621 m 1,0,1
 795 678 795 678 787.5 718 c 128,-1,2
 780 758 780 758 763.5 784 c 128,-1,3
 747 810 747 810 723 822 c 128,-1,4
 699 834 699 834 668 834 c 0,5,6
 614 834 614 834 556.5 789.5 c 128,-1,7
 499 745 499 745 430 643 c 1,8,-1
 430 0 l 1,9,-1
 180 0 l 1,10,-1
 180 1016 l 1,11,-1
 401 1016 l 1,12,-1
 410 868 l 1,13,14
 435 907 435 907 466.5 938 c 128,-1,15
 498 969 498 969 536.5 991.5 c 128,-1,16
 575 1014 575 1014 622 1026 c 128,-1,17
 669 1038 669 1038 725 1038 c 0,18,19
 802 1038 802 1038 861.5 1011.5 c 128,-1,20
 921 985 921 985 961.5 933 c 128,-1,21
 1002 881 1002 881 1021.5 802.5 c 128,-1,22
 1041 724 1041 724 1038 621 c 1,23,-1
 793 621 l 1,0,1
EndSplineSet
Substitution2: "'ordn' Ordinals in Latin lookup 38 subtable" uni02B3
Substitution2: "'sups' Superscript lookup 34 subtable" uni02B3
AlternateSubs2: "'ss06' Style Set 6 lookup 31 subtable" glyph310
Substitution2: "'ss05' Style Set 5 lookup 30 subtable" r.ss05
Substitution2: "'ss04' Style Set 4 lookup 29 subtable" r.ss04
AlternateSubs2: "'salt' Stylistic Alternatives lookup 23 subtable" r.ss04 r.ss05 glyph310
EndChar
StartChar: s
Encoding: 115 115 149
Width: 1126
GlyphClass: 2
Flags: W
AnchorPoint: "Anchor-11" 0 1700 basechar 0
AnchorPoint: "Anchor-10" 1126 1700 basechar 0
AnchorPoint: "Anchor-9" 640 0 basechar 0
AnchorPoint: "Anchor-8" 563 0 basechar 0
AnchorPoint: "Anchor-7" 780 1000 basechar 0
AnchorPoint: "Anchor-6" 1126 -350 basechar 0
AnchorPoint: "Anchor-5" 1126 1700 basechar 0
AnchorPoint: "Anchor-4" 800 1000 basechar 0
AnchorPoint: "Anchor-2" 563 -180 basechar 0
AnchorPoint: "Anchor-1" 935 1160 basechar 0
AnchorPoint: "Anchor-0" 563 1200 basechar 0
LayerCount: 2
Back
Fore
SplineSet
977 299 m 0,0,1
 977 212 977 212 938.5 150.5 c 128,-1,2
 900 89 900 89 836.5 50.5 c 128,-1,3
 773 12 773 12 692.5 -5.5 c 128,-1,4
 612 -23 612 -23 528 -23 c 0,5,6
 416 -23 416 -23 326 -12.5 c 128,-1,7
 236 -2 236 -2 156 18 c 1,8,-1
 156 238 l 1,9,10
 250 199 250 199 343.5 181.5 c 128,-1,11
 437 164 437 164 520 164 c 0,12,13
 616 164 616 164 663.5 194.5 c 128,-1,14
 711 225 711 225 711 274 c 0,15,16
 711 297 711 297 701 316 c 128,-1,17
 691 335 691 335 663.5 352.5 c 128,-1,18
 636 370 636 370 586 388.5 c 128,-1,19
 536 407 536 407 455 430 c 0,20,21
 380 451 380 451 323.5 477.5 c 128,-1,22
 267 504 267 504 230 540 c 128,-1,23
 193 576 193 576 174.5 623.5 c 128,-1,24
 156 671 156 671 156 735 c 0,25,26
 156 797 156 797 184 852 c 128,-1,27
 212 907 212 907 267.5 948.5 c 128,-1,28
 323 990 323 990 406 1014 c 128,-1,29
 489 1038 489 1038 600 1038 c 0,30,31
 696 1038 696 1038 770 1028 c 128,-1,32
 844 1018 844 1018 901 1006 c 1,33,-1
 901 807 l 1,34,35
 814 835 814 835 737.5 846.5 c 128,-1,36
 661 858 661 858 586 858 c 256,37,38
 511 858 511 858 465.5 831 c 128,-1,39
 420 804 420 804 420 756 c 0,40,41
 420 733 420 733 429 715 c 128,-1,42
 438 697 438 697 464.5 680 c 128,-1,43
 491 663 491 663 538.5 644.5 c 128,-1,44
 586 626 586 626 664 604 c 0,45,46
 752 579 752 579 812 550.5 c 128,-1,47
 872 522 872 522 908.5 486 c 128,-1,48
 945 450 945 450 961 404 c 128,-1,49
 977 358 977 358 977 299 c 0,0,1
EndSplineSet
EndChar
StartChar: t
Encoding: 116 116 150
Width: 1126
GlyphClass: 2
Flags: W
AnchorPoint: "Anchor-11" 0 1700 basechar 0
AnchorPoint: "Anchor-10" 1126 1700 basechar 0
AnchorPoint: "Anchor-9" 780 0 basechar 0
AnchorPoint: "Anchor-8" 680 0 basechar 0
AnchorPoint: "Anchor-7" 850 1000 basechar 0
AnchorPoint: "Anchor-6" 1126 -350 basechar 0
AnchorPoint: "Anchor-5" 1126 1700 basechar 0
AnchorPoint: "Anchor-4" 880 1000 basechar 0
AnchorPoint: "Anchor-2" 563 -180 basechar 0
AnchorPoint: "Anchor-1" 969 1400 basechar 0
AnchorPoint: "Anchor-0" 433 1450 basechar 0
LayerCount: 2
Back
Fore
SplineSet
977 10 m 1,0,1
 911 -5 911 -5 844 -14 c 128,-1,2
 777 -23 777 -23 717 -23 c 0,3,4
 617 -23 617 -23 544.5 -2 c 128,-1,5
 472 19 472 19 424.5 62 c 128,-1,6
 377 105 377 105 354.5 171.5 c 128,-1,7
 332 238 332 238 332 330 c 2,8,-1
 332 826 l 1,9,-1
 59 826 l 1,10,-1
 59 1016 l 1,11,-1
 332 1016 l 1,12,-1
 332 1276 l 1,13,-1
 582 1341 l 1,14,-1
 582 1016 l 1,15,-1
 977 1016 l 1,16,-1
 977 826 l 1,17,-1
 582 826 l 1,18,-1
 582 348 l 2,19,20
 582 261 582 261 622 216.5 c 128,-1,21
 662 172 662 172 756 172 c 0,22,23
 816 172 816 172 873 182 c 128,-1,24
 930 192 930 192 977 205 c 1,25,-1
 977 10 l 1,0,1
EndSplineSet
Substitution2: "'ordn' Ordinals in Latin lookup 38 subtable" uni1D57
Substitution2: "'sups' Superscript lookup 34 subtable" uni1D57
EndChar
StartChar: u
Encoding: 117 117 151
Width: 1126
GlyphClass: 2
Flags: W
AnchorPoint: "Anchor-11" 0 1700 basechar 0
AnchorPoint: "Anchor-10" 1126 1700 basechar 0
AnchorPoint: "Anchor-9" 900 0 basechar 0
AnchorPoint: "Anchor-8" 480 0 basechar 0
AnchorPoint: "Anchor-7" 870 1000 basechar 0
AnchorPoint: "Anchor-6" 1126 -350 basechar 0
AnchorPoint: "Anchor-5" 1126 1700 basechar 0
AnchorPoint: "Anchor-4" 880 1000 basechar 0
AnchorPoint: "Anchor-2" 563 -180 basechar 0
AnchorPoint: "Anchor-1" 1017 1160 basechar 0
AnchorPoint: "Anchor-0" 563 1200 basechar 0
LayerCount: 2
Back
Fore
SplineSet
381 1016 m 1,0,-1
 381 354 l 2,1,2
 381 271 381 271 412 228.5 c 128,-1,3
 443 186 443 186 506 186 c 0,4,5
 567 186 567 186 623.5 236.5 c 128,-1,6
 680 287 680 287 743 373 c 1,7,-1
 743 1016 l 1,8,-1
 987 1016 l 1,9,-1
 987 0 l 1,10,-1
 776 0 l 1,11,-1
 770 150 l 1,12,13
 738 111 738 111 705 79 c 128,-1,14
 672 47 672 47 633.5 24.5 c 128,-1,15
 595 2 595 2 549.5 -10.5 c 128,-1,16
 504 -23 504 -23 449 -23 c 0,17,18
 371 -23 371 -23 312.5 2.5 c 128,-1,19
 254 28 254 28 215 75 c 128,-1,20
 176 122 176 122 156.5 187.5 c 128,-1,21
 137 253 137 253 137 334 c 2,22,-1
 137 1016 l 1,23,-1
 381 1016 l 1,0,-1
EndSplineSet
Substitution2: "'ordn' Ordinals in Latin lookup 38 subtable" uni1D58
Substitution2: "'sups' Superscript lookup 34 subtable" uni1D58
EndChar
StartChar: v
Encoding: 118 118 152
Width: 1126
GlyphClass: 2
Flags: W
AnchorPoint: "Anchor-11" 0 1700 basechar 0
AnchorPoint: "Anchor-10" 1126 1700 basechar 0
AnchorPoint: "Anchor-9" 630 0 basechar 0
AnchorPoint: "Anchor-7" 920 1000 basechar 0
AnchorPoint: "Anchor-6" 1126 -350 basechar 0
AnchorPoint: "Anchor-5" 1126 1700 basechar 0
AnchorPoint: "Anchor-4" 930 1000 basechar 0
AnchorPoint: "Anchor-2" 563 -180 basechar 0
AnchorPoint: "Anchor-1" 1133 1160 basechar 0
AnchorPoint: "Anchor-0" 563 1200 basechar 0
LayerCount: 2
Back
Fore
SplineSet
707 0 m 1,0,-1
 426 0 l 1,1,-1
 23 1016 l 1,2,-1
 295 1016 l 1,3,-1
 506 440 l 1,4,-1
 569 254 l 1,5,-1
 631 432 l 1,6,-1
 844 1016 l 1,7,-1
 1106 1016 l 1,8,-1
 707 0 l 1,0,-1
EndSplineSet
Substitution2: "'ordn' Ordinals in Latin lookup 38 subtable" uni1D5B
Substitution2: "'sups' Superscript lookup 34 subtable" uni1D5B
EndChar
StartChar: w
Encoding: 119 119 153
Width: 1126
GlyphClass: 2
Flags: W
AnchorPoint: "Anchor-11" 0 1700 basechar 0
AnchorPoint: "Anchor-10" 1126 1700 basechar 0
AnchorPoint: "Anchor-9" 900 0 basechar 0
AnchorPoint: "Anchor-7" 980 1000 basechar 0
AnchorPoint: "Anchor-6" 1126 -350 basechar 0
AnchorPoint: "Anchor-5" 1126 1700 basechar 0
AnchorPoint: "Anchor-4" 980 1000 basechar 0
AnchorPoint: "Anchor-2" 563 -180 basechar 0
AnchorPoint: "Anchor-1" 1140 1160 basechar 0
AnchorPoint: "Anchor-0" 563 1200 basechar 0
LayerCount: 2
Back
Fore
SplineSet
973 0 m 1,0,-1
 702 0 l 1,1,-1
 594 322 l 1,2,-1
 561 434 l 1,3,-1
 528 319 l 1,4,-1
 424 0 l 1,5,-1
 152 0 l 1,6,-1
 8 1016 l 1,7,-1
 240 1016 l 1,8,-1
 313 442 l 1,9,-1
 330 285 l 1,10,-1
 371 426 l 1,11,-1
 473 735 l 1,12,-1
 659 735 l 1,13,-1
 768 428 l 1,14,-1
 815 283 l 1,15,-1
 834 444 l 1,16,-1
 895 1016 l 1,17,-1
 1116 1016 l 1,18,-1
 973 0 l 1,0,-1
EndSplineSet
Substitution2: "'ordn' Ordinals in Latin lookup 38 subtable" uni02B7
Substitution2: "'sups' Superscript lookup 34 subtable" uni02B7
EndChar
StartChar: x
Encoding: 120 120 154
Width: 1126
GlyphClass: 2
Flags: W
AnchorPoint: "Anchor-11" 0 1700 basechar 0
AnchorPoint: "Anchor-10" 1126 1700 basechar 0
AnchorPoint: "Anchor-9" 1000 0 basechar 0
AnchorPoint: "Anchor-7" 860 1000 basechar 0
AnchorPoint: "Anchor-6" 1126 -350 basechar 0
AnchorPoint: "Anchor-5" 1126 1700 basechar 0
AnchorPoint: "Anchor-4" 850 1000 basechar 0
AnchorPoint: "Anchor-2" 563 -180 basechar 0
AnchorPoint: "Anchor-1" 1095 1160 basechar 0
AnchorPoint: "Anchor-0" 563 1200 basechar 0
LayerCount: 2
Back
Fore
SplineSet
793 0 m 1,0,-1
 561 342 l 1,1,-1
 328 0 l 1,2,-1
 33 0 l 1,3,-1
 414 512 l 1,4,-1
 53 1016 l 1,5,-1
 350 1016 l 1,6,-1
 578 682 l 1,7,-1
 803 1016 l 1,8,-1
 1077 1016 l 1,9,-1
 727 514 l 1,10,-1
 1096 0 l 1,11,-1
 793 0 l 1,0,-1
EndSplineSet
EndChar
StartChar: y
Encoding: 121 121 155
Width: 1126
GlyphClass: 2
Flags: W
AnchorPoint: "Anchor-11" 0 1700 basechar 0
AnchorPoint: "Anchor-10" 1126 1700 basechar 0
AnchorPoint: "Anchor-9" 360 -350 basechar 0
AnchorPoint: "Anchor-7" 920 1000 basechar 0
AnchorPoint: "Anchor-6" 1126 -350 basechar 0
AnchorPoint: "Anchor-5" 1126 1700 basechar 0
AnchorPoint: "Anchor-4" 930 1000 basechar 0
AnchorPoint: "Anchor-2" 563 -500 basechar 0
AnchorPoint: "Anchor-1" 1103 1160 basechar 0
AnchorPoint: "Anchor-0" 563 1200 basechar 0
LayerCount: 2
Back
Fore
SplineSet
750 111 m 2,0,1
 697 -21 697 -21 639.5 -120.5 c 128,-1,2
 582 -220 582 -220 513 -286.5 c 128,-1,3
 444 -353 444 -353 359.5 -386.5 c 128,-1,4
 275 -420 275 -420 170 -420 c 0,5,6
 145 -420 145 -420 115.5 -417.5 c 128,-1,7
 86 -415 86 -415 55 -410 c 1,8,-1
 55 -203 l 1,9,10
 67 -205 67 -205 82.5 -207.5 c 128,-1,11
 98 -210 98 -210 115 -211.5 c 128,-1,12
 132 -213 132 -213 149.5 -214 c 128,-1,13
 167 -215 167 -215 182 -215 c 0,14,15
 224 -215 224 -215 260 -199 c 128,-1,16
 296 -183 296 -183 326.5 -154.5 c 128,-1,17
 357 -126 357 -126 382 -86.5 c 128,-1,18
 407 -47 407 -47 426 0 c 1,19,-1
 23 1016 l 1,20,-1
 295 1016 l 1,21,-1
 506 440 l 1,22,-1
 569 254 l 1,23,-1
 631 432 l 1,24,-1
 844 1016 l 1,25,-1
 1106 1016 l 1,26,-1
 750 111 l 2,0,1
EndSplineSet
Substitution2: "'ordn' Ordinals in Latin lookup 38 subtable" uni02B8
Substitution2: "'sups' Superscript lookup 34 subtable" uni02B8
EndChar
StartChar: z
Encoding: 122 122 156
Width: 1126
GlyphClass: 2
Flags: W
AnchorPoint: "Anchor-11" 0 1700 basechar 0
AnchorPoint: "Anchor-10" 1126 1700 basechar 0
AnchorPoint: "Anchor-9" 900 0 basechar 0
AnchorPoint: "Anchor-7" 840 1000 basechar 0
AnchorPoint: "Anchor-6" 1126 -350 basechar 0
AnchorPoint: "Anchor-5" 1126 1700 basechar 0
AnchorPoint: "Anchor-4" 860 1000 basechar 0
AnchorPoint: "Anchor-2" 563 -180 basechar 0
AnchorPoint: "Anchor-1" 1013 1160 basechar 0
AnchorPoint: "Anchor-0" 563 1200 basechar 0
LayerCount: 2
Back
Fore
SplineSet
150 0 m 1,0,-1
 150 170 l 1,1,-1
 647 807 l 1,2,-1
 162 807 l 1,3,-1
 162 1016 l 1,4,-1
 969 1016 l 1,5,-1
 969 844 l 1,6,-1
 483 215 l 1,7,-1
 977 215 l 1,8,-1
 977 0 l 1,9,-1
 150 0 l 1,0,-1
EndSplineSet
Substitution2: "'ordn' Ordinals in Latin lookup 38 subtable" uni1DBB
Substitution2: "'sups' Superscript lookup 34 subtable" uni1DBB
EndChar
StartChar: braceleft
Encoding: 123 123 391
Width: 1126
Flags: W
LayerCount: 2
Back
Fore
SplineSet
825 -397 m 2,0,1
 618 -397 618 -397 516 -297.5 c 128,-1,2
 414 -198 414 -198 414 18 c 2,3,-1
 414 272 l 2,4,5
 414 375 414 375 368 427 c 128,-1,6
 322 479 322 479 215 479 c 2,7,-1
 152 479 l 1,8,-1
 152 668 l 1,9,-1
 215 668 l 2,10,11
 269 668 269 668 307 679.5 c 128,-1,12
 345 691 345 691 369 715 c 128,-1,13
 393 739 393 739 403.5 776.5 c 128,-1,14
 414 814 414 814 414 866 c 2,15,-1
 414 1042 l 2,16,17
 414 1145 414 1145 437.5 1223 c 128,-1,18
 461 1301 461 1301 511 1353 c 128,-1,19
 561 1405 561 1405 638.5 1431.5 c 128,-1,20
 716 1458 716 1458 825 1458 c 2,21,-1
 909 1458 l 1,22,-1
 909 1270 l 1,23,-1
 846 1270 l 2,24,25
 798 1270 798 1270 759.5 1258.5 c 128,-1,26
 721 1247 721 1247 693 1221 c 128,-1,27
 665 1195 665 1195 650 1152.5 c 128,-1,28
 635 1110 635 1110 635 1047 c 2,29,-1
 635 872 l 2,30,31
 635 797 635 797 622.5 744 c 128,-1,32
 610 691 610 691 584 655.5 c 128,-1,33
 558 620 558 620 518 600.5 c 128,-1,34
 478 581 478 581 424 573 c 1,35,36
 531 561 531 561 583 489.5 c 128,-1,37
 635 418 635 418 635 270 c 2,38,-1
 635 16 l 2,39,40
 635 -49 635 -49 650 -92 c 128,-1,41
 665 -135 665 -135 693 -161 c 128,-1,42
 721 -187 721 -187 759.5 -198 c 128,-1,43
 798 -209 798 -209 846 -209 c 2,44,-1
 909 -209 l 1,45,-1
 909 -397 l 1,46,-1
 825 -397 l 2,0,1
EndSplineSet
Substitution2: "'case' Case-Sensitive Forms lookup 0 subtable" braceleft.case
EndChar
StartChar: bar
Encoding: 124 124 374
Width: 1126
Flags: W
LayerCount: 2
Back
Fore
SplineSet
451 -410 m 1,0,-1
 451 1638 l 1,1,-1
 676 1638 l 1,2,-1
 676 -410 l 1,3,-1
 451 -410 l 1,0,-1
EndSplineSet
EndChar
StartChar: braceright
Encoding: 125 125 392
Width: 1126
Flags: W
LayerCount: 2
Back
Fore
SplineSet
301 1458 m 2,0,1
 509 1458 509 1458 611 1358.5 c 128,-1,2
 713 1259 713 1259 713 1042 c 2,3,-1
 713 874 l 2,4,5
 713 771 713 771 758.5 719.5 c 128,-1,6
 804 668 804 668 911 668 c 2,7,-1
 975 668 l 1,8,-1
 975 479 l 1,9,-1
 911 479 l 2,10,11
 857 479 857 479 819 467.5 c 128,-1,12
 781 456 781 456 757.5 432 c 128,-1,13
 734 408 734 408 723.5 370.5 c 128,-1,14
 713 333 713 333 713 281 c 2,15,-1
 713 18 l 2,16,17
 713 -85 713 -85 689.5 -162.5 c 128,-1,18
 666 -240 666 -240 616 -292 c 128,-1,19
 566 -344 566 -344 488 -370.5 c 128,-1,20
 410 -397 410 -397 301 -397 c 2,21,-1
 217 -397 l 1,22,-1
 217 -209 l 1,23,-1
 281 -209 l 2,24,25
 329 -209 329 -209 367.5 -198 c 128,-1,26
 406 -187 406 -187 434 -160.5 c 128,-1,27
 462 -134 462 -134 477 -91.5 c 128,-1,28
 492 -49 492 -49 492 14 c 2,29,-1
 492 274 l 2,30,31
 492 349 492 349 504.5 402.5 c 128,-1,32
 517 456 517 456 542.5 491.5 c 128,-1,33
 568 527 568 527 608 546 c 128,-1,34
 648 565 648 565 702 573 c 1,35,36
 595 586 595 586 543.5 657.5 c 128,-1,37
 492 729 492 729 492 877 c 2,38,-1
 492 1044 l 2,39,40
 492 1109 492 1109 477 1152.5 c 128,-1,41
 462 1196 462 1196 434 1222 c 128,-1,42
 406 1248 406 1248 367.5 1259 c 128,-1,43
 329 1270 329 1270 281 1270 c 2,44,-1
 217 1270 l 1,45,-1
 217 1458 l 1,46,-1
 301 1458 l 2,0,1
EndSplineSet
Substitution2: "'case' Case-Sensitive Forms lookup 0 subtable" braceright.case
EndChar
StartChar: asciitilde
Encoding: 126 126 588
Width: 1126
Flags: W
LayerCount: 2
Back
Fore
SplineSet
1079 709 m 1,0,1
 1079 631 1079 631 1063 560.5 c 128,-1,2
 1047 490 1047 490 1011 436.5 c 128,-1,3
 975 383 975 383 916.5 352 c 128,-1,4
 858 321 858 321 774 321 c 0,5,6
 718 321 718 321 672.5 339.5 c 128,-1,7
 627 358 627 358 589.5 385.5 c 128,-1,8
 552 413 552 413 520.5 445.5 c 128,-1,9
 489 478 489 478 460 505 c 128,-1,10
 431 532 431 532 403 550.5 c 128,-1,11
 375 569 375 569 344 569 c 0,12,13
 300 569 300 569 276 530 c 128,-1,14
 252 491 252 491 252 393 c 1,15,-1
 47 393 l 1,16,17
 47 471 47 471 63 541.5 c 128,-1,18
 79 612 79 612 115 665 c 128,-1,19
 151 718 151 718 209.5 749 c 128,-1,20
 268 780 268 780 352 780 c 0,21,22
 408 780 408 780 453.5 761.5 c 128,-1,23
 499 743 499 743 536.5 715.5 c 128,-1,24
 574 688 574 688 605.5 656 c 128,-1,25
 637 624 637 624 666 596.5 c 128,-1,26
 695 569 695 569 723 550.5 c 128,-1,27
 751 532 751 532 782 532 c 0,28,29
 827 532 827 532 850.5 571.5 c 128,-1,30
 874 611 874 611 874 709 c 1,31,-1
 1079 709 l 1,0,1
EndSplineSet
EndChar
StartChar: exclamdown
Encoding: 161 161 353
Width: 1126
Flags: W
LayerCount: 2
Back
Fore
SplineSet
459 610 m 1,0,-1
 668 610 l 1,1,-1
 705 -397 l 1,2,-1
 422 -397 l 1,3,-1
 459 610 l 1,0,-1
563 727 m 256,4,5
 531 727 531 727 502.5 739 c 128,-1,6
 474 751 474 751 453 772 c 128,-1,7
 432 793 432 793 420 821.5 c 128,-1,8
 408 850 408 850 408 883 c 256,9,10
 408 916 408 916 420 944.5 c 128,-1,11
 432 973 432 973 453 993.5 c 128,-1,12
 474 1014 474 1014 502.5 1026 c 128,-1,13
 531 1038 531 1038 563 1038 c 256,14,15
 595 1038 595 1038 623.5 1026 c 128,-1,16
 652 1014 652 1014 673 993.5 c 128,-1,17
 694 973 694 973 706.5 944.5 c 128,-1,18
 719 916 719 916 719 883 c 256,19,20
 719 850 719 850 706.5 821.5 c 128,-1,21
 694 793 694 793 673 772 c 128,-1,22
 652 751 652 751 623.5 739 c 128,-1,23
 595 727 595 727 563 727 c 256,4,5
EndSplineSet
Substitution2: "'case' Case-Sensitive Forms lookup 0 subtable" exclamdown.case
EndChar
StartChar: cent
Encoding: 162 162 605
Width: 1126
Flags: W
LayerCount: 2
Back
Fore
SplineSet
610 -250 m 1,0,-1
 436 -250 l 1,1,-1
 494 170 l 1,2,3
 312 201 312 201 212.5 321 c 128,-1,4
 113 441 113 441 113 653 c 0,5,6
 113 771 113 771 149 866 c 128,-1,7
 185 961 185 961 252 1028 c 128,-1,8
 319 1095 319 1095 413.5 1131 c 128,-1,9
 508 1167 508 1167 625 1169 c 1,10,-1
 668 1495 l 1,11,-1
 842 1495 l 1,12,-1
 799 1161 l 1,13,14
 833 1156 833 1156 862.5 1150 c 128,-1,15
 892 1144 892 1144 918 1135 c 1,16,-1
 918 903 l 1,17,18
 850 939 850 939 772 954 c 1,19,-1
 692 371 l 1,20,21
 751 374 751 374 811 391 c 128,-1,22
 871 408 871 408 922 430 c 1,23,-1
 922 217 l 1,24,25
 862 191 862 191 798 178.5 c 128,-1,26
 734 166 734 166 666 164 c 1,27,-1
 610 -250 l 1,0,-1
598 963 m 1,28,29
 487 949 487 949 428 871 c 128,-1,30
 369 793 369 793 369 668 c 0,31,32
 369 562 369 562 408.5 490 c 128,-1,33
 448 418 448 418 522 393 c 1,34,-1
 598 963 l 1,28,29
EndSplineSet
EndChar
StartChar: sterling
Encoding: 163 163 606
Width: 1126
Flags: W
LayerCount: 2
Back
Fore
SplineSet
879 737 m 1,0,-1
 879 555 l 1,1,-1
 473 555 l 1,2,-1
 473 209 l 1,3,-1
 1012 209 l 1,4,-1
 1012 0 l 1,5,-1
 76 0 l 1,6,-1
 76 209 l 1,7,-1
 233 209 l 1,8,-1
 233 555 l 1,9,-1
 76 555 l 1,10,-1
 76 737 l 1,11,-1
 233 737 l 1,12,-1
 233 895 l 2,13,14
 233 1000 233 1000 262.5 1081 c 128,-1,15
 292 1162 292 1162 348 1217 c 128,-1,16
 404 1272 404 1272 484 1300.5 c 128,-1,17
 564 1329 564 1329 666 1329 c 0,18,19
 780 1329 780 1329 875 1291 c 128,-1,20
 970 1253 970 1253 1030 1184 c 1,21,-1
 899 1034 l 1,22,23
 876 1058 876 1058 849 1076.5 c 128,-1,24
 822 1095 822 1095 793.5 1107.5 c 128,-1,25
 765 1120 765 1120 736 1126.5 c 128,-1,26
 707 1133 707 1133 682 1133 c 0,27,28
 582 1133 582 1133 527.5 1075.5 c 128,-1,29
 473 1018 473 1018 473 903 c 2,30,-1
 473 737 l 1,31,-1
 879 737 l 1,0,-1
EndSplineSet
EndChar
StartChar: currency
Encoding: 164 164 601
Width: 1126
Flags: W
LayerCount: 2
Back
Fore
SplineSet
719 258 m 1,0,1
 684 244 684 244 642.5 236.5 c 128,-1,2
 601 229 601 229 555 229 c 0,3,4
 512 229 512 229 473 235 c 128,-1,5
 434 241 434 241 399 252 c 1,6,-1
 244 25 l 1,7,-1
 41 137 l 1,8,-1
 231 383 l 1,9,10
 164 484 164 484 164 657 c 0,11,12
 164 816 164 816 233 926 c 1,13,-1
 41 1182 l 1,14,-1
 248 1296 l 1,15,-1
 408 1065 l 1,16,17
 445 1079 445 1079 485 1086.5 c 128,-1,18
 525 1094 525 1094 571 1094 c 0,19,20
 615 1094 615 1094 653.5 1087.5 c 128,-1,21
 692 1081 692 1081 727 1069 c 1,22,-1
 883 1296 l 1,23,-1
 1085 1184 l 1,24,-1
 897 936 l 1,25,26
 929 885 929 885 946 819 c 128,-1,27
 963 753 963 753 963 668 c 0,28,29
 963 508 963 508 891 395 c 1,30,-1
 1085 139 l 1,31,-1
 879 25 l 1,32,-1
 719 258 l 1,0,1
739 664 m 0,33,34
 739 899 739 899 565 899 c 0,35,36
 517 899 517 899 483.5 880.5 c 128,-1,37
 450 862 450 862 428.5 829.5 c 128,-1,38
 407 797 407 797 397 754 c 128,-1,39
 387 711 387 711 387 662 c 0,40,41
 387 543 387 543 434.5 483.5 c 128,-1,42
 482 424 482 424 565 424 c 0,43,44
 610 424 610 424 643 442 c 128,-1,45
 676 460 676 460 697.5 492 c 128,-1,46
 719 524 719 524 729 568 c 128,-1,47
 739 612 739 612 739 664 c 0,33,34
EndSplineSet
EndChar
StartChar: yen
Encoding: 165 165 608
Width: 1126
Flags: W
LayerCount: 2
Back
Fore
SplineSet
684 608 m 1,0,-1
 684 580 l 1,1,-1
 975 580 l 1,2,-1
 975 426 l 1,3,-1
 684 426 l 1,4,-1
 684 289 l 1,5,-1
 975 289 l 1,6,-1
 975 135 l 1,7,-1
 684 135 l 1,8,-1
 684 0 l 1,9,-1
 442 0 l 1,10,-1
 442 135 l 1,11,-1
 150 135 l 1,12,-1
 150 289 l 1,13,-1
 442 289 l 1,14,-1
 442 426 l 1,15,-1
 150 426 l 1,16,-1
 150 580 l 1,17,-1
 442 580 l 1,18,-1
 442 608 l 1,19,-1
 39 1307 l 1,20,-1
 313 1307 l 1,21,-1
 479 1004 l 1,22,-1
 571 823 l 1,23,-1
 659 995 l 1,24,-1
 825 1307 l 1,25,-1
 1092 1307 l 1,26,-1
 684 608 l 1,0,-1
EndSplineSet
EndChar
StartChar: brokenbar
Encoding: 166 166 589
Width: 1126
Flags: W
LayerCount: 2
Back
Fore
SplineSet
451 807 m 1,0,-1
 451 1638 l 1,1,-1
 676 1638 l 1,2,-1
 676 807 l 1,3,-1
 451 807 l 1,0,-1
451 -410 m 1,4,-1
 451 446 l 1,5,-1
 676 446 l 1,6,-1
 676 -410 l 1,7,-1
 451 -410 l 1,4,-1
EndSplineSet
EndChar
StartChar: section
Encoding: 167 167 398
Width: 1126
Flags: W
LayerCount: 2
Back
Fore
SplineSet
872 227 m 1,0,1
 892 203 892 203 903.5 168 c 128,-1,2
 915 133 915 133 915 88 c 0,3,4
 915 0 915 0 877 -61.5 c 128,-1,5
 839 -123 839 -123 777 -162 c 128,-1,6
 715 -201 715 -201 636 -218.5 c 128,-1,7
 557 -236 557 -236 475 -236 c 0,8,9
 366 -236 366 -236 277.5 -225.5 c 128,-1,10
 189 -215 189 -215 111 -195 c 1,11,-1
 111 18 l 1,12,13
 203 -19 203 -19 294.5 -34 c 128,-1,14
 386 -49 386 -49 467 -49 c 0,15,16
 561 -49 561 -49 608 -18 c 128,-1,17
 655 13 655 13 655 61 c 0,18,19
 655 95 655 95 630.5 123.5 c 128,-1,20
 606 152 606 152 566.5 179.5 c 128,-1,21
 527 207 527 207 476 234.5 c 128,-1,22
 425 262 425 262 372.5 293 c 128,-1,23
 320 324 320 324 269 361 c 128,-1,24
 218 398 218 398 178.5 443.5 c 128,-1,25
 139 489 139 489 114.5 545.5 c 128,-1,26
 90 602 90 602 90 672 c 0,27,28
 90 712 90 712 101.5 753.5 c 128,-1,29
 113 795 113 795 135.5 834.5 c 128,-1,30
 158 874 158 874 192 909 c 128,-1,31
 226 944 226 944 270 971 c 1,32,33
 249 1005 249 1005 236 1042.5 c 128,-1,34
 223 1080 223 1080 223 1126 c 0,35,36
 223 1190 223 1190 250.5 1245.5 c 128,-1,37
 278 1301 278 1301 333 1342.5 c 128,-1,38
 388 1384 388 1384 469.5 1408 c 128,-1,39
 551 1432 551 1432 659 1432 c 0,40,41
 752 1432 752 1432 824.5 1421.5 c 128,-1,42
 897 1411 897 1411 954 1399 c 1,43,-1
 954 1198 l 1,44,45
 869 1224 869 1224 794 1235.5 c 128,-1,46
 719 1247 719 1247 645 1247 c 0,47,48
 573 1247 573 1247 527 1221.5 c 128,-1,49
 481 1196 481 1196 481 1147 c 0,50,51
 481 1115 481 1115 505.5 1086.5 c 128,-1,52
 530 1058 530 1058 570 1031 c 128,-1,53
 610 1004 610 1004 661 976 c 128,-1,54
 712 948 712 948 765 916 c 128,-1,55
 818 884 818 884 869 847 c 128,-1,56
 920 810 920 810 960 764 c 128,-1,57
 1000 718 1000 718 1024.5 662 c 128,-1,58
 1049 606 1049 606 1049 537 c 0,59,60
 1049 487 1049 487 1036 442 c 128,-1,61
 1023 397 1023 397 999.5 358 c 128,-1,62
 976 319 976 319 943.5 286 c 128,-1,63
 911 253 911 253 872 227 c 1,0,1
723 375 m 1,64,65
 755 403 755 403 771.5 440 c 128,-1,66
 788 477 788 477 788 512 c 0,67,68
 788 562 788 562 754 603 c 128,-1,69
 720 644 720 644 667.5 681 c 128,-1,70
 615 718 615 718 550 754 c 128,-1,71
 485 790 485 790 424 831 c 1,72,73
 407 819 407 819 393.5 802.5 c 128,-1,74
 380 786 380 786 370 768 c 128,-1,75
 360 750 360 750 355 731 c 128,-1,76
 350 712 350 712 350 694 c 0,77,78
 350 643 350 643 385 603 c 128,-1,79
 420 563 420 563 474.5 526 c 128,-1,80
 529 489 529 489 595 453 c 128,-1,81
 661 417 661 417 723 375 c 1,64,65
EndSplineSet
EndChar
StartChar: dieresis
Encoding: 168 168 327
Width: 1126
Flags: W
LayerCount: 2
Back
Fore
SplineSet
491 1292 m 256,0,1
 491 1264 491 1264 480 1239 c 128,-1,2
 469 1214 469 1214 451 1195.5 c 128,-1,3
 433 1177 433 1177 407.5 1166 c 128,-1,4
 382 1155 382 1155 354 1155 c 256,5,6
 326 1155 326 1155 301 1166 c 128,-1,7
 276 1177 276 1177 257.5 1195.5 c 128,-1,8
 239 1214 239 1214 228 1239 c 128,-1,9
 217 1264 217 1264 217 1292 c 256,10,11
 217 1320 217 1320 228 1345.5 c 128,-1,12
 239 1371 239 1371 257.5 1389.5 c 128,-1,13
 276 1408 276 1408 301 1419 c 128,-1,14
 326 1430 326 1430 354 1430 c 256,15,16
 382 1430 382 1430 407.5 1419 c 128,-1,17
 433 1408 433 1408 451 1389.5 c 128,-1,18
 469 1371 469 1371 480 1345.5 c 128,-1,19
 491 1320 491 1320 491 1292 c 256,0,1
909 1292 m 256,20,21
 909 1264 909 1264 898.5 1239 c 128,-1,22
 888 1214 888 1214 869 1195.5 c 128,-1,23
 850 1177 850 1177 825 1166 c 128,-1,24
 800 1155 800 1155 772 1155 c 0,25,26
 743 1155 743 1155 718.5 1166 c 128,-1,27
 694 1177 694 1177 675 1195.5 c 128,-1,28
 656 1214 656 1214 645.5 1239 c 128,-1,29
 635 1264 635 1264 635 1292 c 256,30,31
 635 1320 635 1320 645.5 1345.5 c 128,-1,32
 656 1371 656 1371 675 1389.5 c 128,-1,33
 694 1408 694 1408 718.5 1419 c 128,-1,34
 743 1430 743 1430 772 1430 c 0,35,36
 800 1430 800 1430 825 1419 c 128,-1,37
 850 1408 850 1408 869 1389.5 c 128,-1,38
 888 1371 888 1371 898.5 1345.5 c 128,-1,39
 909 1320 909 1320 909 1292 c 256,20,21
0 1016 m 1024,40,-1
EndSplineSet
EndChar
StartChar: copyright
Encoding: 169 169 596
Width: 1126
Flags: W
LayerCount: 2
Back
Fore
SplineSet
563 1329 m 256,0,1
 689 1329 689 1329 790.5 1276 c 128,-1,2
 892 1223 892 1223 963 1131 c 128,-1,3
 1034 1039 1034 1039 1072 916 c 128,-1,4
 1110 793 1110 793 1110 653 c 256,5,6
 1110 513 1110 513 1072 390 c 128,-1,7
 1034 267 1034 267 963 175.5 c 128,-1,8
 892 84 892 84 790.5 30.5 c 128,-1,9
 689 -23 689 -23 563 -23 c 0,10,11
 431 -23 431 -23 329.5 27 c 128,-1,12
 228 77 228 77 158 166.5 c 128,-1,13
 88 256 88 256 52 380 c 128,-1,14
 16 504 16 504 16 651 c 0,15,16
 16 791 16 791 54 914.5 c 128,-1,17
 92 1038 92 1038 163 1130 c 128,-1,18
 234 1222 234 1222 335.5 1275.5 c 128,-1,19
 437 1329 437 1329 563 1329 c 256,0,1
562 1173 m 0,20,21
 469 1173 469 1173 399 1131.5 c 128,-1,22
 329 1090 329 1090 281.5 1019.5 c 128,-1,23
 234 949 234 949 210 854.5 c 128,-1,24
 186 760 186 760 186 653 c 0,25,26
 186 547 186 547 210 452.5 c 128,-1,27
 234 358 234 358 281.5 287 c 128,-1,28
 329 216 329 216 399 174.5 c 128,-1,29
 469 133 469 133 562 133 c 0,30,31
 656 133 656 133 726.5 174 c 128,-1,32
 797 215 797 215 844.5 286 c 128,-1,33
 892 357 892 357 916 451 c 128,-1,34
 940 545 940 545 940 651 c 256,35,36
 940 757 940 757 916 852 c 128,-1,37
 892 947 892 947 844.5 1018 c 128,-1,38
 797 1089 797 1089 726.5 1131 c 128,-1,39
 656 1173 656 1173 562 1173 c 0,20,21
759 324 m 1,40,41
 725 314 725 314 689 309.5 c 128,-1,42
 653 305 653 305 620 305 c 0,43,44
 545 305 545 305 488.5 328.5 c 128,-1,45
 432 352 432 352 394 395.5 c 128,-1,46
 356 439 356 439 337 502 c 128,-1,47
 318 565 318 565 318 642 c 0,48,49
 318 714 318 714 336.5 779.5 c 128,-1,50
 355 845 355 845 394 894 c 128,-1,51
 433 943 433 943 496 972.5 c 128,-1,52
 559 1002 559 1002 646 1002 c 0,53,54
 710 1002 710 1002 759 990 c 1,55,-1
 759 815 l 1,56,57
 713 834 713 834 662 834 c 0,58,59
 622 834 622 834 597 821 c 128,-1,60
 572 808 572 808 555 784.5 c 128,-1,61
 538 761 538 761 531 726 c 128,-1,62
 524 691 524 691 524 647 c 0,63,64
 524 562 524 562 554.5 519 c 128,-1,65
 585 476 585 476 652 476 c 0,66,67
 676 476 676 476 704.5 482.5 c 128,-1,68
 733 489 733 489 759 498 c 1,69,-1
 759 324 l 1,40,41
EndSplineSet
EndChar
StartChar: ordfeminine
Encoding: 170 170 609
Width: 1126
Flags: W
LayerCount: 2
Back
Fore
SplineSet
909 338 m 1,0,-1
 217 338 l 1,1,-1
 217 506 l 1,2,-1
 909 506 l 1,3,-1
 909 338 l 1,0,-1
688 631 m 1,4,-1
 674 705 l 1,5,6
 634 664 634 664 579 640 c 128,-1,7
 524 616 524 616 440 616 c 0,8,9
 396 616 396 616 356 627.5 c 128,-1,10
 316 639 316 639 285.5 664 c 128,-1,11
 255 689 255 689 237 728.5 c 128,-1,12
 219 768 219 768 219 825 c 0,13,14
 219 873 219 873 241.5 913 c 128,-1,15
 264 953 264 953 309 982 c 128,-1,16
 354 1011 354 1011 422 1027.5 c 128,-1,17
 490 1044 490 1044 582 1044 c 2,18,-1
 653 1044 l 1,19,-1
 653 1087 l 2,20,21
 653 1109 653 1109 646.5 1127 c 128,-1,22
 640 1145 640 1145 624 1158 c 128,-1,23
 608 1171 608 1171 580 1177.5 c 128,-1,24
 552 1184 552 1184 510 1184 c 0,25,26
 488 1184 488 1184 459 1180.5 c 128,-1,27
 430 1177 430 1177 398.5 1170 c 128,-1,28
 367 1163 367 1163 334.5 1153 c 128,-1,29
 302 1143 302 1143 272 1130 c 1,30,-1
 272 1286 l 1,31,32
 329 1306 329 1306 394.5 1317.5 c 128,-1,33
 460 1329 460 1329 535 1329 c 0,34,35
 627 1329 627 1329 687.5 1310.5 c 128,-1,36
 748 1292 748 1292 783.5 1260.5 c 128,-1,37
 819 1229 819 1229 833.5 1186 c 128,-1,38
 848 1143 848 1143 848 1094 c 2,39,-1
 848 631 l 1,40,-1
 688 631 l 1,4,-1
653 922 m 1,41,-1
 569 922 l 2,42,43
 528 922 528 922 500.5 914 c 128,-1,44
 473 906 473 906 456.5 892.5 c 128,-1,45
 440 879 440 879 433 862.5 c 128,-1,46
 426 846 426 846 426 829 c 0,47,48
 426 788 426 788 452.5 773 c 128,-1,49
 479 758 479 758 522 758 c 0,50,51
 585 758 585 758 653 823 c 1,52,-1
 653 922 l 1,41,-1
EndSplineSet
EndChar
StartChar: guillemotleft
Encoding: 171 171 369
Width: 1126
Flags: W
LayerCount: 2
Back
Fore
SplineSet
350 543 m 1,0,-1
 567 221 l 1,1,-1
 379 129 l 1,2,-1
 115 543 l 1,3,-1
 385 956 l 1,4,-1
 567 864 l 1,5,-1
 350 543 l 1,0,-1
778 543 m 1,6,-1
 997 231 l 1,7,-1
 815 139 l 1,8,-1
 543 543 l 1,9,-1
 821 946 l 1,10,-1
 997 854 l 1,11,-1
 778 543 l 1,6,-1
EndSplineSet
Substitution2: "'case' Case-Sensitive Forms lookup 0 subtable" guillemotleft.case
EndChar
StartChar: logicalnot
Encoding: 172 172 695
Width: 1126
Flags: W
LayerCount: 2
Back
Fore
SplineSet
776 168 m 1,0,-1
 776 446 l 1,1,-1
 102 446 l 1,2,-1
 102 643 l 1,3,-1
 989 643 l 1,4,-1
 989 168 l 1,5,-1
 776 168 l 1,0,-1
EndSplineSet
EndChar
StartChar: registered
Encoding: 174 174 598
Width: 1126
Flags: W
LayerCount: 2
Back
Fore
SplineSet
801 682 m 1,0,-1
 653 682 l 1,1,-1
 580 858 l 2,2,3
 573 874 573 874 555.5 885.5 c 128,-1,4
 538 897 538 897 518 897 c 2,5,-1
 506 897 l 1,6,-1
 506 682 l 1,7,-1
 379 682 l 1,8,-1
 379 1229 l 1,9,-1
 553 1229 l 2,10,11
 597 1229 597 1229 636 1223 c 128,-1,12
 675 1217 675 1217 704.5 1200 c 128,-1,13
 734 1183 734 1183 751 1152.5 c 128,-1,14
 768 1122 768 1122 768 1073 c 0,15,16
 768 1039 768 1039 758 1015 c 128,-1,17
 748 991 748 991 730.5 975 c 128,-1,18
 713 959 713 959 691 951 c 128,-1,19
 669 943 669 943 645 942 c 1,20,21
 678 939 678 939 715 866 c 2,22,-1
 801 682 l 1,0,-1
635 1061 m 256,23,24
 635 1096 635 1096 611.5 1110 c 128,-1,25
 588 1124 588 1124 537 1124 c 2,26,-1
 506 1124 l 1,27,-1
 506 991 l 1,28,-1
 537 991 l 2,29,30
 580 991 580 991 607.5 1008.5 c 128,-1,31
 635 1026 635 1026 635 1061 c 256,23,24
563 1305 m 0,32,33
 489 1305 489 1305 424 1277 c 128,-1,34
 359 1249 359 1249 311 1199.5 c 128,-1,35
 263 1150 263 1150 235 1083.5 c 128,-1,36
 207 1017 207 1017 207 940 c 256,37,38
 207 863 207 863 235 796.5 c 128,-1,39
 263 730 263 730 311 680.5 c 128,-1,40
 359 631 359 631 424 603 c 128,-1,41
 489 575 489 575 563 575 c 0,42,43
 638 575 638 575 703 603 c 128,-1,44
 768 631 768 631 816 680.5 c 128,-1,45
 864 730 864 730 892 796.5 c 128,-1,46
 920 863 920 863 920 940 c 256,47,48
 920 1017 920 1017 892 1083.5 c 128,-1,49
 864 1150 864 1150 816 1199.5 c 128,-1,50
 768 1249 768 1249 703 1277 c 128,-1,51
 638 1305 638 1305 563 1305 c 0,32,33
563 1436 m 256,52,53
 666 1436 666 1436 756.5 1397 c 128,-1,54
 847 1358 847 1358 914 1290.5 c 128,-1,55
 981 1223 981 1223 1020 1133 c 128,-1,56
 1059 1043 1059 1043 1059 940 c 256,57,58
 1059 837 1059 837 1020 747 c 128,-1,59
 981 657 981 657 914 589.5 c 128,-1,60
 847 522 847 522 756.5 483 c 128,-1,61
 666 444 666 444 563 444 c 256,62,63
 460 444 460 444 370 483 c 128,-1,64
 280 522 280 522 213 589.5 c 128,-1,65
 146 657 146 657 107 747 c 128,-1,66
 68 837 68 837 68 940 c 256,67,68
 68 1043 68 1043 107 1133 c 128,-1,69
 146 1223 146 1223 213 1290.5 c 128,-1,70
 280 1358 280 1358 370 1397 c 128,-1,71
 460 1436 460 1436 563 1436 c 256,52,53
EndSplineSet
EndChar
StartChar: macron
Encoding: 175 175 329
AltUni2: 0002c9.ffffffff.0
Width: 1126
Flags: W
LayerCount: 2
Back
Fore
SplineSet
284 1204 m 1,0,-1
 284 1378 l 1,1,-1
 842 1378 l 1,2,-1
 842 1204 l 1,3,-1
 284 1204 l 1,0,-1
0 1016 m 1024,4,-1
EndSplineSet
EndChar
StartChar: degree
Encoding: 176 176 696
Width: 1126
Flags: W
LayerCount: 2
Back
Fore
SplineSet
936 1090 m 0,0,1
 936 1010 936 1010 910.5 944 c 128,-1,2
 885 878 885 878 836 830.5 c 128,-1,3
 787 783 787 783 717 757 c 128,-1,4
 647 731 647 731 559 731 c 0,5,6
 472 731 472 731 403 755.5 c 128,-1,7
 334 780 334 780 287 825 c 128,-1,8
 240 870 240 870 215 934 c 128,-1,9
 190 998 190 998 190 1077 c 0,10,11
 190 1157 190 1157 216 1223 c 128,-1,12
 242 1289 242 1289 290.5 1336.5 c 128,-1,13
 339 1384 339 1384 409 1410 c 128,-1,14
 479 1436 479 1436 567 1436 c 256,15,16
 655 1436 655 1436 723.5 1411.5 c 128,-1,17
 792 1387 792 1387 839 1342 c 128,-1,18
 886 1297 886 1297 911 1233 c 128,-1,19
 936 1169 936 1169 936 1090 c 0,0,1
727 1083 m 0,20,21
 727 1165 727 1165 687 1213.5 c 128,-1,22
 647 1262 647 1262 563 1262 c 0,23,24
 522 1262 522 1262 491 1249 c 128,-1,25
 460 1236 460 1236 439.5 1212 c 128,-1,26
 419 1188 419 1188 409 1155 c 128,-1,27
 399 1122 399 1122 399 1083 c 0,28,29
 399 1002 399 1002 439.5 953.5 c 128,-1,30
 480 905 480 905 563 905 c 256,31,32
 646 905 646 905 686.5 955 c 128,-1,33
 727 1005 727 1005 727 1083 c 0,20,21
EndSplineSet
EndChar
StartChar: plusminus
Encoding: 177 177 685
Width: 1126
Flags: W
LayerCount: 2
Back
Fore
SplineSet
674 684 m 1,0,-1
 674 332 l 1,1,-1
 453 332 l 1,2,-1
 453 684 l 1,3,-1
 104 684 l 1,4,-1
 104 872 l 1,5,-1
 453 872 l 1,6,-1
 453 1229 l 1,7,-1
 674 1229 l 1,8,-1
 674 872 l 1,9,-1
 1022 872 l 1,10,-1
 1022 684 l 1,11,-1
 674 684 l 1,0,-1
133 0 m 1,12,-1
 133 193 l 1,13,-1
 993 193 l 1,14,-1
 993 0 l 1,15,-1
 133 0 l 1,12,-1
EndSplineSet
EndChar
StartChar: acute
Encoding: 180 180 318
Width: 1126
Flags: W
LayerCount: 2
Back
Fore
SplineSet
684 1151 m 1,0,-1
 440 1151 l 1,1,-1
 702 1413 l 1,2,-1
 1032 1413 l 1,3,-1
 684 1151 l 1,0,-1
0 1016 m 1024,4,-1
EndSplineSet
Substitution2: "'locl' Localized Forms in Greek lookup 36 subtable" uni1FFD
EndChar
StartChar: paragraph
Encoding: 182 182 399
Width: 1126
Flags: W
LayerCount: 2
Back
Fore
SplineSet
1044 213 m 2,0,1
 1044 99 1044 99 1011 14.5 c 128,-1,2
 978 -70 978 -70 917 -125.5 c 128,-1,3
 856 -181 856 -181 768.5 -208.5 c 128,-1,4
 681 -236 681 -236 573 -236 c 0,5,6
 479 -236 479 -236 389 -204.5 c 128,-1,7
 299 -173 299 -173 223 -111 c 1,8,-1
 338 57 l 1,9,10
 384 17 384 17 443.5 -12 c 128,-1,11
 503 -41 503 -41 580 -41 c 0,12,13
 691 -41 691 -41 748 23 c 128,-1,14
 805 87 805 87 805 211 c 2,15,-1
 805 1223 l 1,16,-1
 674 1223 l 1,17,-1
 674 508 l 1,18,19
 519 508 519 508 406 539 c 128,-1,20
 293 570 293 570 219.5 628.5 c 128,-1,21
 146 687 146 687 110 769.5 c 128,-1,22
 74 852 74 852 74 956 c 0,23,24
 74 1059 74 1059 110.5 1143.5 c 128,-1,25
 147 1228 147 1228 219.5 1288 c 128,-1,26
 292 1348 292 1348 400 1380.5 c 128,-1,27
 508 1413 508 1413 651 1413 c 2,28,-1
 1044 1413 l 1,29,-1
 1044 213 l 2,0,1
EndSplineSet
EndChar
StartChar: periodcentered
Encoding: 183 183 381
AltUni2: 002219.ffffffff.0
Width: 1126
Flags: W
LayerCount: 2
Back
Fore
SplineSet
563 758 m 0,0,1
 605 758 605 758 641 742.5 c 128,-1,2
 677 727 677 727 703.5 700.5 c 128,-1,3
 730 674 730 674 745 638 c 128,-1,4
 760 602 760 602 760 561 c 0,5,6
 760 521 760 521 745 486 c 128,-1,7
 730 451 730 451 703.5 424.5 c 128,-1,8
 677 398 677 398 641 382.5 c 128,-1,9
 605 367 605 367 563 367 c 0,10,11
 523 367 523 367 488 382.5 c 128,-1,12
 453 398 453 398 427 424.5 c 128,-1,13
 401 451 401 451 386 486 c 128,-1,14
 371 521 371 521 371 561 c 0,15,16
 371 602 371 602 386 638 c 128,-1,17
 401 674 401 674 427 700.5 c 128,-1,18
 453 727 453 727 488 742.5 c 128,-1,19
 523 758 523 758 563 758 c 0,0,1
EndSplineSet
Substitution2: "'case' Case-Sensitive Forms lookup 0 subtable" periodcentered.case
EndChar
StartChar: cedilla
Encoding: 184 184 340
Width: 1126
Flags: W
LayerCount: 2
Back
Fore
SplineSet
598 -295 m 1,0,-1
 420 -295 l 1,1,-1
 481 0 l 1,2,-1
 709 0 l 1,3,-1
 598 -295 l 1,0,-1
EndSplineSet
EndChar
StartChar: ordmasculine
Encoding: 186 186 610
Width: 1126
Flags: W
LayerCount: 2
Back
Fore
SplineSet
909 338 m 1,0,-1
 217 338 l 1,1,-1
 217 506 l 1,2,-1
 909 506 l 1,3,-1
 909 338 l 1,0,-1
925 979 m 0,4,5
 925 902 925 902 900.5 835 c 128,-1,6
 876 768 876 768 828 718.5 c 128,-1,7
 780 669 780 669 711 640.5 c 128,-1,8
 642 612 642 612 555 612 c 0,9,10
 472 612 472 612 406.5 633.5 c 128,-1,11
 341 655 341 655 295 699.5 c 128,-1,12
 249 744 249 744 225 811 c 128,-1,13
 201 878 201 878 201 969 c 0,14,15
 201 1047 201 1047 226.5 1113 c 128,-1,16
 252 1179 252 1179 299.5 1227 c 128,-1,17
 347 1275 347 1275 415 1302 c 128,-1,18
 483 1329 483 1329 569 1329 c 0,19,20
 654 1329 654 1329 720 1306.5 c 128,-1,21
 786 1284 786 1284 832 1240 c 128,-1,22
 878 1196 878 1196 901.5 1130.5 c 128,-1,23
 925 1065 925 1065 925 979 c 0,4,5
723 974 m 0,24,25
 723 1064 723 1064 682.5 1111 c 128,-1,26
 642 1158 642 1158 563 1158 c 0,27,28
 525 1158 525 1158 495 1144.5 c 128,-1,29
 465 1131 465 1131 444.5 1106.5 c 128,-1,30
 424 1082 424 1082 413.5 1047.5 c 128,-1,31
 403 1013 403 1013 403 972 c 0,32,33
 403 881 403 881 445.5 832 c 128,-1,34
 488 783 488 783 563 783 c 0,35,36
 639 783 639 783 681 833 c 128,-1,37
 723 883 723 883 723 974 c 0,24,25
EndSplineSet
EndChar
StartChar: guillemotright
Encoding: 187 187 370
Width: 1126
Flags: W
LayerCount: 2
Back
Fore
SplineSet
776 547 m 1,0,-1
 559 868 l 1,1,-1
 748 961 l 1,2,-1
 1012 547 l 1,3,-1
 741 133 l 1,4,-1
 559 225 l 1,5,-1
 776 547 l 1,0,-1
348 547 m 1,6,-1
 129 858 l 1,7,-1
 311 950 l 1,8,-1
 584 547 l 1,9,-1
 305 143 l 1,10,-1
 129 236 l 1,11,-1
 348 547 l 1,6,-1
EndSplineSet
Substitution2: "'case' Case-Sensitive Forms lookup 0 subtable" guillemotright.case
EndChar
StartChar: onequarter
Encoding: 188 188 678
Width: 1126
Flags: W
LayerCount: 2
Back
Fore
SplineSet
223 840 m 1,0,-1
 223 1247 l 1,1,-1
 92 1182 l 1,2,-1
 43 1315 l 1,3,-1
 250 1419 l 1,4,-1
 414 1419 l 1,5,-1
 414 840 l 1,6,-1
 223 840 l 1,0,-1
199 0 m 1,7,-1
 0 0 l 1,8,-1
 928 1413 l 1,9,-1
 1126 1413 l 1,10,-1
 199 0 l 1,7,-1
1081 102 m 1,11,-1
 997 102 l 1,12,-1
 997 0 l 1,13,-1
 829 0 l 1,14,-1
 829 102 l 1,15,-1
 528 102 l 1,16,-1
 528 233 l 1,17,-1
 748 573 l 1,18,-1
 997 573 l 1,19,-1
 997 238 l 1,20,-1
 1081 238 l 1,21,-1
 1081 102 l 1,11,-1
829 444 m 1,22,-1
 698 238 l 1,23,-1
 829 238 l 1,24,-1
 829 444 l 1,22,-1
EndSplineSet
EndChar
StartChar: onehalf
Encoding: 189 189 679
Width: 1126
Flags: W
LayerCount: 2
Back
Fore
SplineSet
223 840 m 1,0,-1
 223 1247 l 1,1,-1
 92 1182 l 1,2,-1
 43 1315 l 1,3,-1
 250 1419 l 1,4,-1
 414 1419 l 1,5,-1
 414 840 l 1,6,-1
 223 840 l 1,0,-1
1090 0 m 1,7,-1
 616 0 l 1,8,-1
 616 133 l 1,9,-1
 748 238 l 2,10,11
 791 272 791 272 817.5 296 c 128,-1,12
 844 320 844 320 858 337.5 c 128,-1,13
 872 355 872 355 876.5 369.5 c 128,-1,14
 881 384 881 384 881 399 c 0,15,16
 881 422 881 422 865.5 436.5 c 128,-1,17
 850 451 850 451 815 451 c 0,18,19
 777 451 777 451 744.5 435 c 128,-1,20
 712 419 712 419 684 397 c 1,21,-1
 610 514 l 1,22,23
 654 548 654 548 714 570 c 128,-1,24
 774 592 774 592 842 592 c 0,25,26
 951 592 951 592 1012 544 c 128,-1,27
 1073 496 1073 496 1073 416 c 0,28,29
 1073 342 1073 342 1035.5 287 c 128,-1,30
 998 232 998 232 915 180 c 2,31,-1
 860 145 l 1,32,-1
 1090 145 l 1,33,-1
 1090 0 l 1,7,-1
199 0 m 1,34,-1
 0 0 l 1,35,-1
 928 1413 l 1,36,-1
 1126 1413 l 1,37,-1
 199 0 l 1,34,-1
EndSplineSet
EndChar
StartChar: threequarters
Encoding: 190 190 680
Width: 1126
Flags: W
LayerCount: 2
Back
Fore
SplineSet
528 1014 m 0,0,1
 528 923 528 923 448.5 872 c 128,-1,2
 369 821 369 821 203 821 c 0,3,4
 187 821 187 821 165.5 821.5 c 128,-1,5
 144 822 144 822 122 823.5 c 128,-1,6
 100 825 100 825 79 827 c 128,-1,7
 58 829 58 829 43 831 c 1,8,-1
 43 971 l 1,9,10
 75 965 75 965 118.5 960.5 c 128,-1,11
 162 956 162 956 209 956 c 0,12,13
 244 956 244 956 267.5 960 c 128,-1,14
 291 964 291 964 305 971.5 c 128,-1,15
 319 979 319 979 324.5 988.5 c 128,-1,16
 330 998 330 998 330 1010 c 0,17,18
 330 1024 330 1024 323.5 1034 c 128,-1,19
 317 1044 317 1044 301 1050.5 c 128,-1,20
 285 1057 285 1057 258 1060 c 128,-1,21
 231 1063 231 1063 190 1063 c 2,22,-1
 121 1063 l 1,23,-1
 121 1198 l 1,24,-1
 176 1198 l 2,25,26
 215 1198 215 1198 239.5 1202.5 c 128,-1,27
 264 1207 264 1207 277 1215 c 128,-1,28
 290 1223 290 1223 294.5 1232.5 c 128,-1,29
 299 1242 299 1242 299 1253 c 0,30,31
 299 1273 299 1273 284 1285 c 128,-1,32
 269 1297 269 1297 225 1297 c 0,33,34
 182 1297 182 1297 142 1289 c 128,-1,35
 102 1281 102 1281 61 1270 c 1,36,-1
 61 1405 l 1,37,38
 88 1412 88 1412 110.5 1417.5 c 128,-1,39
 133 1423 133 1423 155 1426 c 128,-1,40
 177 1429 177 1429 200 1430.5 c 128,-1,41
 223 1432 223 1432 252 1432 c 0,42,43
 368 1432 368 1432 430 1392.5 c 128,-1,44
 492 1353 492 1353 492 1278 c 0,45,46
 492 1227 492 1227 465.5 1193.5 c 128,-1,47
 439 1160 439 1160 391 1149 c 1,48,49
 460 1141 460 1141 494 1103.5 c 128,-1,50
 528 1066 528 1066 528 1014 c 0,0,1
199 0 m 1,51,-1
 0 0 l 1,52,-1
 928 1413 l 1,53,-1
 1126 1413 l 1,54,-1
 199 0 l 1,51,-1
1081 102 m 1,55,-1
 997 102 l 1,56,-1
 997 0 l 1,57,-1
 829 0 l 1,58,-1
 829 102 l 1,59,-1
 528 102 l 1,60,-1
 528 233 l 1,61,-1
 748 573 l 1,62,-1
 997 573 l 1,63,-1
 997 238 l 1,64,-1
 1081 238 l 1,65,-1
 1081 102 l 1,55,-1
829 444 m 1,66,-1
 698 238 l 1,67,-1
 829 238 l 1,68,-1
 829 444 l 1,66,-1
EndSplineSet
EndChar
StartChar: questiondown
Encoding: 191 191 356
Width: 1126
Flags: W
LayerCount: 2
Back
Fore
SplineSet
162 37 m 256,0,1
 162 121 162 121 187.5 187.5 c 128,-1,2
 213 254 213 254 260 302.5 c 128,-1,3
 307 351 307 351 374 381 c 128,-1,4
 441 411 441 411 524 422 c 1,5,-1
 535 610 l 1,6,-1
 743 610 l 1,7,-1
 762 233 l 1,8,-1
 616 233 l 2,9,10
 567 233 567 233 531.5 219 c 128,-1,11
 496 205 496 205 473.5 181.5 c 128,-1,12
 451 158 451 158 440.5 126.5 c 128,-1,13
 430 95 430 95 430 59 c 0,14,15
 430 11 430 11 450.5 -30.5 c 128,-1,16
 471 -72 471 -72 514.5 -103 c 128,-1,17
 558 -134 558 -134 625.5 -152 c 128,-1,18
 693 -170 693 -170 786 -170 c 2,19,-1
 846 -170 l 1,20,-1
 846 -397 l 1,21,-1
 776 -397 l 2,22,23
 623 -397 623 -397 507.5 -360.5 c 128,-1,24
 392 -324 392 -324 315.5 -263.5 c 128,-1,25
 239 -203 239 -203 200.5 -125 c 128,-1,26
 162 -47 162 -47 162 37 c 256,0,1
473 879 m 256,27,28
 473 912 473 912 486 941 c 128,-1,29
 499 970 499 970 521.5 991.5 c 128,-1,30
 544 1013 544 1013 573.5 1025.5 c 128,-1,31
 603 1038 603 1038 637 1038 c 256,32,33
 671 1038 671 1038 700.5 1025.5 c 128,-1,34
 730 1013 730 1013 752.5 991.5 c 128,-1,35
 775 970 775 970 788 941 c 128,-1,36
 801 912 801 912 801 879 c 256,37,38
 801 846 801 846 788 817 c 128,-1,39
 775 788 775 788 752.5 766 c 128,-1,40
 730 744 730 744 700.5 731.5 c 128,-1,41
 671 719 671 719 637 719 c 256,42,43
 603 719 603 719 573.5 731.5 c 128,-1,44
 544 744 544 744 521.5 766 c 128,-1,45
 499 788 499 788 486 817 c 128,-1,46
 473 846 473 846 473 879 c 256,27,28
EndSplineSet
Substitution2: "'case' Case-Sensitive Forms lookup 0 subtable" questiondown.case
EndChar
StartChar: AE
Encoding: 198 198 40
Width: 1126
GlyphClass: 2
Flags: W
AnchorPoint: "Anchor-11" 0 1700 basechar 0
AnchorPoint: "Anchor-10" 1126 1700 basechar 0
AnchorPoint: "Anchor-9" 1010 0 basechar 0
AnchorPoint: "Anchor-6" 1126 -350 basechar 0
AnchorPoint: "Anchor-5" 1126 1700 basechar 0
AnchorPoint: "Anchor-2" 693 -180 basechar 0
AnchorPoint: "Anchor-1" 1101 1390 basechar 0
AnchorPoint: "Anchor-0" 693 1430 basechar 0
LayerCount: 2
Back
Fore
SplineSet
588 0 m 1,0,-1
 588 262 l 1,1,-1
 281 262 l 1,2,-1
 186 0 l 1,3,-1
 -41 0 l 1,4,-1
 459 1307 l 1,5,-1
 1075 1307 l 1,6,-1
 1075 1108 l 1,7,-1
 807 1108 l 1,8,-1
 807 770 l 1,9,-1
 1059 770 l 1,10,-1
 1059 575 l 1,11,-1
 807 575 l 1,12,-1
 807 199 l 1,13,-1
 1085 199 l 1,14,-1
 1085 0 l 1,15,-1
 588 0 l 1,0,-1
588 1108 m 1,16,-1
 348 449 l 1,17,-1
 588 449 l 1,18,-1
 588 1108 l 1,16,-1
EndSplineSet
EndChar
StartChar: Ccedilla
Encoding: 199 199 46
Width: 1126
GlyphClass: 2
Flags: W
AnchorPoint: "Anchor-11" 0 1700 basechar 0
AnchorPoint: "Anchor-10" 1126 1700 basechar 0
AnchorPoint: "Anchor-9" 540 -295 basechar 0
AnchorPoint: "Anchor-6" 1126 -350 basechar 0
AnchorPoint: "Anchor-5" 1126 1700 basechar 0
AnchorPoint: "Anchor-2" 623 -385 basechar 0
AnchorPoint: "Anchor-1" 1045 1390 basechar 0
AnchorPoint: "Anchor-0" 623 1430 basechar 0
LayerCount: 2
Back
Fore
SplineSet
499 0 m 1,0,1
 436 11 436 11 359 50 c 128,-1,2
 282 89 282 89 218 165 c 128,-1,3
 154 241 154 241 118 360 c 128,-1,4
 82 479 82 479 82 633 c 0,5,6
 82 798 82 798 124 926.5 c 128,-1,7
 166 1055 166 1055 244 1143.5 c 128,-1,8
 322 1232 322 1232 433.5 1278.5 c 128,-1,9
 545 1325 545 1325 684 1325 c 0,10,11
 729 1325 729 1325 768.5 1323 c 128,-1,12
 808 1321 808 1321 846 1315.5 c 128,-1,13
 884 1310 884 1310 923 1301 c 128,-1,14
 962 1292 962 1292 1004 1278 c 1,15,-1
 1004 1034 l 1,16,17
 919 1074 919 1074 842 1091 c 128,-1,18
 765 1108 765 1108 702 1108 c 0,19,20
 609 1108 609 1108 543 1074.5 c 128,-1,21
 477 1041 477 1041 434.5 980.5 c 128,-1,22
 392 920 392 920 372 836.5 c 128,-1,23
 352 753 352 753 352 653 c 0,24,25
 352 547 352 547 372.5 463.5 c 128,-1,26
 393 380 393 380 436 322 c 128,-1,27
 479 264 479 264 546 233.5 c 128,-1,28
 613 203 613 203 705 203 c 0,29,30
 738 203 738 203 776.5 209.5 c 128,-1,31
 815 216 815 216 854.5 226.5 c 128,-1,32
 894 237 894 237 932.5 251.5 c 128,-1,33
 971 266 971 266 1004 281 c 1,34,-1
 1004 51 l 1,35,36
 917 16 917 16 847.5 1 c 128,-1,37
 778 -14 778 -14 721 -16 c 1,38,-1
 616 -295 l 1,39,-1
 438 -295 l 1,40,-1
 499 0 l 1,0,1
EndSplineSet
EndChar
StartChar: Eth
Encoding: 208 208 48
Width: 1126
GlyphClass: 2
Flags: W
AnchorPoint: "Anchor-11" 0 1700 basechar 0
AnchorPoint: "Anchor-10" 1126 1700 basechar 0
AnchorPoint: "Anchor-9" 570 25 basechar 0
AnchorPoint: "Anchor-6" 1126 -350 basechar 0
AnchorPoint: "Anchor-5" 1126 1700 basechar 0
AnchorPoint: "Anchor-2" 563 -180 basechar 0
AnchorPoint: "Anchor-1" 1003 1390 basechar 0
AnchorPoint: "Anchor-0" 563 1430 basechar 0
LayerCount: 2
Back
Fore
SplineSet
0 774 m 1,0,-1
 106 774 l 1,1,-1
 106 1307 l 1,2,-1
 473 1307 l 2,3,4
 623 1307 623 1307 735.5 1269.5 c 128,-1,5
 848 1232 848 1232 923 1154 c 128,-1,6
 998 1076 998 1076 1035.5 956 c 128,-1,7
 1073 836 1073 836 1073 670 c 0,8,9
 1073 518 1073 518 1035.5 394 c 128,-1,10
 998 270 998 270 918.5 182.5 c 128,-1,11
 839 95 839 95 715 47.5 c 128,-1,12
 591 0 591 0 418 0 c 2,13,-1
 106 0 l 1,14,-1
 106 571 l 1,15,-1
 0 571 l 1,16,-1
 0 774 l 1,0,-1
809 654 m 0,17,18
 809 760 809 760 792 843 c 128,-1,19
 775 926 775 926 734.5 983.5 c 128,-1,20
 694 1041 694 1041 626 1071 c 128,-1,21
 558 1101 558 1101 457 1101 c 2,22,-1
 352 1101 l 1,23,-1
 352 774 l 1,24,-1
 584 774 l 1,25,-1
 584 571 l 1,26,-1
 352 571 l 1,27,-1
 352 206 l 1,28,-1
 440 206 l 2,29,30
 621 206 621 206 715 314 c 128,-1,31
 809 422 809 422 809 654 c 0,17,18
EndSplineSet
EndChar
StartChar: multiply
Encoding: 215 215 686
Width: 1126
Flags: W
LayerCount: 2
Back
Fore
SplineSet
713 551 m 1,0,-1
 1009 255 l 1,1,-1
 854 100 l 1,2,-1
 558 396 l 1,3,-1
 262 100 l 1,4,-1
 117 245 l 1,5,-1
 413 541 l 1,6,-1
 117 837 l 1,7,-1
 272 992 l 1,8,-1
 568 696 l 1,9,-1
 864 992 l 1,10,-1
 1009 847 l 1,11,-1
 713 551 l 1,0,-1
EndSplineSet
EndChar
StartChar: Oslash
Encoding: 216 216 95
Width: 1126
GlyphClass: 2
Flags: W
AnchorPoint: "Anchor-11" 0 1700 basechar 0
AnchorPoint: "Anchor-10" 1126 1700 basechar 0
AnchorPoint: "Anchor-9" 650 0 basechar 0
AnchorPoint: "Anchor-6" 1126 -350 basechar 0
AnchorPoint: "Anchor-5" 1126 1700 basechar 0
AnchorPoint: "Anchor-2" 563 -305 basechar 0
AnchorPoint: "Anchor-1" 1135 1612 basechar 0
AnchorPoint: "Anchor-0" 563 1612 basechar 0
LayerCount: 2
Back
Fore
SplineSet
1089 668 m 0,0,1
 1089 491 1089 491 1048 360.5 c 128,-1,2
 1007 230 1007 230 936 145 c 128,-1,3
 865 60 865 60 768.5 18.5 c 128,-1,4
 672 -23 672 -23 561 -23 c 0,5,6
 532 -23 532 -23 504.5 -20 c 128,-1,7
 477 -17 477 -17 451 -12 c 1,8,-1
 387 -215 l 1,9,-1
 190 -215 l 1,10,-1
 274 51 l 1,11,12
 157 127 157 127 97 275 c 128,-1,13
 37 423 37 423 37 641 c 0,14,15
 37 817 37 817 77.5 946.5 c 128,-1,16
 118 1076 118 1076 189.5 1161 c 128,-1,17
 261 1246 261 1246 357.5 1287.5 c 128,-1,18
 454 1329 454 1329 565 1329 c 0,19,20
 594 1329 594 1329 622 1326.5 c 128,-1,21
 650 1324 650 1324 676 1319 c 1,22,-1
 739 1522 l 1,23,-1
 936 1522 l 1,24,-1
 850 1253 l 1,25,26
 969 1178 969 1178 1029 1030 c 128,-1,27
 1089 882 1089 882 1089 668 c 0,0,1
837 648 m 0,28,29
 837 767 837 767 822 856.5 c 128,-1,30
 807 946 807 946 772 1005 c 1,31,-1
 516 196 l 1,32,33
 528 192 528 192 541.5 191.5 c 128,-1,34
 555 191 555 191 569 191 c 0,35,36
 640 191 640 191 691 222 c 128,-1,37
 742 253 742 253 774.5 312 c 128,-1,38
 807 371 807 371 822 455.5 c 128,-1,39
 837 540 837 540 837 648 c 0,28,29
289 660 m 0,40,41
 289 540 289 540 304 451.5 c 128,-1,42
 319 363 319 363 354 304 c 1,43,-1
 608 1111 l 1,44,45
 597 1113 597 1113 585.5 1114 c 128,-1,46
 574 1115 574 1115 561 1115 c 0,47,48
 490 1115 490 1115 439 1084 c 128,-1,49
 388 1053 388 1053 354.5 994.5 c 128,-1,50
 321 936 321 936 305 851.5 c 128,-1,51
 289 767 289 767 289 660 c 0,40,41
EndSplineSet
EndChar
StartChar: Thorn
Encoding: 222 222 98
Width: 1126
GlyphClass: 2
Flags: W
AnchorPoint: "Anchor-11" 0 1700 basechar 0
AnchorPoint: "Anchor-10" 1126 1700 basechar 0
AnchorPoint: "Anchor-9" 300 0 basechar 0
AnchorPoint: "Anchor-6" 1126 -350 basechar 0
AnchorPoint: "Anchor-5" 1126 1700 basechar 0
AnchorPoint: "Anchor-2" 563 -180 basechar 0
AnchorPoint: "Anchor-1" 1016 1307 basechar 0
AnchorPoint: "Anchor-0" 563 1397 basechar 0
LayerCount: 2
Back
Fore
SplineSet
784 698 m 0,0,1
 784 800 784 800 717.5 861.5 c 128,-1,2
 651 923 651 923 512 923 c 2,3,-1
 383 923 l 1,4,-1
 383 444 l 1,5,-1
 520 444 l 2,6,7
 584 444 584 444 633 462 c 128,-1,8
 682 480 682 480 715.5 513 c 128,-1,9
 749 546 749 546 766.5 593 c 128,-1,10
 784 640 784 640 784 698 c 0,0,1
383 1127 m 1,11,-1
 518 1127 l 2,12,13
 645 1127 645 1127 742.5 1099 c 128,-1,14
 840 1071 840 1071 906.5 1018 c 128,-1,15
 973 965 973 965 1007.5 888 c 128,-1,16
 1042 811 1042 811 1042 711 c 0,17,18
 1042 609 1042 609 1008 522.5 c 128,-1,19
 974 436 974 436 907 373 c 128,-1,20
 840 310 840 310 740 275 c 128,-1,21
 640 240 640 240 508 240 c 2,22,-1
 383 240 l 1,23,-1
 383 0 l 1,24,-1
 135 0 l 1,25,-1
 135 1307 l 1,26,-1
 383 1307 l 1,27,-1
 383 1127 l 1,11,-1
EndSplineSet
EndChar
StartChar: germandbls
Encoding: 223 223 239
Width: 1126
GlyphClass: 2
Flags: W
AnchorPoint: "Anchor-11" 0 1700 basechar 0
AnchorPoint: "Anchor-10" 1126 1700 basechar 0
AnchorPoint: "Anchor-9" 770 0 basechar 0
AnchorPoint: "Anchor-6" 1126 -350 basechar 0
AnchorPoint: "Anchor-5" 1126 1700 basechar 0
AnchorPoint: "Anchor-2" 563 -180 basechar 0
AnchorPoint: "Anchor-1" 932 1515 basechar 0
AnchorPoint: "Anchor-0" 563 1515 basechar 0
LayerCount: 2
Back
Fore
SplineSet
1073 295 m 0,0,1
 1073 223 1073 223 1045 165.5 c 128,-1,2
 1017 108 1017 108 967 67.5 c 128,-1,3
 917 27 917 27 846 5.5 c 128,-1,4
 775 -16 775 -16 690 -16 c 0,5,6
 638 -16 638 -16 588.5 -12 c 128,-1,7
 539 -8 539 -8 504 0 c 1,8,-1
 504 199 l 1,9,10
 541 188 541 188 586.5 181 c 128,-1,11
 632 174 632 174 676 174 c 0,12,13
 717 174 717 174 744.5 181.5 c 128,-1,14
 772 189 772 189 788 202 c 128,-1,15
 804 215 804 215 810.5 232.5 c 128,-1,16
 817 250 817 250 817 270 c 0,17,18
 817 311 817 311 794 342.5 c 128,-1,19
 771 374 771 374 736 403 c 128,-1,20
 701 432 701 432 660.5 462 c 128,-1,21
 620 492 620 492 585 530.5 c 128,-1,22
 550 569 550 569 527 618.5 c 128,-1,23
 504 668 504 668 504 737 c 0,24,25
 504 788 504 788 520.5 826 c 128,-1,26
 537 864 537 864 561.5 894.5 c 128,-1,27
 586 925 586 925 614.5 950 c 128,-1,28
 643 975 643 975 667.5 1001 c 128,-1,29
 692 1027 692 1027 708.5 1056.5 c 128,-1,30
 725 1086 725 1086 725 1124 c 0,31,32
 725 1154 725 1154 712.5 1176.5 c 128,-1,33
 700 1199 700 1199 678 1214.5 c 128,-1,34
 656 1230 656 1230 626 1237.5 c 128,-1,35
 596 1245 596 1245 561 1245 c 0,36,37
 474 1245 474 1245 428.5 1191.5 c 128,-1,38
 383 1138 383 1138 383 1028 c 2,39,-1
 383 0 l 1,40,-1
 139 0 l 1,41,-1
 139 1020 l 2,42,43
 139 1126 139 1126 172 1203.5 c 128,-1,44
 205 1281 205 1281 263.5 1332 c 128,-1,45
 322 1383 322 1383 401 1407.5 c 128,-1,46
 480 1432 480 1432 573 1432 c 0,47,48
 660 1432 660 1432 733 1412 c 128,-1,49
 806 1392 806 1392 859 1354.5 c 128,-1,50
 912 1317 912 1317 941.5 1263 c 128,-1,51
 971 1209 971 1209 971 1141 c 0,52,53
 971 1081 971 1081 955 1038 c 128,-1,54
 939 995 939 995 915 964 c 128,-1,55
 891 933 891 933 862.5 909 c 128,-1,56
 834 885 834 885 810 862.5 c 128,-1,57
 786 840 786 840 770 814.5 c 128,-1,58
 754 789 754 789 754 754 c 0,59,60
 754 716 754 716 777.5 687 c 128,-1,61
 801 658 801 658 836.5 631 c 128,-1,62
 872 604 872 604 913.5 574.5 c 128,-1,63
 955 545 955 545 990.5 507 c 128,-1,64
 1026 469 1026 469 1049.5 417.5 c 128,-1,65
 1073 366 1073 366 1073 295 c 0,0,1
EndSplineSet
EndChar
StartChar: ae
Encoding: 230 230 167
Width: 1126
GlyphClass: 2
Flags: W
AnchorPoint: "Anchor-11" 0 1700 basechar 0
AnchorPoint: "Anchor-10" 1126 1700 basechar 0
AnchorPoint: "Anchor-9" 900 0 basechar 0
AnchorPoint: "Anchor-6" 1126 -350 basechar 0
AnchorPoint: "Anchor-5" 1126 1700 basechar 0
AnchorPoint: "Anchor-4" 980 930 basechar 0
AnchorPoint: "Anchor-2" 563 -180 basechar 0
AnchorPoint: "Anchor-1" 1113 1160 basechar 0
AnchorPoint: "Anchor-0" 563 1200 basechar 0
LayerCount: 2
Back
Fore
SplineSet
338 1038 m 0,0,1
 428 1038 428 1038 489.5 1012 c 128,-1,2
 551 986 551 986 588 940 c 1,3,4
 625 985 625 985 679.5 1011.5 c 128,-1,5
 734 1038 734 1038 803 1038 c 0,6,7
 885 1038 885 1038 942 1005.5 c 128,-1,8
 999 973 999 973 1034.5 913.5 c 128,-1,9
 1070 854 1070 854 1086 769.5 c 128,-1,10
 1102 685 1102 685 1102 582 c 0,11,12
 1102 570 1102 570 1101.5 553.5 c 128,-1,13
 1101 537 1101 537 1100.5 519.5 c 128,-1,14
 1100 502 1100 502 1099.5 485 c 128,-1,15
 1099 468 1099 468 1098 455 c 1,16,-1
 653 455 l 1,17,18
 653 385 653 385 666.5 329.5 c 128,-1,19
 680 274 680 274 704.5 235.5 c 128,-1,20
 729 197 729 197 764.5 176.5 c 128,-1,21
 800 156 800 156 844 156 c 0,22,23
 893 156 893 156 949.5 171 c 128,-1,24
 1006 186 1006 186 1063 211 c 1,25,-1
 1063 25 l 1,26,27
 1013 5 1013 5 945 -9 c 128,-1,28
 877 -23 877 -23 803 -23 c 0,29,30
 750 -23 750 -23 708.5 -12 c 128,-1,31
 667 -1 667 -1 634.5 20 c 128,-1,32
 602 41 602 41 577.5 70.5 c 128,-1,33
 553 100 553 100 535 137 c 1,34,35
 475 53 475 53 415 15 c 128,-1,36
 355 -23 355 -23 279 -23 c 0,37,38
 156 -23 156 -23 87 51 c 128,-1,39
 18 125 18 125 18 279 c 0,40,41
 18 354 18 354 39 415 c 128,-1,42
 60 476 60 476 104 518.5 c 128,-1,43
 148 561 148 561 217.5 584.5 c 128,-1,44
 287 608 287 608 385 608 c 2,45,-1
 465 608 l 1,46,-1
 465 682 l 2,47,48
 465 719 465 719 458.5 752 c 128,-1,49
 452 785 452 785 435.5 809.5 c 128,-1,50
 419 834 419 834 391 848 c 128,-1,51
 363 862 363 862 319 862 c 0,52,53
 296 862 296 862 267 856 c 128,-1,54
 238 850 238 850 206.5 839 c 128,-1,55
 175 828 175 828 142.5 812.5 c 128,-1,56
 110 797 110 797 80 778 c 1,57,-1
 80 973 l 1,58,59
 134 1004 134 1004 202 1021 c 128,-1,60
 270 1038 270 1038 338 1038 c 0,0,1
373 455 m 2,61,62
 333 455 333 455 305.5 442 c 128,-1,63
 278 429 278 429 261 406.5 c 128,-1,64
 244 384 244 384 236.5 354.5 c 128,-1,65
 229 325 229 325 229 291 c 0,66,67
 229 226 229 226 251 191 c 128,-1,68
 273 156 273 156 319 156 c 0,69,70
 354 156 354 156 390.5 192 c 128,-1,71
 427 228 427 228 465 291 c 1,72,-1
 465 455 l 1,73,-1
 373 455 l 2,61,62
788 862 m 0,74,75
 725 862 725 862 694 796 c 128,-1,76
 663 730 663 730 655 608 c 1,77,-1
 907 608 l 1,78,79
 908 738 908 738 875.5 800 c 128,-1,80
 843 862 843 862 788 862 c 0,74,75
EndSplineSet
EndChar
StartChar: ccedilla
Encoding: 231 231 173
Width: 1126
GlyphClass: 2
Flags: W
AnchorPoint: "Anchor-11" 0 1700 basechar 0
AnchorPoint: "Anchor-10" 1126 1700 basechar 0
AnchorPoint: "Anchor-9" 530 -295 basechar 0
AnchorPoint: "Anchor-6" 1126 -350 basechar 0
AnchorPoint: "Anchor-5" 1126 1700 basechar 0
AnchorPoint: "Anchor-2" 623 -385 basechar 0
AnchorPoint: "Anchor-1" 990 1160 basechar 0
AnchorPoint: "Anchor-0" 623 1200 basechar 0
LayerCount: 2
Back
Fore
SplineSet
961 39 m 1,0,1
 902 15 902 15 839 1.5 c 128,-1,2
 776 -12 776 -12 709 -16 c 1,3,-1
 604 -295 l 1,4,-1
 426 -295 l 1,5,-1
 487 0 l 1,6,7
 319 39 319 39 226 164.5 c 128,-1,8
 133 290 133 290 133 496 c 0,9,10
 133 618 133 618 171.5 717 c 128,-1,11
 210 816 210 816 280 886 c 128,-1,12
 350 956 350 956 448.5 994 c 128,-1,13
 547 1032 547 1032 668 1032 c 0,14,15
 767 1032 767 1032 834.5 1021.5 c 128,-1,16
 902 1011 902 1011 956 995 c 1,17,-1
 956 758 l 1,18,19
 894 789 894 789 821.5 806 c 128,-1,20
 749 823 749 823 684 823 c 0,21,22
 616 823 616 823 562 800 c 128,-1,23
 508 777 508 777 471 736 c 128,-1,24
 434 695 434 695 414.5 636.5 c 128,-1,25
 395 578 395 578 395 508 c 0,26,27
 395 435 395 435 416 377 c 128,-1,28
 437 319 437 319 475.5 278.5 c 128,-1,29
 514 238 514 238 568 216.5 c 128,-1,30
 622 195 622 195 688 195 c 0,31,32
 720 195 720 195 755.5 199.5 c 128,-1,33
 791 204 791 204 826.5 212.5 c 128,-1,34
 862 221 862 221 896.5 232 c 128,-1,35
 931 243 931 243 961 256 c 1,36,-1
 961 39 l 1,0,1
EndSplineSet
EndChar
StartChar: eth
Encoding: 240 240 175
Width: 1126
GlyphClass: 2
Flags: W
AnchorPoint: "Anchor-11" 0 1700 basechar 0
AnchorPoint: "Anchor-10" 1126 1700 basechar 0
AnchorPoint: "Anchor-9" 700 20 basechar 0
AnchorPoint: "Anchor-6" 1126 -350 basechar 0
AnchorPoint: "Anchor-5" 1126 1700 basechar 0
AnchorPoint: "Anchor-2" 563 -180 basechar 0
AnchorPoint: "Anchor-1" 1072 1503 basechar 0
AnchorPoint: "Anchor-0" 563 1503 basechar 0
LayerCount: 2
Back
Fore
SplineSet
942 1407 m 1,0,-1
 942 1223 l 1,1,-1
 766 1186 l 1,2,3
 840 1086 840 1086 890 999.5 c 128,-1,4
 940 913 940 913 971 832 c 128,-1,5
 1002 751 1002 751 1015 673 c 128,-1,6
 1028 595 1028 595 1028 512 c 0,7,8
 1028 449 1028 449 1019 385 c 128,-1,9
 1010 321 1010 321 988 261.5 c 128,-1,10
 966 202 966 202 930 150 c 128,-1,11
 894 98 894 98 839.5 59.5 c 128,-1,12
 785 21 785 21 711 -1 c 128,-1,13
 637 -23 637 -23 539 -23 c 0,14,15
 420 -23 420 -23 332.5 10.5 c 128,-1,16
 245 44 245 44 188 109 c 128,-1,17
 131 174 131 174 103.5 268.5 c 128,-1,18
 76 363 76 363 76 485 c 0,19,20
 76 626 76 626 115 729.5 c 128,-1,21
 154 833 154 833 221 900.5 c 128,-1,22
 288 968 288 968 378 1001 c 128,-1,23
 468 1034 468 1034 569 1034 c 2,24,-1
 573 1034 l 1,25,26
 558 1059 558 1059 541 1082.5 c 128,-1,27
 524 1106 524 1106 506 1130 c 1,28,-1
 209 1067 l 1,29,-1
 209 1251 l 1,30,-1
 379 1286 l 1,31,-1
 266 1413 l 1,32,-1
 584 1413 l 1,33,-1
 643 1343 l 1,34,-1
 942 1407 l 1,0,-1
332 498 m 0,35,36
 332 335 332 335 386 260.5 c 128,-1,37
 440 186 440 186 553 186 c 0,38,39
 599 186 599 186 639 205.5 c 128,-1,40
 679 225 679 225 708.5 264 c 128,-1,41
 738 303 738 303 755 362 c 128,-1,42
 772 421 772 421 772 500 c 0,43,44
 772 588 772 588 752 666 c 128,-1,45
 732 744 732 744 694 827 c 1,46,47
 670 834 670 834 639.5 838 c 128,-1,48
 609 842 609 842 582 842 c 0,49,50
 526 842 526 842 480 818 c 128,-1,51
 434 794 434 794 401 749.5 c 128,-1,52
 368 705 368 705 350 641.5 c 128,-1,53
 332 578 332 578 332 498 c 0,35,36
EndSplineSet
EndChar
StartChar: divide
Encoding: 247 247 687
Width: 1126
Flags: W
LayerCount: 2
Back
Fore
SplineSet
78 444 m 1,0,-1
 78 645 l 1,1,-1
 1049 645 l 1,2,-1
 1049 444 l 1,3,-1
 78 444 l 1,0,-1
559 305 m 256,4,5
 592 305 592 305 620.5 293.5 c 128,-1,6
 649 282 649 282 670 262 c 128,-1,7
 691 242 691 242 703 215.5 c 128,-1,8
 715 189 715 189 715 158 c 0,9,10
 715 126 715 126 703 98 c 128,-1,11
 691 70 691 70 670 49.5 c 128,-1,12
 649 29 649 29 620.5 17.5 c 128,-1,13
 592 6 592 6 559 6 c 256,14,15
 526 6 526 6 498 17.5 c 128,-1,16
 470 29 470 29 449.5 49.5 c 128,-1,17
 429 70 429 70 417.5 98 c 128,-1,18
 406 126 406 126 406 158 c 0,19,20
 406 189 406 189 417.5 215.5 c 128,-1,21
 429 242 429 242 449.5 262 c 128,-1,22
 470 282 470 282 498 293.5 c 128,-1,23
 526 305 526 305 559 305 c 256,4,5
559 784 m 256,24,25
 526 784 526 784 498 795.5 c 128,-1,26
 470 807 470 807 449.5 827 c 128,-1,27
 429 847 429 847 417.5 874 c 128,-1,28
 406 901 406 901 406 932 c 0,29,30
 406 964 406 964 417.5 991.5 c 128,-1,31
 429 1019 429 1019 449.5 1039.5 c 128,-1,32
 470 1060 470 1060 498 1071.5 c 128,-1,33
 526 1083 526 1083 559 1083 c 256,34,35
 592 1083 592 1083 620.5 1071.5 c 128,-1,36
 649 1060 649 1060 670 1039.5 c 128,-1,37
 691 1019 691 1019 703 991.5 c 128,-1,38
 715 964 715 964 715 932 c 0,39,40
 715 901 715 901 703 874 c 128,-1,41
 691 847 691 847 670 827 c 128,-1,42
 649 807 649 807 620.5 795.5 c 128,-1,43
 592 784 592 784 559 784 c 256,24,25
EndSplineSet
EndChar
StartChar: oslash
Encoding: 248 248 227
Width: 1126
GlyphClass: 2
Flags: W
AnchorPoint: "Anchor-11" 0 1700 basechar 0
AnchorPoint: "Anchor-10" 1126 1700 basechar 0
AnchorPoint: "Anchor-9" 660 0 basechar 0
AnchorPoint: "Anchor-6" 1126 -350 basechar 0
AnchorPoint: "Anchor-5" 1126 1700 basechar 0
AnchorPoint: "Anchor-4" 910 930 basechar 0
AnchorPoint: "Anchor-2" 563 -305 basechar 0
AnchorPoint: "Anchor-1" 1030 1309 basechar 0
AnchorPoint: "Anchor-0" 563 1319 basechar 0
LayerCount: 2
Back
Fore
SplineSet
911 1231 m 1,0,-1
 825 981 l 1,1,2
 935 922 935 922 995 805.5 c 128,-1,3
 1055 689 1055 689 1055 516 c 0,4,5
 1055 403 1055 403 1024 304.5 c 128,-1,6
 993 206 993 206 931 133.5 c 128,-1,7
 869 61 869 61 775.5 19 c 128,-1,8
 682 -23 682 -23 557 -23 c 0,9,10
 537 -23 537 -23 517.5 -21.5 c 128,-1,11
 498 -20 498 -20 479 -18 c 1,12,-1
 412 -215 l 1,13,-1
 215 -215 l 1,14,-1
 301 33 l 1,15,16
 190 92 190 92 131 208 c 128,-1,17
 72 324 72 324 72 502 c 0,18,19
 72 616 72 616 103.5 714 c 128,-1,20
 135 812 135 812 197.5 884 c 128,-1,21
 260 956 260 956 353 997 c 128,-1,22
 446 1038 446 1038 569 1038 c 0,23,24
 589 1038 589 1038 608 1037 c 128,-1,25
 627 1036 627 1036 645 1034 c 1,26,-1
 715 1231 l 1,27,-1
 911 1231 l 1,0,-1
313 508 m 0,28,29
 313 423 313 423 329 359.5 c 128,-1,30
 345 296 345 296 377 254 c 1,31,-1
 578 839 l 1,32,-1
 559 839 l 2,33,34
 496 839 496 839 449.5 813 c 128,-1,35
 403 787 403 787 372 741.5 c 128,-1,36
 341 696 341 696 327 636 c 128,-1,37
 313 576 313 576 313 508 c 0,28,29
814 510 m 0,38,39
 814 595 814 595 798.5 657.5 c 128,-1,40
 783 720 783 720 748 761 c 1,41,-1
 547 176 l 1,42,-1
 567 176 l 2,43,44
 628 176 628 176 674.5 201.5 c 128,-1,45
 721 227 721 227 752 272 c 128,-1,46
 783 317 783 317 798.5 378 c 128,-1,47
 814 439 814 439 814 510 c 0,38,39
EndSplineSet
EndChar
StartChar: thorn
Encoding: 254 254 230
Width: 1126
GlyphClass: 2
Flags: W
AnchorPoint: "Anchor-11" 0 1700 basechar 0
AnchorPoint: "Anchor-10" 1126 1700 basechar 0
AnchorPoint: "Anchor-9" 300 -410 basechar 0
AnchorPoint: "Anchor-6" 1126 -350 basechar 0
AnchorPoint: "Anchor-5" 1126 1700 basechar 0
AnchorPoint: "Anchor-2" 563 -500 basechar 0
AnchorPoint: "Anchor-1" 978 1413 basechar 0
AnchorPoint: "Anchor-0" 563 1503 basechar 0
LayerCount: 2
Back
Fore
SplineSet
1053 526 m 0,0,1
 1053 386 1053 386 1013.5 284 c 128,-1,2
 974 182 974 182 903.5 114.5 c 128,-1,3
 833 47 833 47 737 14.5 c 128,-1,4
 641 -18 641 -18 528 -18 c 0,5,6
 490 -18 490 -18 452 -13 c 128,-1,7
 414 -8 414 -8 383 0 c 1,8,-1
 383 -397 l 1,9,-1
 139 -397 l 1,10,-1
 139 1413 l 1,11,-1
 383 1413 l 1,12,-1
 383 1081 l 1,13,-1
 373 881 l 1,14,15
 428 952 428 952 501.5 995 c 128,-1,16
 575 1038 575 1038 678 1038 c 0,17,18
 768 1038 768 1038 838 1002 c 128,-1,19
 908 966 908 966 955.5 899.5 c 128,-1,20
 1003 833 1003 833 1028 738.5 c 128,-1,21
 1053 644 1053 644 1053 526 c 0,0,1
797 516 m 0,22,23
 797 600 797 600 785 659 c 128,-1,24
 773 718 773 718 750.5 756 c 128,-1,25
 728 794 728 794 695.5 811.5 c 128,-1,26
 663 829 663 829 621 829 c 0,27,28
 559 829 559 829 502.5 779 c 128,-1,29
 446 729 446 729 383 643 c 1,30,-1
 383 199 l 1,31,32
 412 188 412 188 454.5 181 c 128,-1,33
 497 174 497 174 541 174 c 0,34,35
 599 174 599 174 646.5 198 c 128,-1,36
 694 222 694 222 727.5 266 c 128,-1,37
 761 310 761 310 779 373.5 c 128,-1,38
 797 437 797 437 797 516 c 0,22,23
EndSplineSet
EndChar
StartChar: Aogonek
Encoding: 260 260 39
Width: 1126
GlyphClass: 2
Flags: W
AnchorPoint: "Anchor-11" 0 1700 basechar 0
AnchorPoint: "Anchor-10" 1126 1700 basechar 0
AnchorPoint: "Anchor-9" 1020 -385 basechar 0
AnchorPoint: "Anchor-6" 1126 -350 basechar 0
AnchorPoint: "Anchor-5" 1126 1700 basechar 0
AnchorPoint: "Anchor-2" 563 -475 basechar 0
AnchorPoint: "Anchor-1" 916 1390 basechar 0
AnchorPoint: "Anchor-0" 563 1430 basechar 0
LayerCount: 2
Back
Fore
SplineSet
1100 -385 m 1,0,1
 1068 -394 1068 -394 1027.5 -400 c 128,-1,2
 987 -406 987 -406 956 -406 c 0,3,4
 892 -406 892 -406 848.5 -392 c 128,-1,5
 805 -378 805 -378 778 -354 c 128,-1,6
 751 -330 751 -330 739 -297.5 c 128,-1,7
 727 -265 727 -265 727 -227 c 0,8,9
 727 -200 727 -200 732.5 -173.5 c 128,-1,10
 738 -147 738 -147 752 -119.5 c 128,-1,11
 766 -92 766 -92 789.5 -62.5 c 128,-1,12
 813 -33 813 -33 850 0 c 1,13,-1
 778 258 l 1,14,-1
 322 258 l 1,15,-1
 248 0 l 1,16,-1
 4 0 l 1,17,-1
 391 1307 l 1,18,-1
 735 1307 l 1,19,-1
 1122 0 l 1,20,-1
 1061 0 l 1,21,22
 1023 -38 1023 -38 1001 -65.5 c 128,-1,23
 979 -93 979 -93 967 -114 c 128,-1,24
 955 -135 955 -135 951.5 -152 c 128,-1,25
 948 -169 948 -169 948 -184 c 0,26,27
 948 -215 948 -215 964.5 -230.5 c 128,-1,28
 981 -246 981 -246 1026 -246 c 0,29,30
 1042 -246 1042 -246 1063 -243.5 c 128,-1,31
 1084 -241 1084 -241 1100 -238 c 1,32,-1
 1100 -385 l 1,0,1
553 1067 m 1,33,-1
 381 459 l 1,34,-1
 723 459 l 1,35,-1
 553 1067 l 1,33,-1
EndSplineSet
EndChar
StartChar: aogonek
Encoding: 261 261 166
Width: 1126
GlyphClass: 2
Flags: W
AnchorPoint: "Anchor-11" 0 1700 basechar 0
AnchorPoint: "Anchor-10" 1126 1700 basechar 0
AnchorPoint: "Anchor-9" 940 -385 basechar 0
AnchorPoint: "Anchor-6" 1126 -350 basechar 0
AnchorPoint: "Anchor-5" 1126 1700 basechar 0
AnchorPoint: "Anchor-2" 563 -475 basechar 0
AnchorPoint: "Anchor-1" 961 1160 basechar 0
AnchorPoint: "Anchor-0" 563 1200 basechar 0
LayerCount: 2
Back
Fore
SplineSet
1024 -385 m 1,0,1
 992 -394 992 -394 952 -400 c 128,-1,2
 912 -406 912 -406 881 -406 c 0,3,4
 817 -406 817 -406 773 -392 c 128,-1,5
 729 -378 729 -378 702 -354 c 128,-1,6
 675 -330 675 -330 663 -297.5 c 128,-1,7
 651 -265 651 -265 651 -227 c 0,8,9
 651 -200 651 -200 656.5 -173.5 c 128,-1,10
 662 -147 662 -147 676 -119.5 c 128,-1,11
 690 -92 690 -92 713.5 -62.5 c 128,-1,12
 737 -33 737 -33 776 0 c 1,13,-1
 770 133 l 1,14,15
 738 99 738 99 703 70.5 c 128,-1,16
 668 42 668 42 626 21 c 128,-1,17
 584 0 584 0 534.5 -11.5 c 128,-1,18
 485 -23 485 -23 426 -23 c 0,19,20
 348 -23 348 -23 289 0 c 128,-1,21
 230 23 230 23 190 64 c 128,-1,22
 150 105 150 105 129.5 163 c 128,-1,23
 109 221 109 221 109 291 c 0,24,25
 109 363 109 363 139.5 424 c 128,-1,26
 170 485 170 485 232.5 529 c 128,-1,27
 295 573 295 573 388.5 598 c 128,-1,28
 482 623 482 623 608 623 c 2,29,-1
 741 623 l 1,30,-1
 741 684 l 2,31,32
 741 723 741 723 730 754.5 c 128,-1,33
 719 786 719 786 694.5 808 c 128,-1,34
 670 830 670 830 631 842 c 128,-1,35
 592 854 592 854 535 854 c 0,36,37
 445 854 445 854 357.5 833.5 c 128,-1,38
 270 813 270 813 188 776 c 1,39,-1
 188 971 l 1,40,41
 261 1000 261 1000 356.5 1019 c 128,-1,42
 452 1038 452 1038 555 1038 c 0,43,44
 668 1038 668 1038 749 1016.5 c 128,-1,45
 830 995 830 995 882.5 952 c 128,-1,46
 935 909 935 909 960 844.5 c 128,-1,47
 985 780 985 780 985 694 c 2,48,-1
 985 0 l 1,49,50
 947 -38 947 -38 925 -65.5 c 128,-1,51
 903 -93 903 -93 891 -114 c 128,-1,52
 879 -135 879 -135 875.5 -152 c 128,-1,53
 872 -169 872 -169 872 -184 c 0,54,55
 872 -215 872 -215 888.5 -230.5 c 128,-1,56
 905 -246 905 -246 950 -246 c 0,57,58
 966 -246 966 -246 987 -243.5 c 128,-1,59
 1008 -241 1008 -241 1024 -238 c 1,60,-1
 1024 -385 l 1,0,1
741 449 m 1,61,-1
 592 449 l 2,62,63
 530 449 530 449 487 437 c 128,-1,64
 444 425 444 425 417 404 c 128,-1,65
 390 383 390 383 377.5 355.5 c 128,-1,66
 365 328 365 328 365 297 c 0,67,68
 365 235 365 235 405 202.5 c 128,-1,69
 445 170 445 170 514 170 c 0,70,71
 565 170 565 170 620 207 c 128,-1,72
 675 244 675 244 741 313 c 1,73,-1
 741 449 l 1,61,-1
EndSplineSet
EndChar
StartChar: dcroat
Encoding: 273 273 176
Width: 1126
GlyphClass: 2
Flags: W
AnchorPoint: "Anchor-11" 0 1700 basechar 0
AnchorPoint: "Anchor-10" 1126 1700 basechar 0
AnchorPoint: "Anchor-9" 910 0 basechar 0
AnchorPoint: "Anchor-6" 1126 -350 basechar 0
AnchorPoint: "Anchor-5" 1126 1700 basechar 0
AnchorPoint: "Anchor-2" 563 -180 basechar 0
AnchorPoint: "Anchor-1" 1021 1500 basechar 0
AnchorPoint: "Anchor-0" 563 1520 basechar 0
LayerCount: 2
Back
Fore
SplineSet
770 0 m 1,0,-1
 764 150 l 1,1,2
 732 111 732 111 698.5 79 c 128,-1,3
 665 47 665 47 627 24.5 c 128,-1,4
 589 2 589 2 544.5 -10.5 c 128,-1,5
 500 -23 500 -23 446 -23 c 0,6,7
 356 -23 356 -23 287 13 c 128,-1,8
 218 49 218 49 171 115.5 c 128,-1,9
 124 182 124 182 100 277 c 128,-1,10
 76 372 76 372 76 489 c 0,11,12
 76 629 76 629 115 731.5 c 128,-1,13
 154 834 154 834 223 901.5 c 128,-1,14
 292 969 292 969 387.5 1001.5 c 128,-1,15
 483 1034 483 1034 596 1034 c 0,16,17
 634 1034 634 1034 670 1029 c 128,-1,18
 706 1024 706 1024 737 1016 c 1,19,-1
 737 1128 l 1,20,-1
 465 1128 l 1,21,-1
 465 1307 l 1,22,-1
 737 1307 l 1,23,-1
 737 1413 l 1,24,-1
 981 1413 l 1,25,-1
 981 1307 l 1,26,-1
 1112 1307 l 1,27,-1
 1112 1128 l 1,28,-1
 981 1128 l 1,29,-1
 981 0 l 1,30,-1
 770 0 l 1,0,-1
332 500 m 0,31,32
 332 332 332 332 375.5 259 c 128,-1,33
 419 186 419 186 504 186 c 0,34,35
 535 186 535 186 563.5 199 c 128,-1,36
 592 212 592 212 620 236.5 c 128,-1,37
 648 261 648 261 676.5 295.5 c 128,-1,38
 705 330 705 330 737 373 c 1,39,-1
 737 817 l 1,40,41
 708 828 708 828 667.5 835 c 128,-1,42
 627 842 627 842 584 842 c 0,43,44
 525 842 525 842 478.5 818 c 128,-1,45
 432 794 432 794 399.5 750 c 128,-1,46
 367 706 367 706 349.5 642.5 c 128,-1,47
 332 579 332 579 332 500 c 0,31,32
EndSplineSet
EndChar
StartChar: Eogonek
Encoding: 280 280 58
Width: 1126
GlyphClass: 2
Flags: W
AnchorPoint: "Anchor-11" 0 1700 basechar 0
AnchorPoint: "Anchor-10" 1126 1700 basechar 0
AnchorPoint: "Anchor-9" 930 -385 basechar 0
AnchorPoint: "Anchor-6" 1126 -350 basechar 0
AnchorPoint: "Anchor-5" 1126 1700 basechar 0
AnchorPoint: "Anchor-2" 563 -475 basechar 0
AnchorPoint: "Anchor-1" 994 1390 basechar 0
AnchorPoint: "Anchor-0" 563 1430 basechar 0
LayerCount: 2
Back
Fore
SplineSet
1010 -385 m 1,0,1
 978 -394 978 -394 938 -400 c 128,-1,2
 898 -406 898 -406 867 -406 c 0,3,4
 803 -406 803 -406 759 -392 c 128,-1,5
 715 -378 715 -378 688 -354 c 128,-1,6
 661 -330 661 -330 649 -297.5 c 128,-1,7
 637 -265 637 -265 637 -227 c 0,8,9
 637 -200 637 -200 642.5 -173.5 c 128,-1,10
 648 -147 648 -147 662 -119.5 c 128,-1,11
 676 -92 676 -92 699.5 -62.5 c 128,-1,12
 723 -33 723 -33 760 0 c 1,13,-1
 184 0 l 1,14,-1
 184 1307 l 1,15,-1
 971 1307 l 1,16,-1
 971 1099 l 1,17,-1
 434 1099 l 1,18,-1
 434 774 l 1,19,-1
 946 774 l 1,20,-1
 946 571 l 1,21,-1
 434 571 l 1,22,-1
 434 208 l 1,23,-1
 971 208 l 1,24,-1
 971 0 l 1,25,26
 933 -38 933 -38 911 -65.5 c 128,-1,27
 889 -93 889 -93 877 -114 c 128,-1,28
 865 -135 865 -135 861.5 -152 c 128,-1,29
 858 -169 858 -169 858 -184 c 0,30,31
 858 -215 858 -215 874.5 -230.5 c 128,-1,32
 891 -246 891 -246 936 -246 c 0,33,34
 952 -246 952 -246 973 -243.5 c 128,-1,35
 994 -241 994 -241 1010 -238 c 1,36,-1
 1010 -385 l 1,0,1
EndSplineSet
EndChar
StartChar: eogonek
Encoding: 281 281 185
Width: 1126
GlyphClass: 2
Flags: W
AnchorPoint: "Anchor-11" 0 1700 basechar 0
AnchorPoint: "Anchor-10" 1126 1700 basechar 0
AnchorPoint: "Anchor-9" 800 -385 basechar 0
AnchorPoint: "Anchor-6" 1126 -350 basechar 0
AnchorPoint: "Anchor-5" 1126 1700 basechar 0
AnchorPoint: "Anchor-2" 563 -475 basechar 0
AnchorPoint: "Anchor-1" 1008 1160 basechar 0
AnchorPoint: "Anchor-0" 563 1200 basechar 0
LayerCount: 2
Back
Fore
SplineSet
885 -385 m 1,0,1
 853 -394 853 -394 812.5 -400 c 128,-1,2
 772 -406 772 -406 741 -406 c 0,3,4
 677 -406 677 -406 633.5 -392 c 128,-1,5
 590 -378 590 -378 563 -354 c 128,-1,6
 536 -330 536 -330 524 -297.5 c 128,-1,7
 512 -265 512 -265 512 -227 c 0,8,9
 512 -202 512 -202 516.5 -177.5 c 128,-1,10
 521 -153 521 -153 532 -128.5 c 128,-1,11
 543 -104 543 -104 562 -78 c 128,-1,12
 581 -52 581 -52 610 -23 c 1,13,-1
 598 -23 l 2,14,15
 482 -23 482 -23 390 10 c 128,-1,16
 298 43 298 43 234 107.5 c 128,-1,17
 170 172 170 172 136 267 c 128,-1,18
 102 362 102 362 102 487 c 0,19,20
 102 611 102 611 136 712.5 c 128,-1,21
 170 814 170 814 232 886.5 c 128,-1,22
 294 959 294 959 382.5 998.5 c 128,-1,23
 471 1038 471 1038 580 1038 c 0,24,25
 688 1038 688 1038 771 1004.5 c 128,-1,26
 854 971 854 971 910 911 c 128,-1,27
 966 851 966 851 995 768 c 128,-1,28
 1024 685 1024 685 1024 586 c 0,29,30
 1024 561 1024 561 1022.5 521 c 128,-1,31
 1021 481 1021 481 1018 446 c 1,32,-1
 350 446 l 1,33,34
 350 379 350 379 370.5 328 c 128,-1,35
 391 277 391 277 428.5 242.5 c 128,-1,36
 466 208 466 208 518.5 190 c 128,-1,37
 571 172 571 172 635 172 c 0,38,39
 709 172 709 172 793.5 183.5 c 128,-1,40
 878 195 878 195 969 221 c 1,41,-1
 969 27 l 1,42,43
 911 10 911 10 845 0 c 1,44,45
 807 -38 807 -38 785 -65.5 c 128,-1,46
 763 -93 763 -93 751.5 -114 c 128,-1,47
 740 -135 740 -135 736.5 -152 c 128,-1,48
 733 -169 733 -169 733 -184 c 0,49,50
 733 -215 733 -215 749.5 -230.5 c 128,-1,51
 766 -246 766 -246 811 -246 c 0,52,53
 826 -246 826 -246 847.5 -243.5 c 128,-1,54
 869 -241 869 -241 885 -238 c 1,55,-1
 885 -385 l 1,0,1
776 621 m 1,56,57
 777 681 777 681 761 725.5 c 128,-1,58
 745 770 745 770 717.5 799 c 128,-1,59
 690 828 690 828 653.5 842 c 128,-1,60
 617 856 617 856 575 856 c 0,61,62
 483 856 483 856 424 794.5 c 128,-1,63
 365 733 365 733 354 621 c 1,64,-1
 776 621 l 1,56,57
EndSplineSet
EndChar
StartChar: Hbar
Encoding: 294 294 64
Width: 1126
GlyphClass: 2
Flags: W
AnchorPoint: "Anchor-11" 0 1700 basechar 0
AnchorPoint: "Anchor-10" 1126 1700 basechar 0
AnchorPoint: "Anchor-9" 940 0 basechar 0
AnchorPoint: "Anchor-6" 1126 -350 basechar 0
AnchorPoint: "Anchor-5" 1126 1700 basechar 0
AnchorPoint: "Anchor-2" 563 -180 basechar 0
AnchorPoint: "Anchor-1" 1162 1397 basechar 0
AnchorPoint: "Anchor-0" 563 1397 basechar 0
LayerCount: 2
Back
Fore
SplineSet
766 0 m 1,0,-1
 766 545 l 1,1,-1
 363 545 l 1,2,-1
 363 0 l 1,3,-1
 117 0 l 1,4,-1
 117 915 l 1,5,-1
 20 915 l 1,6,-1
 20 1118 l 1,7,-1
 117 1118 l 1,8,-1
 117 1307 l 1,9,-1
 363 1307 l 1,10,-1
 363 1118 l 1,11,-1
 766 1118 l 1,12,-1
 766 1307 l 1,13,-1
 1012 1307 l 1,14,-1
 1012 1118 l 1,15,-1
 1106 1118 l 1,16,-1
 1106 915 l 1,17,-1
 1012 915 l 1,18,-1
 1012 0 l 1,19,-1
 766 0 l 1,0,-1
766 748 m 1,20,-1
 766 915 l 1,21,-1
 363 915 l 1,22,-1
 363 748 l 1,23,-1
 766 748 l 1,20,-1
EndSplineSet
EndChar
StartChar: hbar
Encoding: 295 295 193
Width: 1126
GlyphClass: 2
Flags: W
AnchorPoint: "Anchor-11" 0 1700 basechar 0
AnchorPoint: "Anchor-10" 1126 1700 basechar 0
AnchorPoint: "Anchor-9" 910 0 basechar 0
AnchorPoint: "Anchor-6" 1126 -350 basechar 0
AnchorPoint: "Anchor-5" 1126 1700 basechar 0
AnchorPoint: "Anchor-2" 563 -180 basechar 0
AnchorPoint: "Anchor-1" 967 1413 basechar 0
AnchorPoint: "Anchor-0" 563 1523 basechar 0
LayerCount: 2
Back
Fore
SplineSet
393 1020 m 1,0,-1
 381 835 l 1,1,2
 435 911 435 911 503.5 952 c 128,-1,3
 572 993 572 993 670 993 c 0,4,5
 751 993 751 993 809.5 968 c 128,-1,6
 868 943 868 943 905.5 896.5 c 128,-1,7
 943 850 943 850 961 784 c 128,-1,8
 979 718 979 718 979 637 c 2,9,-1
 979 0 l 1,10,-1
 735 0 l 1,11,-1
 735 616 l 2,12,13
 735 699 735 699 709.5 743.5 c 128,-1,14
 684 788 684 788 616 788 c 0,15,16
 589 788 589 788 565 777.5 c 128,-1,17
 541 767 541 767 515 744.5 c 128,-1,18
 489 722 489 722 459.5 686.5 c 128,-1,19
 430 651 430 651 393 600 c 1,20,-1
 393 0 l 1,21,-1
 150 0 l 1,22,-1
 150 1118 l 1,23,-1
 0 1118 l 1,24,-1
 0 1300 l 1,25,-1
 150 1300 l 1,26,-1
 150 1413 l 1,27,-1
 393 1413 l 1,28,-1
 393 1300 l 1,29,-1
 659 1300 l 1,30,-1
 659 1118 l 1,31,-1
 393 1118 l 1,32,-1
 393 1020 l 1,0,-1
0 1038 m 1024,33,-1
EndSplineSet
EndChar
StartChar: Iogonek
Encoding: 302 302 73
Width: 1126
GlyphClass: 2
Flags: W
AnchorPoint: "Anchor-11" 0 1700 basechar 0
AnchorPoint: "Anchor-10" 1126 1700 basechar 0
AnchorPoint: "Anchor-9" 940 -385 basechar 0
AnchorPoint: "Anchor-6" 1126 -350 basechar 0
AnchorPoint: "Anchor-5" 1126 1700 basechar 0
AnchorPoint: "Anchor-2" 563 -475 basechar 0
AnchorPoint: "Anchor-1" 1004 1390 basechar 0
AnchorPoint: "Anchor-0" 563 1430 basechar 0
LayerCount: 2
Back
Fore
SplineSet
977 203 m 1,0,-1
 977 0 l 1,1,2
 939 -38 939 -38 917 -65.5 c 128,-1,3
 895 -93 895 -93 883 -114 c 128,-1,4
 871 -135 871 -135 867.5 -152 c 128,-1,5
 864 -169 864 -169 864 -184 c 0,6,7
 864 -215 864 -215 880.5 -230.5 c 128,-1,8
 897 -246 897 -246 942 -246 c 0,9,10
 958 -246 958 -246 979 -243.5 c 128,-1,11
 1000 -241 1000 -241 1016 -238 c 1,12,-1
 1016 -385 l 1,13,14
 984 -394 984 -394 944 -400 c 128,-1,15
 904 -406 904 -406 873 -406 c 0,16,17
 809 -406 809 -406 765 -392 c 128,-1,18
 721 -378 721 -378 694 -354 c 128,-1,19
 667 -330 667 -330 655 -297.5 c 128,-1,20
 643 -265 643 -265 643 -227 c 0,21,22
 643 -200 643 -200 648.5 -173.5 c 128,-1,23
 654 -147 654 -147 668 -119.5 c 128,-1,24
 682 -92 682 -92 705.5 -62.5 c 128,-1,25
 729 -33 729 -33 766 0 c 1,26,-1
 199 0 l 1,27,-1
 199 203 l 1,28,-1
 438 203 l 1,29,-1
 438 1106 l 1,30,-1
 199 1106 l 1,31,-1
 199 1307 l 1,32,-1
 925 1307 l 1,33,-1
 925 1106 l 1,34,-1
 688 1106 l 1,35,-1
 688 203 l 1,36,-1
 977 203 l 1,0,-1
EndSplineSet
EndChar
StartChar: iogonek
Encoding: 303 303 201
Width: 1126
GlyphClass: 2
Flags: W
AnchorPoint: "Anchor-11" 0 1700 basechar 0
AnchorPoint: "Anchor-10" 1126 1700 basechar 0
AnchorPoint: "Anchor-9" 980 -385 basechar 0
AnchorPoint: "Anchor-6" 1126 -350 basechar 0
AnchorPoint: "Anchor-5" 1126 1700 basechar 0
AnchorPoint: "Anchor-2" 563 -475 basechar 0
AnchorPoint: "Anchor-1" 777 1500 basechar 0
AnchorPoint: "Anchor-0" 563 1520 basechar 0
LayerCount: 2
Back
Fore
SplineSet
737 1294 m 256,0,1
 737 1261 737 1261 725 1232 c 128,-1,2
 713 1203 713 1203 691.5 1181.5 c 128,-1,3
 670 1160 670 1160 641 1147.5 c 128,-1,4
 612 1135 612 1135 578 1135 c 256,5,6
 544 1135 544 1135 514.5 1147.5 c 128,-1,7
 485 1160 485 1160 463.5 1181.5 c 128,-1,8
 442 1203 442 1203 430 1232 c 128,-1,9
 418 1261 418 1261 418 1294 c 256,10,11
 418 1327 418 1327 430 1356 c 128,-1,12
 442 1385 442 1385 463.5 1407 c 128,-1,13
 485 1429 485 1429 514.5 1441.5 c 128,-1,14
 544 1454 544 1454 578 1454 c 256,15,16
 612 1454 612 1454 641 1441.5 c 128,-1,17
 670 1429 670 1429 691.5 1407 c 128,-1,18
 713 1385 713 1385 725 1356 c 128,-1,19
 737 1327 737 1327 737 1294 c 256,0,1
1010 3 m 1,20,-1
 1010 0 l 1,21,22
 972 -38 972 -38 950 -65.5 c 128,-1,23
 928 -93 928 -93 916 -114 c 128,-1,24
 904 -135 904 -135 900.5 -152 c 128,-1,25
 897 -169 897 -169 897 -184 c 0,26,27
 897 -215 897 -215 913.5 -230.5 c 128,-1,28
 930 -246 930 -246 975 -246 c 0,29,30
 991 -246 991 -246 1012 -243.5 c 128,-1,31
 1033 -241 1033 -241 1049 -238 c 1,32,-1
 1049 -385 l 1,33,34
 1017 -394 1017 -394 977 -400 c 128,-1,35
 937 -406 937 -406 906 -406 c 0,36,37
 842 -406 842 -406 798 -392 c 128,-1,38
 754 -378 754 -378 727 -354 c 128,-1,39
 700 -330 700 -330 688 -297.5 c 128,-1,40
 676 -265 676 -265 676 -227 c 0,41,42
 676 -200 676 -200 681.5 -173.5 c 128,-1,43
 687 -147 687 -147 701 -119.5 c 128,-1,44
 715 -92 715 -92 738.5 -62.5 c 128,-1,45
 762 -33 762 -33 799 0 c 1,46,-1
 803 3 l 1,47,-1
 802 3 l 2,48,49
 624 3 624 3 546.5 101 c 128,-1,50
 469 199 469 199 469 428 c 2,51,-1
 469 790 l 1,52,-1
 217 790 l 1,53,-1
 217 1015 l 1,54,-1
 718 1015 l 1,55,-1
 718 428 l 2,56,57
 718 308 718 308 753 258 c 128,-1,58
 788 208 788 208 872 208 c 2,59,-1
 1071 208 l 1,60,-1
 1071 3 l 1,61,-1
 1010 3 l 1,20,-1
EndSplineSet
AlternateSubs2: "'ss06' Style Set 6 lookup 31 subtable" glyph285
Substitution2: "'ss05' Style Set 5 lookup 30 subtable" iogonek.ss05
AlternateSubs2: "'salt' Stylistic Alternatives lookup 23 subtable" iogonek.ss05 glyph285
Substitution2: "Single Substitution lookup 15 subtable" glyph927
EndChar
StartChar: dotlessi
Encoding: 305 305 202
Width: 1126
GlyphClass: 2
Flags: W
AnchorPoint: "Anchor-11" 0 1700 basechar 0
AnchorPoint: "Anchor-10" 1126 1700 basechar 0
AnchorPoint: "Anchor-9" 930 0 basechar 0
AnchorPoint: "Anchor-6" 1126 -350 basechar 0
AnchorPoint: "Anchor-5" 1126 1700 basechar 0
AnchorPoint: "Anchor-4" 610 1000 basechar 0
AnchorPoint: "Anchor-2" 563 -180 basechar 0
AnchorPoint: "Anchor-1" 777 1184 basechar 0
AnchorPoint: "Anchor-0" 563 1184 basechar 0
LayerCount: 2
Back
Fore
SplineSet
552 790 m 1,0,-1
 300 790 l 1,1,-1
 300 1015 l 1,2,-1
 801 1015 l 1,3,-1
 801 428 l 2,4,5
 801 308 801 308 836 258 c 128,-1,6
 871 208 871 208 955 208 c 2,7,-1
 1154 208 l 1,8,-1
 1154 3 l 1,9,-1
 885 3 l 2,10,11
 707 3 707 3 629.5 101 c 128,-1,12
 552 199 552 199 552 428 c 2,13,-1
 552 790 l 1,0,-1
EndSplineSet
AlternateSubs2: "'ss06' Style Set 6 lookup 31 subtable" glyph286
Substitution2: "'ss05' Style Set 5 lookup 30 subtable" dotlessi.ss05
AlternateSubs2: "'salt' Stylistic Alternatives lookup 23 subtable" dotlessi.ss05 glyph286
EndChar
StartChar: IJ
Encoding: 306 306 74
Width: 1126
GlyphClass: 2
Flags: W
AnchorPoint: "Anchor-11" 0 1700 basechar 0
AnchorPoint: "Anchor-10" 1126 1700 basechar 0
AnchorPoint: "Anchor-9" 750 0 basechar 0
AnchorPoint: "Anchor-6" 1126 -350 basechar 0
AnchorPoint: "Anchor-5" 1126 1700 basechar 0
AnchorPoint: "Anchor-2" 563 -180 basechar 0
AnchorPoint: "Anchor-1" 1082 1397 basechar 0
AnchorPoint: "Anchor-0" 563 1397 basechar 0
LayerCount: 2
Back
Fore
SplineSet
342 0 m 1,0,-1
 96 0 l 1,1,-1
 96 1307 l 1,2,-1
 342 1307 l 1,3,-1
 342 0 l 1,0,-1
1032 324 m 2,4,5
 1032 253 1032 253 1008.5 191 c 128,-1,6
 985 129 985 129 940 83 c 128,-1,7
 895 37 895 37 829.5 10.5 c 128,-1,8
 764 -16 764 -16 680 -16 c 0,9,10
 627 -16 627 -16 575.5 -7 c 128,-1,11
 524 2 524 2 479 19 c 1,12,-1
 479 236 l 1,13,14
 516 216 516 216 564 203.5 c 128,-1,15
 612 191 612 191 661 191 c 0,16,17
 682 191 682 191 704 198 c 128,-1,18
 726 205 726 205 744.5 221.5 c 128,-1,19
 763 238 763 238 774.5 266 c 128,-1,20
 786 294 786 294 786 336 c 2,21,-1
 786 1307 l 1,22,-1
 1032 1307 l 1,23,-1
 1032 324 l 2,4,5
EndSplineSet
EndChar
StartChar: ij
Encoding: 307 307 203
Width: 1126
GlyphClass: 2
Flags: W
AnchorPoint: "Anchor-11" 0 1700 basechar 0
AnchorPoint: "Anchor-10" 1126 1700 basechar 0
AnchorPoint: "Anchor-9" 780 -350 basechar 0
AnchorPoint: "Anchor-6" 1126 -350 basechar 0
AnchorPoint: "Anchor-5" 1126 1700 basechar 0
AnchorPoint: "Anchor-2" 563 -550 basechar 0
AnchorPoint: "Anchor-1" 1086 1513 basechar 0
AnchorPoint: "Anchor-0" 563 1520 basechar 0
LayerCount: 2
Back
Fore
SplineSet
989 25 m 2,0,1
 989 -96 989 -96 961 -180.5 c 128,-1,2
 933 -265 933 -265 881 -318.5 c 128,-1,3
 829 -372 829 -372 754.5 -396 c 128,-1,4
 680 -420 680 -420 588 -420 c 0,5,6
 531 -420 531 -420 479 -414 c 128,-1,7
 427 -408 427 -408 381 -395 c 1,8,-1
 381 -188 l 1,9,10
 399 -196 399 -196 422 -203 c 128,-1,11
 445 -210 445 -210 471.5 -215.5 c 128,-1,12
 498 -221 498 -221 525 -224 c 128,-1,13
 552 -227 552 -227 578 -227 c 0,14,15
 670 -227 670 -227 707.5 -167.5 c 128,-1,16
 745 -108 745 -108 745 12 c 2,17,-1
 745 1016 l 1,18,-1
 989 1016 l 1,19,-1
 989 25 l 2,0,1
383 1016 m 1,20,-1
 383 0 l 1,21,-1
 139 0 l 1,22,-1
 139 1016 l 1,23,-1
 383 1016 l 1,20,-1
418 1294 m 0,24,25
 418 1261 418 1261 406 1232.5 c 128,-1,26
 394 1204 394 1204 373 1182.5 c 128,-1,27
 352 1161 352 1161 323.5 1149 c 128,-1,28
 295 1137 295 1137 262 1137 c 0,29,30
 228 1137 228 1137 199 1149 c 128,-1,31
 170 1161 170 1161 149 1182.5 c 128,-1,32
 128 1204 128 1204 116 1232.5 c 128,-1,33
 104 1261 104 1261 104 1294 c 0,34,35
 104 1326 104 1326 116 1354.5 c 128,-1,36
 128 1383 128 1383 149 1404 c 128,-1,37
 170 1425 170 1425 199 1437.5 c 128,-1,38
 228 1450 228 1450 262 1450 c 0,39,40
 295 1450 295 1450 323.5 1437.5 c 128,-1,41
 352 1425 352 1425 373 1404 c 128,-1,42
 394 1383 394 1383 406 1354.5 c 128,-1,43
 418 1326 418 1326 418 1294 c 0,24,25
1025 1294 m 0,44,45
 1025 1261 1025 1261 1013 1232.5 c 128,-1,46
 1001 1204 1001 1204 979.5 1182.5 c 128,-1,47
 958 1161 958 1161 929.5 1149 c 128,-1,48
 901 1137 901 1137 868 1137 c 0,49,50
 834 1137 834 1137 805.5 1149 c 128,-1,51
 777 1161 777 1161 756 1182.5 c 128,-1,52
 735 1204 735 1204 723 1232.5 c 128,-1,53
 711 1261 711 1261 711 1294 c 0,54,55
 711 1326 711 1326 723 1354.5 c 128,-1,56
 735 1383 735 1383 756 1404 c 128,-1,57
 777 1425 777 1425 805.5 1437.5 c 128,-1,58
 834 1450 834 1450 868 1450 c 0,59,60
 901 1450 901 1450 929.5 1437.5 c 128,-1,61
 958 1425 958 1425 979.5 1404 c 128,-1,62
 1001 1383 1001 1383 1013 1354.5 c 128,-1,63
 1025 1326 1025 1326 1025 1294 c 0,44,45
EndSplineSet
EndChar
StartChar: Lslash
Encoding: 321 321 80
Width: 1126
GlyphClass: 2
Flags: W
AnchorPoint: "Anchor-11" 0 1700 basechar 0
AnchorPoint: "Anchor-10" 1126 1700 basechar 0
AnchorPoint: "Anchor-9" 940 0 basechar 0
AnchorPoint: "Anchor-6" 1126 -350 basechar 0
AnchorPoint: "Anchor-5" 1126 1700 basechar 0
AnchorPoint: "Anchor-2" 583 -180 basechar 0
AnchorPoint: "Anchor-1" 985 1390 basechar 0
AnchorPoint: "Anchor-0" 583 1430 basechar 0
LayerCount: 2
Back
Fore
SplineSet
465 211 m 1,0,-1
 1020 211 l 1,1,-1
 1020 0 l 1,2,-1
 215 0 l 1,3,-1
 215 551 l 1,4,-1
 35 459 l 1,5,-1
 35 672 l 1,6,-1
 215 764 l 1,7,-1
 215 1307 l 1,8,-1
 465 1307 l 1,9,-1
 465 892 l 1,10,-1
 819 1073 l 1,11,-1
 819 860 l 1,12,-1
 465 679 l 1,13,-1
 465 211 l 1,0,-1
EndSplineSet
EndChar
StartChar: lslash
Encoding: 322 322 211
Width: 1126
GlyphClass: 2
Flags: W
AnchorPoint: "Anchor-11" 0 1700 basechar 0
AnchorPoint: "Anchor-10" 1126 1700 basechar 0
AnchorPoint: "Anchor-9" 930 0 basechar 0
AnchorPoint: "Anchor-6" 1126 -350 basechar 0
AnchorPoint: "Anchor-5" 1126 1700 basechar 0
AnchorPoint: "Anchor-2" 563 -180 basechar 0
AnchorPoint: "Anchor-1" 773 1500 basechar 0
AnchorPoint: "Anchor-0" 563 1520 basechar 0
LayerCount: 2
Back
Fore
SplineSet
203 682 m 1,0,-1
 467 815 l 1,1,-1
 467 1223 l 1,2,-1
 180 1223 l 1,3,-1
 180 1413 l 1,4,-1
 717 1413 l 1,5,-1
 717 940 l 1,6,-1
 981 1073 l 1,7,-1
 981 854 l 1,8,-1
 717 721 l 1,9,-1
 717 190 l 1,10,-1
 1010 190 l 1,11,-1
 1010 0 l 1,12,-1
 145 0 l 1,13,-1
 145 190 l 1,14,-1
 467 190 l 1,15,-1
 467 596 l 1,16,-1
 203 463 l 1,17,-1
 203 682 l 1,0,-1
EndSplineSet
AlternateSubs2: "'ss06' Style Set 6 lookup 31 subtable" glyph300
Substitution2: "'ss05' Style Set 5 lookup 30 subtable" lslash.ss05
AlternateSubs2: "'salt' Stylistic Alternatives lookup 23 subtable" lslash.ss05 glyph300
EndChar
StartChar: Eng
Encoding: 330 330 86
Width: 1126
GlyphClass: 2
Flags: W
AnchorPoint: "Anchor-11" 0 1700 basechar 0
AnchorPoint: "Anchor-10" 1126 1700 basechar 0
AnchorPoint: "Anchor-9" 810 -350 basechar 0
AnchorPoint: "Anchor-6" 1126 -350 basechar 0
AnchorPoint: "Anchor-5" 1126 1700 basechar 0
AnchorPoint: "Anchor-2" 563 -510 basechar 0
AnchorPoint: "Anchor-1" 1058 1390 basechar 0
AnchorPoint: "Anchor-0" 563 1430 basechar 0
LayerCount: 2
Back
Fore
SplineSet
1040 2 m 2,0,1
 1040 -112 1040 -112 1006.5 -192.5 c 128,-1,2
 973 -273 973 -273 912 -323.5 c 128,-1,3
 851 -374 851 -374 763.5 -397 c 128,-1,4
 676 -420 676 -420 568 -420 c 1,5,-1
 568 -225 l 1,6,7
 679 -225 679 -225 736.5 -174 c 128,-1,8
 794 -123 794 -123 794 0 c 1,9,-1
 318 948 l 1,10,-1
 318 815 l 1,11,-1
 318 0 l 1,12,-1
 94 0 l 1,13,-1
 94 1307 l 1,14,-1
 382 1307 l 1,15,-1
 773 543 l 1,16,-1
 816 449 l 1,17,-1
 816 557 l 1,18,-1
 816 1307 l 1,19,-1
 1040 1307 l 1,20,-1
 1040 2 l 2,0,1
EndSplineSet
Substitution2: "'ss03' Style Set 3 lookup 28 subtable" Eng.ss03
Substitution2: "'ss02' Style Set 2 lookup 26 subtable" Eng.ss02
Substitution2: "'ss01' Style Set 1 lookup 24 subtable" Eng.ss01
EndChar
StartChar: eng
Encoding: 331 331 218
Width: 1126
GlyphClass: 2
Flags: W
AnchorPoint: "Anchor-11" 0 1700 basechar 0
AnchorPoint: "Anchor-10" 1126 1700 basechar 0
AnchorPoint: "Anchor-9" 740 -350 basechar 0
AnchorPoint: "Anchor-6" 1126 -350 basechar 0
AnchorPoint: "Anchor-5" 1126 1700 basechar 0
AnchorPoint: "Anchor-2" 563 -510 basechar 0
AnchorPoint: "Anchor-1" 1017 1160 basechar 0
AnchorPoint: "Anchor-0" 563 1200 basechar 0
LayerCount: 2
Back
Fore
SplineSet
989 29 m 2,0,1
 989 -85 989 -85 956.5 -169.5 c 128,-1,2
 924 -254 924 -254 863 -309.5 c 128,-1,3
 802 -365 802 -365 715 -392.5 c 128,-1,4
 628 -420 628 -420 520 -420 c 1,5,-1
 520 -225 l 1,6,7
 632 -225 632 -225 688.5 -161 c 128,-1,8
 745 -97 745 -97 745 27 c 2,9,-1
 745 662 l 2,10,11
 745 829 745 829 621 829 c 0,12,13
 559 829 559 829 502.5 779 c 128,-1,14
 446 729 446 729 383 643 c 1,15,-1
 383 0 l 1,16,-1
 139 0 l 1,17,-1
 139 1016 l 1,18,-1
 350 1016 l 1,19,-1
 356 866 l 1,20,21
 387 905 387 905 420.5 937 c 128,-1,22
 454 969 454 969 493 991.5 c 128,-1,23
 532 1014 532 1014 577 1026 c 128,-1,24
 622 1038 622 1038 678 1038 c 0,25,26
 756 1038 756 1038 814 1012.5 c 128,-1,27
 872 987 872 987 911 940.5 c 128,-1,28
 950 894 950 894 969.5 828.5 c 128,-1,29
 989 763 989 763 989 682 c 2,30,-1
 989 29 l 2,0,1
EndSplineSet
EndChar
StartChar: OE
Encoding: 338 338 97
Width: 1126
GlyphClass: 2
Flags: W
AnchorPoint: "Anchor-11" 0 1700 basechar 0
AnchorPoint: "Anchor-10" 1126 1700 basechar 0
AnchorPoint: "Anchor-9" 1020 0 basechar 0
AnchorPoint: "Anchor-6" 1126 -350 basechar 0
AnchorPoint: "Anchor-5" 1126 1700 basechar 0
AnchorPoint: "Anchor-2" 683 -180 basechar 0
AnchorPoint: "Anchor-1" 1120 1390 basechar 0
AnchorPoint: "Anchor-0" 683 1430 basechar 0
LayerCount: 2
Back
Fore
SplineSet
745 0 m 2,0,1
 707 0 707 0 678 -3 c 128,-1,2
 649 -6 649 -6 621.5 -9 c 128,-1,3
 594 -12 594 -12 565.5 -15 c 128,-1,4
 537 -18 537 -18 502 -18 c 0,5,6
 376 -18 376 -18 286 25 c 128,-1,7
 196 68 196 68 138.5 153 c 128,-1,8
 81 238 81 238 54 362.5 c 128,-1,9
 27 487 27 487 27 651 c 0,10,11
 27 828 27 828 63.5 955 c 128,-1,12
 100 1082 100 1082 165 1164.5 c 128,-1,13
 230 1247 230 1247 318.5 1286 c 128,-1,14
 407 1325 407 1325 512 1325 c 0,15,16
 553 1325 553 1325 582.5 1322 c 128,-1,17
 612 1319 612 1319 637 1316 c 128,-1,18
 662 1313 662 1313 685.5 1310 c 128,-1,19
 709 1307 709 1307 737 1307 c 2,20,-1
 1100 1307 l 1,21,-1
 1100 1110 l 1,22,-1
 811 1110 l 1,23,-1
 811 770 l 1,24,-1
 1077 770 l 1,25,-1
 1077 580 l 1,26,-1
 811 580 l 1,27,-1
 811 197 l 1,28,-1
 1100 197 l 1,29,-1
 1100 0 l 1,30,-1
 745 0 l 2,0,1
582 1108 m 1,31,32
 568 1113 568 1113 552.5 1114.5 c 128,-1,33
 537 1116 537 1116 508 1116 c 0,34,35
 446 1116 446 1116 402.5 1082.5 c 128,-1,36
 359 1049 359 1049 330.5 988.5 c 128,-1,37
 302 928 302 928 289 843 c 128,-1,38
 276 758 276 758 276 655 c 0,39,40
 276 544 276 544 288.5 457.5 c 128,-1,41
 301 371 301 371 329.5 312 c 128,-1,42
 358 253 358 253 403.5 222 c 128,-1,43
 449 191 449 191 514 191 c 0,44,45
 540 191 540 191 555.5 194 c 128,-1,46
 571 197 571 197 582 202 c 1,47,-1
 582 1108 l 1,31,32
EndSplineSet
EndChar
StartChar: oe
Encoding: 339 339 229
Width: 1126
GlyphClass: 2
Flags: W
AnchorPoint: "Anchor-11" 0 1700 basechar 0
AnchorPoint: "Anchor-10" 1126 1700 basechar 0
AnchorPoint: "Anchor-9" 900 0 basechar 0
AnchorPoint: "Anchor-6" 1126 -350 basechar 0
AnchorPoint: "Anchor-5" 1126 1700 basechar 0
AnchorPoint: "Anchor-4" 970 930 basechar 0
AnchorPoint: "Anchor-2" 563 -180 basechar 0
AnchorPoint: "Anchor-1" 1106 1160 basechar 0
AnchorPoint: "Anchor-0" 563 1200 basechar 0
LayerCount: 2
Back
Fore
SplineSet
565 137 m 1,0,1
 552 102 552 102 529 72.5 c 128,-1,2
 506 43 506 43 476 22 c 128,-1,3
 446 1 446 1 410 -11 c 128,-1,4
 374 -23 374 -23 334 -23 c 0,5,6
 255 -23 255 -23 197.5 5.5 c 128,-1,7
 140 34 140 34 102.5 96 c 128,-1,8
 65 158 65 158 47 257.5 c 128,-1,9
 29 357 29 357 29 498 c 0,10,11
 29 618 29 618 48 717.5 c 128,-1,12
 67 817 67 817 106.5 888.5 c 128,-1,13
 146 960 146 960 206.5 999 c 128,-1,14
 267 1038 267 1038 350 1038 c 0,15,16
 428 1038 428 1038 488 1000.5 c 128,-1,17
 548 963 548 963 580 883 c 1,18,19
 612 957 612 957 669 997.5 c 128,-1,20
 726 1038 726 1038 801 1038 c 0,21,22
 879 1038 879 1038 935.5 1005.5 c 128,-1,23
 992 973 992 973 1028 913 c 128,-1,24
 1064 853 1064 853 1081 769.5 c 128,-1,25
 1098 686 1098 686 1098 584 c 0,26,27
 1098 572 1098 572 1097.5 555 c 128,-1,28
 1097 538 1097 538 1096.5 520 c 128,-1,29
 1096 502 1096 502 1095.5 484 c 128,-1,30
 1095 466 1095 466 1094 453 c 1,31,-1
 670 453 l 1,32,33
 670 382 670 382 683 326 c 128,-1,34
 696 270 696 270 719 230.5 c 128,-1,35
 742 191 742 191 775 170 c 128,-1,36
 808 149 808 149 848 149 c 0,37,38
 894 149 894 149 949.5 160.5 c 128,-1,39
 1005 172 1005 172 1061 195 c 1,40,-1
 1061 23 l 1,41,42
 1008 1 1008 1 942.5 -11 c 128,-1,43
 877 -23 877 -23 815 -23 c 0,44,45
 774 -23 774 -23 735.5 -13 c 128,-1,46
 697 -3 697 -3 664 16.5 c 128,-1,47
 631 36 631 36 605.5 66 c 128,-1,48
 580 96 580 96 565 137 c 1,0,1
465 510 m 0,49,50
 465 607 465 607 458 675 c 128,-1,51
 451 743 451 743 436.5 785.5 c 128,-1,52
 422 828 422 828 399.5 847 c 128,-1,53
 377 866 377 866 346 866 c 0,54,55
 317 866 317 866 295 846 c 128,-1,56
 273 826 273 826 257 783 c 128,-1,57
 241 740 241 740 233 672 c 128,-1,58
 225 604 225 604 225 508 c 0,59,60
 225 409 225 409 232 340.5 c 128,-1,61
 239 272 239 272 253.5 229.5 c 128,-1,62
 268 187 268 187 291 168 c 128,-1,63
 314 149 314 149 346 149 c 0,64,65
 374 149 374 149 396 168.5 c 128,-1,66
 418 188 418 188 433.5 231.5 c 128,-1,67
 449 275 449 275 457 343.5 c 128,-1,68
 465 412 465 412 465 510 c 0,49,50
903 608 m 1,69,70
 903 745 903 745 875 805.5 c 128,-1,71
 847 866 847 866 797 866 c 0,72,73
 738 866 738 866 707 799.5 c 128,-1,74
 676 733 676 733 670 608 c 1,75,-1
 903 608 l 1,69,70
EndSplineSet
EndChar
StartChar: Scedilla
Encoding: 350 350 105
Width: 1126
GlyphClass: 2
Flags: W
AnchorPoint: "Anchor-11" 0 1700 basechar 0
AnchorPoint: "Anchor-10" 1126 1700 basechar 0
AnchorPoint: "Anchor-9" 480 -295 basechar 0
AnchorPoint: "Anchor-6" 1126 -350 basechar 0
AnchorPoint: "Anchor-5" 1126 1700 basechar 0
AnchorPoint: "Anchor-2" 563 -385 basechar 0
AnchorPoint: "Anchor-1" 967 1390 basechar 0
AnchorPoint: "Anchor-0" 563 1430 basechar 0
LayerCount: 2
Back
Fore
SplineSet
1020 395 m 0,0,1
 1020 309 1020 309 994.5 242 c 128,-1,2
 969 175 969 175 922.5 125.5 c 128,-1,3
 876 76 876 76 810.5 43 c 128,-1,4
 745 10 745 10 665 -6 c 1,5,-1
 557 -295 l 1,6,-1
 379 -295 l 1,7,-1
 435 -22 l 1,8,9
 347 -20 347 -20 263.5 -7.5 c 128,-1,10
 180 5 180 5 98 29 c 1,11,-1
 98 272 l 1,12,13
 144 256 144 256 194 242 c 128,-1,14
 244 228 244 228 294.5 217.5 c 128,-1,15
 345 207 345 207 395 201 c 128,-1,16
 445 195 445 195 492 195 c 0,17,18
 562 195 562 195 611 207 c 128,-1,19
 660 219 660 219 691 240 c 128,-1,20
 722 261 722 261 736 290 c 128,-1,21
 750 319 750 319 750 354 c 0,22,23
 750 402 750 402 722.5 434.5 c 128,-1,24
 695 467 695 467 650 492 c 128,-1,25
 605 517 605 517 547.5 537 c 128,-1,26
 490 557 490 557 430.5 580 c 128,-1,27
 371 603 371 603 313.5 632 c 128,-1,28
 256 661 256 661 211 704 c 128,-1,29
 166 747 166 747 138.5 806.5 c 128,-1,30
 111 866 111 866 111 950 c 0,31,32
 111 1027 111 1027 139 1096 c 128,-1,33
 167 1165 167 1165 227 1216.5 c 128,-1,34
 287 1268 287 1268 381 1298.5 c 128,-1,35
 475 1329 475 1329 608 1329 c 0,36,37
 647 1329 647 1329 689.5 1325.5 c 128,-1,38
 732 1322 732 1322 773.5 1316.5 c 128,-1,39
 815 1311 815 1311 853.5 1303.5 c 128,-1,40
 892 1296 892 1296 924 1288 c 1,41,-1
 924 1063 l 1,42,43
 892 1075 892 1075 854 1085 c 128,-1,44
 816 1095 816 1095 775.5 1102.5 c 128,-1,45
 735 1110 735 1110 694 1114 c 128,-1,46
 653 1118 653 1118 616 1118 c 0,47,48
 551 1118 551 1118 506 1107.5 c 128,-1,49
 461 1097 461 1097 432 1078.5 c 128,-1,50
 403 1060 403 1060 390 1033 c 128,-1,51
 377 1006 377 1006 377 973 c 0,52,53
 377 932 377 932 404.5 902.5 c 128,-1,54
 432 873 432 873 477.5 849.5 c 128,-1,55
 523 826 523 826 580.5 805.5 c 128,-1,56
 638 785 638 785 698.5 761.5 c 128,-1,57
 759 738 759 738 816.5 708 c 128,-1,58
 874 678 874 678 919.5 635 c 128,-1,59
 965 592 965 592 992.5 533.5 c 128,-1,60
 1020 475 1020 475 1020 395 c 0,0,1
EndSplineSet
Substitution2: "'salt' Stylistic Alternatives in Latin lookup 39 subtable" uni0218
EndChar
StartChar: scedilla
Encoding: 351 351 237
Width: 1126
GlyphClass: 2
Flags: W
AnchorPoint: "Anchor-11" 0 1700 basechar 0
AnchorPoint: "Anchor-10" 1126 1700 basechar 0
AnchorPoint: "Anchor-9" 505 -295 basechar 0
AnchorPoint: "Anchor-6" 1126 -350 basechar 0
AnchorPoint: "Anchor-5" 1126 1700 basechar 0
AnchorPoint: "Anchor-2" 563 -385 basechar 0
AnchorPoint: "Anchor-1" 935 1160 basechar 0
AnchorPoint: "Anchor-0" 563 1200 basechar 0
LayerCount: 2
Back
Fore
SplineSet
977 299 m 0,0,1
 977 233 977 233 954.5 182 c 128,-1,2
 932 131 932 131 893 93.5 c 128,-1,3
 854 56 854 56 801.5 31.5 c 128,-1,4
 749 7 749 7 689 -6 c 1,5,-1
 582 -295 l 1,6,-1
 403 -295 l 1,7,-1
 460 -22 l 1,8,9
 372 -19 372 -19 297.5 -9 c 128,-1,10
 223 1 223 1 156 18 c 1,11,-1
 156 238 l 1,12,13
 250 199 250 199 343.5 181.5 c 128,-1,14
 437 164 437 164 520 164 c 0,15,16
 616 164 616 164 663.5 194.5 c 128,-1,17
 711 225 711 225 711 274 c 0,18,19
 711 297 711 297 701 316 c 128,-1,20
 691 335 691 335 663.5 352.5 c 128,-1,21
 636 370 636 370 586 388.5 c 128,-1,22
 536 407 536 407 455 430 c 0,23,24
 380 451 380 451 323.5 477.5 c 128,-1,25
 267 504 267 504 230 540 c 128,-1,26
 193 576 193 576 174.5 623.5 c 128,-1,27
 156 671 156 671 156 735 c 0,28,29
 156 797 156 797 184 852 c 128,-1,30
 212 907 212 907 267.5 948.5 c 128,-1,31
 323 990 323 990 406 1014 c 128,-1,32
 489 1038 489 1038 600 1038 c 0,33,34
 696 1038 696 1038 770 1028 c 128,-1,35
 844 1018 844 1018 901 1006 c 1,36,-1
 901 807 l 1,37,38
 814 835 814 835 737.5 846.5 c 128,-1,39
 661 858 661 858 586 858 c 256,40,41
 511 858 511 858 465.5 831 c 128,-1,42
 420 804 420 804 420 756 c 0,43,44
 420 733 420 733 429 715 c 128,-1,45
 438 697 438 697 464.5 680 c 128,-1,46
 491 663 491 663 538.5 644.5 c 128,-1,47
 586 626 586 626 664 604 c 0,48,49
 752 579 752 579 812 550.5 c 128,-1,50
 872 522 872 522 908.5 486 c 128,-1,51
 945 450 945 450 961 404 c 128,-1,52
 977 358 977 358 977 299 c 0,0,1
EndSplineSet
Substitution2: "'salt' Stylistic Alternatives in Latin lookup 39 subtable" uni0219
EndChar
StartChar: Tbar
Encoding: 358 358 109
Width: 1126
GlyphClass: 2
Flags: W
AnchorPoint: "Anchor-11" 0 1700 basechar 0
AnchorPoint: "Anchor-10" 1126 1700 basechar 0
AnchorPoint: "Anchor-9" 610 0 basechar 0
AnchorPoint: "Anchor-6" 1126 -350 basechar 0
AnchorPoint: "Anchor-5" 1126 1700 basechar 0
AnchorPoint: "Anchor-2" 563 -180 basechar 0
AnchorPoint: "Anchor-1" 1106 1397 basechar 0
AnchorPoint: "Anchor-0" 563 1430 basechar 0
LayerCount: 2
Back
Fore
SplineSet
689 1102 m 1,0,-1
 689 737 l 1,1,-1
 927 737 l 1,2,-1
 927 535 l 1,3,-1
 689 535 l 1,4,-1
 689 0 l 1,5,-1
 437 0 l 1,6,-1
 437 535 l 1,7,-1
 200 535 l 1,8,-1
 200 737 l 1,9,-1
 437 737 l 1,10,-1
 437 1102 l 1,11,-1
 79 1102 l 1,12,-1
 79 1307 l 1,13,-1
 1047 1307 l 1,14,-1
 1047 1102 l 1,15,-1
 689 1102 l 1,0,-1
EndSplineSet
EndChar
StartChar: tbar
Encoding: 359 359 243
Width: 1126
GlyphClass: 2
Flags: W
AnchorPoint: "Anchor-11" 0 1700 basechar 0
AnchorPoint: "Anchor-10" 1126 1700 basechar 0
AnchorPoint: "Anchor-9" 780 0 basechar 0
AnchorPoint: "Anchor-6" 1126 -350 basechar 0
AnchorPoint: "Anchor-5" 1126 1700 basechar 0
AnchorPoint: "Anchor-2" 563 -180 basechar 0
AnchorPoint: "Anchor-1" 969 1415 basechar 0
AnchorPoint: "Anchor-0" 433 1450 basechar 0
LayerCount: 2
Back
Fore
SplineSet
582 348 m 2,0,1
 582 261 582 261 622 216.5 c 128,-1,2
 662 172 662 172 756 172 c 0,3,4
 816 172 816 172 873 182 c 128,-1,5
 930 192 930 192 977 205 c 1,6,-1
 977 10 l 1,7,8
 911 -5 911 -5 844 -14 c 128,-1,9
 777 -23 777 -23 717 -23 c 0,10,11
 617 -23 617 -23 544.5 -2 c 128,-1,12
 472 19 472 19 424.5 62 c 128,-1,13
 377 105 377 105 354.5 171.5 c 128,-1,14
 332 238 332 238 332 330 c 2,15,-1
 332 431 l 1,16,-1
 100 431 l 1,17,-1
 100 621 l 1,18,-1
 332 621 l 1,19,-1
 332 826 l 1,20,-1
 59 826 l 1,21,-1
 59 1016 l 1,22,-1
 332 1016 l 1,23,-1
 332 1276 l 1,24,-1
 582 1341 l 1,25,-1
 582 1016 l 1,26,-1
 977 1016 l 1,27,-1
 977 826 l 1,28,-1
 582 826 l 1,29,-1
 582 621 l 1,30,-1
 915 621 l 1,31,-1
 915 431 l 1,32,-1
 582 431 l 1,33,-1
 582 348 l 2,0,1
0 1016 m 1024,34,-1
EndSplineSet
EndChar
StartChar: Uogonek
Encoding: 370 370 119
Width: 1126
GlyphClass: 2
Flags: W
AnchorPoint: "Anchor-11" 0 1700 basechar 0
AnchorPoint: "Anchor-10" 1126 1700 basechar 0
AnchorPoint: "Anchor-9" 700 -385 basechar 0
AnchorPoint: "Anchor-6" 1126 -350 basechar 0
AnchorPoint: "Anchor-5" 1126 1700 basechar 0
AnchorPoint: "Anchor-2" 563 -475 basechar 0
AnchorPoint: "Anchor-1" 1068 1390 basechar 0
AnchorPoint: "Anchor-0" 563 1430 basechar 0
LayerCount: 2
Back
Fore
SplineSet
768 -385 m 1,0,1
 736 -394 736 -394 696 -400 c 128,-1,2
 656 -406 656 -406 625 -406 c 0,3,4
 561 -406 561 -406 517 -392 c 128,-1,5
 473 -378 473 -378 446 -354 c 128,-1,6
 419 -330 419 -330 407 -297.5 c 128,-1,7
 395 -265 395 -265 395 -227 c 0,8,9
 395 -202 395 -202 399.5 -177.5 c 128,-1,10
 404 -153 404 -153 415.5 -128 c 128,-1,11
 427 -103 427 -103 446 -76.5 c 128,-1,12
 465 -50 465 -50 495 -21 c 1,13,14
 387 -14 387 -14 309 20.5 c 128,-1,15
 231 55 231 55 181.5 114.5 c 128,-1,16
 132 174 132 174 109.5 256 c 128,-1,17
 87 338 87 338 87 440 c 2,18,-1
 87 1307 l 1,19,-1
 333 1307 l 1,20,-1
 333 455 l 2,21,22
 333 389 333 389 344 338 c 128,-1,23
 355 287 355 287 384 251.5 c 128,-1,24
 413 216 413 216 456 198 c 128,-1,25
 499 180 499 180 564 180 c 0,26,27
 625 180 625 180 667 195.5 c 128,-1,28
 709 211 709 211 737 245.5 c 128,-1,29
 765 280 765 280 779 334 c 128,-1,30
 793 388 793 388 793 465 c 2,31,-1
 793 1307 l 1,32,-1
 1039 1307 l 1,33,-1
 1039 481 l 2,34,35
 1039 296 1039 296 963 172 c 128,-1,36
 887 48 887 48 728 0 c 1,37,38
 691 -38 691 -38 669 -65.5 c 128,-1,39
 647 -93 647 -93 635 -114 c 128,-1,40
 623 -135 623 -135 619.5 -152 c 128,-1,41
 616 -169 616 -169 616 -184 c 0,42,43
 616 -215 616 -215 632.5 -230.5 c 128,-1,44
 649 -246 649 -246 694 -246 c 0,45,46
 710 -246 710 -246 731.5 -243.5 c 128,-1,47
 753 -241 753 -241 768 -238 c 1,48,-1
 768 -385 l 1,0,1
EndSplineSet
EndChar
StartChar: uogonek
Encoding: 371 371 253
Width: 1126
GlyphClass: 2
Flags: W
AnchorPoint: "Anchor-11" 0 1700 basechar 0
AnchorPoint: "Anchor-10" 1126 1700 basechar 0
AnchorPoint: "Anchor-9" 940 -385 basechar 0
AnchorPoint: "Anchor-6" 1126 -350 basechar 0
AnchorPoint: "Anchor-5" 1126 1700 basechar 0
AnchorPoint: "Anchor-2" 563 -475 basechar 0
AnchorPoint: "Anchor-1" 1017 1160 basechar 0
AnchorPoint: "Anchor-0" 563 1200 basechar 0
LayerCount: 2
Back
Fore
SplineSet
1026 -385 m 1,0,1
 994 -394 994 -394 954 -400 c 128,-1,2
 914 -406 914 -406 883 -406 c 0,3,4
 819 -406 819 -406 775 -392 c 128,-1,5
 731 -378 731 -378 704 -354 c 128,-1,6
 677 -330 677 -330 665 -297.5 c 128,-1,7
 653 -265 653 -265 653 -227 c 0,8,9
 653 -200 653 -200 658.5 -173.5 c 128,-1,10
 664 -147 664 -147 678 -119.5 c 128,-1,11
 692 -92 692 -92 715.5 -62.5 c 128,-1,12
 739 -33 739 -33 776 0 c 1,13,-1
 770 150 l 1,14,15
 738 111 738 111 705 79 c 128,-1,16
 672 47 672 47 633.5 24.5 c 128,-1,17
 595 2 595 2 549.5 -10.5 c 128,-1,18
 504 -23 504 -23 449 -23 c 0,19,20
 371 -23 371 -23 312.5 2.5 c 128,-1,21
 254 28 254 28 215 75 c 128,-1,22
 176 122 176 122 156.5 187.5 c 128,-1,23
 137 253 137 253 137 334 c 2,24,-1
 137 1016 l 1,25,-1
 381 1016 l 1,26,-1
 381 354 l 2,27,28
 381 271 381 271 412 228.5 c 128,-1,29
 443 186 443 186 506 186 c 0,30,31
 567 186 567 186 623.5 236.5 c 128,-1,32
 680 287 680 287 743 373 c 1,33,-1
 743 1016 l 1,34,-1
 987 1016 l 1,35,-1
 987 0 l 1,36,37
 949 -38 949 -38 927 -65.5 c 128,-1,38
 905 -93 905 -93 893 -114 c 128,-1,39
 881 -135 881 -135 877.5 -152 c 128,-1,40
 874 -169 874 -169 874 -184 c 0,41,42
 874 -215 874 -215 890.5 -230.5 c 128,-1,43
 907 -246 907 -246 952 -246 c 0,44,45
 968 -246 968 -246 989 -243.5 c 128,-1,46
 1010 -241 1010 -241 1026 -238 c 1,47,-1
 1026 -385 l 1,0,1
EndSplineSet
EndChar
StartChar: longs
Encoding: 383 383 240
Width: 1126
GlyphClass: 2
Flags: W
AnchorPoint: "Anchor-11" 0 1700 basechar 0
AnchorPoint: "Anchor-10" 1126 1700 basechar 0
AnchorPoint: "Anchor-9" 440 0 basechar 0
AnchorPoint: "Anchor-6" 1126 -350 basechar 0
AnchorPoint: "Anchor-5" 1126 1700 basechar 0
AnchorPoint: "Anchor-2" 563 -180 basechar 0
AnchorPoint: "Anchor-1" 1096 1517 basechar 0
AnchorPoint: "Anchor-0" 698 1517 basechar 0
LayerCount: 2
Back
Fore
SplineSet
262 956 m 2,0,1
 262 1052 262 1052 290.5 1139 c 128,-1,2
 319 1226 319 1226 380.5 1292 c 128,-1,3
 442 1358 442 1358 539.5 1397 c 128,-1,4
 637 1436 637 1436 774 1436 c 0,5,6
 846 1436 846 1436 918 1427.5 c 128,-1,7
 990 1419 990 1419 1047 1405 c 1,8,-1
 1047 1200 l 1,9,10
 1021 1209 1021 1209 989 1216 c 128,-1,11
 957 1223 957 1223 923 1228 c 128,-1,12
 889 1233 889 1233 855.5 1236 c 128,-1,13
 822 1239 822 1239 793 1239 c 0,14,15
 714 1239 714 1239 660.5 1219.5 c 128,-1,16
 607 1200 607 1200 575 1166 c 128,-1,17
 543 1132 543 1132 528.5 1085 c 128,-1,18
 514 1038 514 1038 514 983 c 2,19,-1
 514 0 l 1,20,-1
 262 0 l 1,21,-1
 262 956 l 2,0,1
EndSplineSet
EndChar
